  0
SECTION
  2
HEADER
  9
$ACADVER
  1
AC1024
  9
$ACADMAINTVER
 70
6
  9
$DWGCODEPAGE
  3
ANSI_1252
  9
$LASTSAVEDBY
  1
ezdxf
  9
$INSBASE
 10
0.0
 20
0.0
 30
0.0
  9
$EXTMIN
 10
1e+20
 20
1e+20
 30
1e+20
  9
$EXTMAX
 10
-1e+20
 20
-1e+20
 30
-1e+20
  9
$LIMMIN
 10
0.0
 20
0.0
  9
$LIMMAX
 10
420.0
 20
297.0
  9
$ORTHOMODE
 70
0
  9
$REGENMODE
 70
1
  9
$FILLMODE
 70
1
  9
$QTEXTMODE
 70
0
  9
$MIRRTEXT
 70
1
  9
$LTSCALE
 40
1.0
  9
$ATTMODE
 70
1
  9
$TEXTSIZE
 40
2.5
  9
$TRACEWID
 40
1.0
  9
$TEXTSTYLE
  7
OpenSans
  9
$CLAYER
  8
0
  9
$CELTYPE
  6
ByLayer
  9
$CECOLOR
 62
256
  9
$CELTSCALE
 40
1.0
  9
$DISPSILH
 70
0
  9
$DIMSCALE
 40
1.0
  9
$DIMASZ
 40
0.175
  9
$DIMEXO
 40
0.125
  9
$DIMDLI
 40
3.75
  9
$DIMRND
 40
0.0
  9
$DIMDLE
 40
0.0
  9
$DIMEXE
 40
0.375
  9
$DIMTP
 40
0.0
  9
$DIMTM
 40
0.0
  9
$DIMTXT
 40
0.25
  9
$DIMCEN
 40
2.5
  9
$DIMTSZ
 40
0.0
  9
$DIMTOL
 70
0
  9
$DIMLIM
 70
0
  9
$DIMTIH
 70
0
  9
$DIMTOH
 70
0
  9
$DIMSE1
 70
0
  9
$DIMSE2
 70
0
  9
$DIMTAD
 70
1
  9
$DIMZIN
 70
12
  9
$DIMBLK
  1
ARCHTICK
  9
$DIMASO
 70
1
  9
$DIMSHO
 70
1
  9
$DIMPOST
  1

  9
$DIMAPOST
  1

  9
$DIMALT
 70
0
  9
$DIMALTD
 70
3
  9
$DIMALTF
 40
0.03937007874
  9
$DIMLFAC
 40
100.0
  9
$DIMTOFL
 70
1
  9
$DIMTVP
 40
0.0
  9
$DIMTIX
 70
0
  9
$DIMSOXD
 70
0
  9
$DIMSAH
 70
0
  9
$DIMBLK1
  1

  9
$DIMBLK2
  1

  9
$DIMSTYLE
  2
EZDXF
  9
$DIMCLRD
 70
0
  9
$DIMCLRE
 70
0
  9
$DIMCLRT
 70
0
  9
$DIMTFAC
 40
0.5
  9
$DIMGAP
 40
0.1
  9
$DIMJUST
 70
0
  9
$DIMSD1
 70
0
  9
$DIMSD2
 70
0
  9
$DIMTOLJ
 70
0
  9
$DIMTZIN
 70
8
  9
$DIMALTZ
 70
0
  9
$DIMALTTZ
 70
0
  9
$DIMUPT
 70
1
  9
$DIMDEC
 70
2
  9
$DIMTDEC
 70
2
  9
$DIMALTU
 70
2
  9
$DIMALTTD
 70
3
  9
$DIMTXSTY
  7
OpenSansCondensed-Light
  9
$DIMAUNIT
 70
0
  9
$DIMADEC
 70
2
  9
$DIMALTRND
 40
0.0
  9
$DIMAZIN
 70
3
  9
$DIMDSEP
 70
46
  9
$DIMATFIT
 70
3
  9
$DIMFRAC
 70
0
  9
$DIMLDRBLK
  1

  9
$DIMLUNIT
 70
2
  9
$DIMLWD
 70
-2
  9
$DIMLWE
 70
-2
  9
$DIMTMOVE
 70
2
  9
$DIMFXL
 40
1.0
  9
$DIMFXLON
 70
0
  9
$DIMJOGANG
 40
0.785398163397
  9
$DIMTFILL
 70
0
  9
$DIMTFILLCLR
 70
0
  9
$DIMARCSYM
 70
0
  9
$DIMLTYPE
  6

  9
$DIMLTEX1
  6

  9
$DIMLTEX2
  6

  9
$DIMTXTDIRECTION
 70
0
  9
$LUNITS
 70
2
  9
$LUPREC
 70
4
  9
$SKETCHINC
 40
1.0
  9
$FILLETRAD
 40
10.0
  9
$AUNITS
 70
0
  9
$AUPREC
 70
2
  9
$MENU
  1
.
  9
$ELEVATION
 40
0.0
  9
$PELEVATION
 40
0.0
  9
$THICKNESS
 40
0.0
  9
$LIMCHECK
 70
0
  9
$CHAMFERA
 40
0.0
  9
$CHAMFERB
 40
0.0
  9
$CHAMFERC
 40
0.0
  9
$CHAMFERD
 40
0.0
  9
$SKPOLY
 70
0
  9
$TDCREATE
 40
2461285.277962963
  9
$TDUCREATE
 40
2458532.153996898
  9
$TDUPDATE
 40
2461285.277962963
  9
$TDUUPDATE
 40
2458532.1544311
  9
$TDINDWG
 40
0.0
  9
$TDUSRTIMER
 40
0.0
  9
$USRTIMER
 70
1
  9
$ANGBASE
 50
0.0
  9
$ANGDIR
 70
0
  9
$PDMODE
 70
0
  9
$PDSIZE
 40
0.0
  9
$PLINEWID
 40
0.0
  9
$SPLFRAME
 70
0
  9
$SPLINETYPE
 70
6
  9
$SPLINESEGS
 70
8
  9
$HANDSEED
  5
A7
  9
$SURFTAB1
 70
6
  9
$SURFTAB2
 70
6
  9
$SURFTYPE
 70
6
  9
$SURFU
 70
6
  9
$SURFV
 70
6
  9
$UCSBASE
  2

  9
$UCSNAME
  2

  9
$UCSORG
 10
0.0
 20
0.0
 30
0.0
  9
$UCSXDIR
 10
1.0
 20
0.0
 30
0.0
  9
$UCSYDIR
 10
0.0
 20
1.0
 30
0.0
  9
$UCSORTHOREF
  2

  9
$UCSORTHOVIEW
 70
0
  9
$UCSORGTOP
 10
0.0
 20
0.0
 30
0.0
  9
$UCSORGBOTTOM
 10
0.0
 20
0.0
 30
0.0
  9
$UCSORGLEFT
 10
0.0
 20
0.0
 30
0.0
  9
$UCSORGRIGHT
 10
0.0
 20
0.0
 30
0.0
  9
$UCSORGFRONT
 10
0.0
 20
0.0
 30
0.0
  9
$UCSORGBACK
 10
0.0
 20
0.0
 30
0.0
  9
$PUCSBASE
  2

  9
$PUCSNAME
  2

  9
$PUCSORG
 10
0.0
 20
0.0
 30
0.0
  9
$PUCSXDIR
 10
1.0
 20
0.0
 30
0.0
  9
$PUCSYDIR
 10
0.0
 20
1.0
 30
0.0
  9
$PUCSORTHOREF
  2

  9
$PUCSORTHOVIEW
 70
0
  9
$PUCSORGTOP
 10
0.0
 20
0.0
 30
0.0
  9
$PUCSORGBOTTOM
 10
0.0
 20
0.0
 30
0.0
  9
$PUCSORGLEFT
 10
0.0
 20
0.0
 30
0.0
  9
$PUCSORGRIGHT
 10
0.0
 20
0.0
 30
0.0
  9
$PUCSORGFRONT
 10
0.0
 20
0.0
 30
0.0
  9
$PUCSORGBACK
 10
0.0
 20
0.0
 30
0.0
  9
$USERI1
 70
0
  9
$USERI2
 70
0
  9
$USERI3
 70
0
  9
$USERI4
 70
0
  9
$USERI5
 70
0
  9
$USERR1
 40
0.0
  9
$USERR2
 40
0.0
  9
$USERR3
 40
0.0
  9
$USERR4
 40
0.0
  9
$USERR5
 40
0.0
  9
$WORLDVIEW
 70
1
  9
$SHADEDGE
 70
3
  9
$SHADEDIF
 70
70
  9
$TILEMODE
 70
1
  9
$MAXACTVP
 70
64
  9
$PINSBASE
 10
0.0
 20
0.0
 30
0.0
  9
$PLIMCHECK
 70
0
  9
$PEXTMIN
 10
1e+20
 20
1e+20
 30
1e+20
  9
$PEXTMAX
 10
-1e+20
 20
-1e+20
 30
-1e+20
  9
$PLIMMIN
 10
0.0
 20
0.0
  9
$PLIMMAX
 10
420.0
 20
297.0
  9
$UNITMODE
 70
0
  9
$VISRETAIN
 70
1
  9
$PLINEGEN
 70
0
  9
$PSLTSCALE
 70
1
  9
$TREEDEPTH
 70
3020
  9
$CMLSTYLE
  2
Standard
  9
$CMLJUST
 70
0
  9
$CMLSCALE
 40
20.0
  9
$PROXYGRAPHICS
 70
1
  9
$MEASUREMENT
 70
1
  9
$CELWEIGHT
370
-1
  9
$ENDCAPS
280
0
  9
$JOINSTYLE
280
0
  9
$LWDISPLAY
290
0
  9
$INSUNITS
 70
4
  9
$HYPERLINKBASE
  1

  9
$STYLESHEET
  1

  9
$XEDIT
290
1
  9
$CEPSNTYPE
380
0
  9
$PSTYLEMODE
290
1
  9
$FINGERPRINTGUID
  2
{1EA6A810-ED44-49D6-AD32-CBC632C6038E}
  9
$VERSIONGUID
  2
{8838B74C-1FA5-4B93-A913-89433B5D20FD}
  9
$EXTNAMES
290
1
  9
$PSVPSCALE
 40
0.0
  9
$OLESTARTUP
290
0
  9
$SORTENTS
280
127
  9
$INDEXCTL
280
0
  9
$HIDETEXT
280
1
  9
$XCLIPFRAME
280
1
  9
$HALOGAP
280
0
  9
$OBSCOLOR
 70
257
  9
$OBSLTYPE
280
0
  9
$INTERSECTIONDISPLAY
280
0
  9
$INTERSECTIONCOLOR
 70
257
  9
$DIMASSOC
280
2
  9
$PROJECTNAME
  1

  9
$CAMERADISPLAY
290
0
  9
$LENSLENGTH
 40
50.0
  9
$CAMERAHEIGHT
 40
0.0
  9
$STEPSPERSEC
 40
24.0
  9
$STEPSIZE
 40
100.0
  9
$3DDWFPREC
 40
2.0
  9
$PSOLWIDTH
 40
0.005
  9
$PSOLHEIGHT
 40
0.08
  9
$LOFTANG1
 40
1.570796326795
  9
$LOFTANG2
 40
1.570796326795
  9
$LOFTMAG1
 40
0.0
  9
$LOFTMAG2
 40
0.0
  9
$LOFTPARAM
 70
7
  9
$LOFTNORMALS
280
1
  9
$LATITUDE
 40
37.795
  9
$LONGITUDE
 40
-122.394
  9
$NORTHDIRECTION
 40
0.0
  9
$TIMEZONE
 70
-8000
  9
$LIGHTGLYPHDISPLAY
280
1
  9
$TILEMODELIGHTSYNCH
280
1
  9
$CMATERIAL
347
20
  9
$SOLIDHIST
280
0
  9
$SHOWHIST
280
1
  9
$DWFFRAME
280
2
  9
$DGNFRAME
280
2
  9
$REALWORLDSCALE
290
1
  9
$INTERFERECOLOR
 62
256
  9
$CSHADOW
280
0
  9
$SHADOWPLANELOCATION
 40
0.0
  0
ENDSEC
  0
SECTION
  2
CLASSES
  0
CLASS
  1
ACDBDICTIONARYWDFLT
  2
AcDbDictionaryWithDefault
  3
ObjectDBX Classes
 90
0
 91
0
280
0
281
0
  0
CLASS
  1
SUN
  2
AcDbSun
  3
SCENEOE
 90
1153
 91
0
280
0
281
0
  0
CLASS
  1
VISUALSTYLE
  2
AcDbVisualStyle
  3
ObjectDBX Classes
 90
4095
 91
0
280
0
281
0
  0
CLASS
  1
MATERIAL
  2
AcDbMaterial
  3
ObjectDBX Classes
 90
1153
 91
0
280
0
281
0
  0
CLASS
  1
SCALE
  2
AcDbScale
  3
ObjectDBX Classes
 90
1153
 91
0
280
0
281
0
  0
CLASS
  1
TABLESTYLE
  2
AcDbTableStyle
  3
ObjectDBX Classes
 90
4095
 91
0
280
0
281
0
  0
CLASS
  1
MLEADERSTYLE
  2
AcDbMLeaderStyle
  3
ACDB_MLEADERSTYLE_CLASS
 90
4095
 91
0
280
0
281
0
  0
CLASS
  1
DICTIONARYVAR
  2
AcDbDictionaryVar
  3
ObjectDBX Classes
 90
0
 91
0
280
0
281
0
  0
CLASS
  1
CELLSTYLEMAP
  2
AcDbCellStyleMap
  3
ObjectDBX Classes
 90
1152
 91
0
280
0
281
0
  0
CLASS
  1
MENTALRAYRENDERSETTINGS
  2
AcDbMentalRayRenderSettings
  3
SCENEOE
 90
1024
 91
0
280
0
281
0
  0
CLASS
  1
ACDBDETAILVIEWSTYLE
  2
AcDbDetailViewStyle
  3
ObjectDBX Classes
 90
1025
 91
0
280
0
281
0
  0
CLASS
  1
ACDBSECTIONVIEWSTYLE
  2
AcDbSectionViewStyle
  3
ObjectDBX Classes
 90
1025
 91
0
280
0
281
0
  0
CLASS
  1
RASTERVARIABLES
  2
AcDbRasterVariables
  3
ISM
 90
0
 91
0
280
0
281
0
  0
CLASS
  1
ACDBPLACEHOLDER
  2
AcDbPlaceHolder
  3
ObjectDBX Classes
 90
0
 91
0
280
0
281
0
  0
CLASS
  1
LAYOUT
  2
AcDbLayout
  3
ObjectDBX Classes
 90
0
 91
0
280
0
281
0
  0
ENDSEC
  0
SECTION
  2
TABLES
  0
TABLE
  2
VPORT
  5
8
330
0
100
AcDbSymbolTable
 70
1
  0
VPORT
  5
23
330
8
100
AcDbSymbolTableRecord
100
AcDbViewportTableRecord
  2
*Active
 70
0
 10
0.0
 20
0.0
 11
1.0
 21
1.0
 12
0.0
 22
0.0
 13
0.0
 23
0.0
 14
0.5
 24
0.5
 15
0.5
 25
0.5
 16
0.0
 26
0.0
 36
1.0
 17
0.0
 27
0.0
 37
0.0
 40
1000.0
 41
1.34
 42
50.0
 43
0.0
 44
0.0
 50
0.0
 51
0.0
 71
0
 72
1000
 73
1
 74
3
 75
0
 76
0
 77
0
 78
0
281
0
 65
0
146
0.0
  0
ENDTAB
  0
TABLE
  2
LTYPE
  5
2
330
0
100
AcDbSymbolTable
 70
21
  0
LTYPE
  5
24
330
2
100
AcDbSymbolTableRecord
100
AcDbLinetypeTableRecord
  2
ByBlock
 70
0
  3

 72
65
 73
0
 40
0.0
  0
LTYPE
  5
25
330
2
100
AcDbSymbolTableRecord
100
AcDbLinetypeTableRecord
  2
ByLayer
 70
0
  3

 72
65
 73
0
 40
0.0
  0
LTYPE
  5
26
330
2
100
AcDbSymbolTableRecord
100
AcDbLinetypeTableRecord
  2
Continuous
 70
0
  3

 72
65
 73
0
 40
0.0
  0
LTYPE
  5
2F
330
2
100
AcDbSymbolTableRecord
100
AcDbLinetypeTableRecord
  2
CENTER
 70
0
  3
Center ____ _ ____ _ ____ _ ____ _ ____ _ ____
 72
65
 73
4
 40
5.08
 49
3.175
 74
0
 49
-0.635
 74
0
 49
0.635
 74
0
 49
-0.635
 74
0
  0
LTYPE
  5
30
330
2
100
AcDbSymbolTableRecord
100
AcDbLinetypeTableRecord
  2
CENTERX2
 70
0
  3
Center (2x) ________  __  ________  __  ________
 72
65
 73
4
 40
8.89
 49
6.35
 74
0
 49
-0.635
 74
0
 49
1.27
 74
0
 49
-0.635
 74
0
  0
LTYPE
  5
31
330
2
100
AcDbSymbolTableRecord
100
AcDbLinetypeTableRecord
  2
CENTER2
 70
0
  3
Center (.5x) ____ _ ____ _ ____ _ ____ _ ____
 72
65
 73
4
 40
2.54
 49
1.587
 74
0
 49
-0.318
 74
0
 49
0.318
 74
0
 49
-0.318
 74
0
  0
LTYPE
  5
32
330
2
100
AcDbSymbolTableRecord
100
AcDbLinetypeTableRecord
  2
DASHED
 70
0
  3
Dashed __ __ __ __ __ __ __ __ __ __ __ __ __ _
 72
65
 73
2
 40
1.524
 49
1.27
 74
0
 49
-0.254
 74
0
  0
LTYPE
  5
33
330
2
100
AcDbSymbolTableRecord
100
AcDbLinetypeTableRecord
  2
DASHEDX2
 70
0
  3
Dashed (2x) ____  ____  ____  ____  ____  ____
 72
65
 73
2
 40
3.048
 49
2.54
 74
0
 49
-0.508
 74
0
  0
LTYPE
  5
34
330
2
100
AcDbSymbolTableRecord
100
AcDbLinetypeTableRecord
  2
DASHED2
 70
0
  3
Dashed (.5x) _ _ _ _ _ _ _ _ _ _ _ _ _ _
 72
65
 73
2
 40
0.762
 49
0.635
 74
0
 49
-0.127
 74
0
  0
LTYPE
  5
35
330
2
100
AcDbSymbolTableRecord
100
AcDbLinetypeTableRecord
  2
PHANTOM
 70
0
  3
Phantom ______  __  __  ______  __  __  ______
 72
65
 73
6
 40
6.35
 49
3.175
 74
0
 49
-0.635
 74
0
 49
0.635
 74
0
 49
-0.635
 74
0
 49
0.635
 74
0
 49
-0.635
 74
0
  0
LTYPE
  5
36
330
2
100
AcDbSymbolTableRecord
100
AcDbLinetypeTableRecord
  2
PHANTOMX2
 70
0
  3
Phantom (2x)____________    ____    ____    ____________
 72
65
 73
6
 40
10.795
 49
6.35
 74
0
 49
-0.635
 74
0
 49
1.27
 74
0
 49
-0.635
 74
0
 49
1.27
 74
0
 49
-0.635
 74
0
  0
LTYPE
  5
37
330
2
100
AcDbSymbolTableRecord
100
AcDbLinetypeTableRecord
  2
PHANTOM2
 70
0
  3
Phantom (.5x) ___ _ _ ___ _ _ ___ _ _ ___ _ _ ___
 72
65
 73
6
 40
3.175
 49
1.587
 74
0
 49
-0.318
 74
0
 49
0.318
 74
0
 49
-0.318
 74
0
 49
0.318
 74
0
 49
-0.318
 74
0
  0
LTYPE
  5
38
330
2
100
AcDbSymbolTableRecord
100
AcDbLinetypeTableRecord
  2
DASHDOT
 70
0
  3
Dash dot __ . __ . __ . __ . __ . __ . __ . __
 72
65
 73
4
 40
3.556
 49
2.54
 74
0
 49
-0.508
 74
0
 49
0.0
 74
0
 49
-0.508
 74
0
  0
LTYPE
  5
39
330
2
100
AcDbSymbolTableRecord
100
AcDbLinetypeTableRecord
  2
DASHDOTX2
 70
0
  3
Dash dot (2x) ____  .  ____  .  ____  .  ____
 72
65
 73
4
 40
6.096
 49
5.08
 74
0
 49
-0.508
 74
0
 49
0.0
 74
0
 49
-0.508
 74
0
  0
LTYPE
  5
3A
330
2
100
AcDbSymbolTableRecord
100
AcDbLinetypeTableRecord
  2
DASHDOT2
 70
0
  3
Dash dot (.5x) _ . _ . _ . _ . _ . _ . _ . _
 72
65
 73
4
 40
1.778
 49
1.27
 74
0
 49
-0.254
 74
0
 49
0.0
 74
0
 49
-0.254
 74
0
  0
LTYPE
  5
3B
330
2
100
AcDbSymbolTableRecord
100
AcDbLinetypeTableRecord
  2
DOT
 70
0
  3
Dot .  .  .  .  .  .  .  .  .  .  .  .  .  .  .  .
 72
65
 73
2
 40
0.508
 49
0.0
 74
0
 49
-0.508
 74
0
  0
LTYPE
  5
3C
330
2
100
AcDbSymbolTableRecord
100
AcDbLinetypeTableRecord
  2
DOTX2
 70
0
  3
Dot (2x) .    .    .    .    .    .    .    . 
 72
65
 73
2
 40
1.016
 49
0.0
 74
0
 49
-1.016
 74
0
  0
LTYPE
  5
3D
330
2
100
AcDbSymbolTableRecord
100
AcDbLinetypeTableRecord
  2
DOT2
 70
0
  3
Dot (.5) . . . . . . . . . . . . . . . . . . . 
 72
65
 73
2
 40
0.254
 49
0.0
 74
0
 49
-0.254
 74
0
  0
LTYPE
  5
3E
330
2
100
AcDbSymbolTableRecord
100
AcDbLinetypeTableRecord
  2
DIVIDE
 70
0
  3
Divide __ . . __ . . __ . . __ . . __ . . __
 72
65
 73
6
 40
4.064
 49
2.54
 74
0
 49
-0.508
 74
0
 49
0.0
 74
0
 49
-0.508
 74
0
 49
0.0
 74
0
 49
-0.508
 74
0
  0
LTYPE
  5
3F
330
2
100
AcDbSymbolTableRecord
100
AcDbLinetypeTableRecord
  2
DIVIDEX2
 70
0
  3
Divide (2x) ____  . .  ____  . .  ____  . .  ____
 72
65
 73
6
 40
6.604
 49
5.08
 74
0
 49
-0.508
 74
0
 49
0.0
 74
0
 49
-0.508
 74
0
 49
0.0
 74
0
 49
-0.508
 74
0
  0
LTYPE
  5
40
330
2
100
AcDbSymbolTableRecord
100
AcDbLinetypeTableRecord
  2
DIVIDE2
 70
0
  3
Divide(.5x) _ . _ . _ . _ . _ . _ . _ . _
 72
65
 73
6
 40
2.032
 49
1.27
 74
0
 49
-0.254
 74
0
 49
0.0
 74
0
 49
-0.254
 74
0
 49
0.0
 74
0
 49
-0.254
 74
0
  0
ENDTAB
  0
TABLE
  2
LAYER
  5
1
330
0
100
AcDbSymbolTable
 70
11
  0
LAYER
  5
27
330
1
100
AcDbSymbolTableRecord
100
AcDbLayerTableRecord
  2
0
 70
0
 62
7
  6
Continuous
370
-3
390
13
347
21
  0
LAYER
  5
28
330
1
100
AcDbSymbolTableRecord
100
AcDbLayerTableRecord
  2
Defpoints
 70
0
 62
7
  6
Continuous
290
0
370
-3
390
13
347
21
  0
LAYER
  5
8A
330
1
100
AcDbSymbolTableRecord
100
AcDbLayerTableRecord
  2
ANT_CENTERLINE
 70
0
 62
5
  6
Continuous
370
-3
390
13
347
21
  0
LAYER
  5
8B
330
1
100
AcDbSymbolTableRecord
100
AcDbLayerTableRecord
  2
ANT_COPPER
 70
0
 62
3
  6
Continuous
370
-3
390
13
347
21
  0
LAYER
  5
8C
330
1
100
AcDbSymbolTableRecord
100
AcDbLayerTableRecord
  2
ANT_COPPER_HATCH
 70
0
 62
3
  6
Continuous
370
-3
390
13
347
21
  0
LAYER
  5
8D
330
1
100
AcDbSymbolTableRecord
100
AcDbLayerTableRecord
  2
ANT_BOTTOM
 70
0
 62
1
  6
Continuous
370
-3
390
13
347
21
  0
LAYER
  5
8E
330
1
100
AcDbSymbolTableRecord
100
AcDbLayerTableRecord
  2
ANT_PADS
 70
0
 62
2
  6
Continuous
370
-3
390
13
347
21
  0
LAYER
  5
8F
330
1
100
AcDbSymbolTableRecord
100
AcDbLayerTableRecord
  2
ANT_VIA
 70
0
 62
6
  6
Continuous
370
-3
390
13
347
21
  0
LAYER
  5
90
330
1
100
AcDbSymbolTableRecord
100
AcDbLayerTableRecord
  2
ANT_KEEPOUT
 70
0
 62
8
  6
Continuous
370
-3
390
13
347
21
  0
LAYER
  5
91
330
1
100
AcDbSymbolTableRecord
100
AcDbLayerTableRecord
  2
BOARD_OUTLINE
 70
0
 62
7
  6
Continuous
370
-3
390
13
347
21
  0
LAYER
  5
92
330
1
100
AcDbSymbolTableRecord
100
AcDbLayerTableRecord
  2
ANT_INFO
 70
0
 62
4
  6
Continuous
370
-3
390
13
347
21
  0
ENDTAB
  0
TABLE
  2
STYLE
  5
5
330
0
100
AcDbSymbolTable
 70
26
  0
STYLE
  5
29
330
5
100
AcDbSymbolTableRecord
100
AcDbTextStyleTableRecord
  2
Standard
 70
0
 40
0.0
 41
1.0
 50
0.0
 71
0
 42
2.5
  3
txt
  4

  0
STYLE
  5
41
330
5
100
AcDbSymbolTableRecord
100
AcDbTextStyleTableRecord
  2
OpenSans-Light
 70
0
 40
0.0
 41
1.0
 50
0.0
 71
0
 42
2.5
  3
OpenSans-Light.ttf
  4

  0
STYLE
  5
42
330
5
100
AcDbSymbolTableRecord
100
AcDbTextStyleTableRecord
  2
OpenSans-Light-Italic
 70
0
 40
0.0
 41
1.0
 50
0.0
 71
0
 42
2.5
  3
OpenSans-LightItalic.ttf
  4

  0
STYLE
  5
43
330
5
100
AcDbSymbolTableRecord
100
AcDbTextStyleTableRecord
  2
OpenSans
 70
0
 40
0.0
 41
1.0
 50
0.0
 71
0
 42
2.5
  3
OpenSans-Regular.ttf
  4

  0
STYLE
  5
44
330
5
100
AcDbSymbolTableRecord
100
AcDbTextStyleTableRecord
  2
OpenSans-Italic
 70
0
 40
0.0
 41
1.0
 50
0.0
 71
0
 42
2.5
  3
OpenSans-Italic.ttf
  4

  0
STYLE
  5
45
330
5
100
AcDbSymbolTableRecord
100
AcDbTextStyleTableRecord
  2
OpenSans-SemiBold
 70
0
 40
0.0
 41
1.0
 50
0.0
 71
0
 42
2.5
  3
OpenSans-SemiBold.ttf
  4

  0
STYLE
  5
46
330
5
100
AcDbSymbolTableRecord
100
AcDbTextStyleTableRecord
  2
OpenSans-SemiBoldItalic
 70
0
 40
0.0
 41
1.0
 50
0.0
 71
0
 42
2.5
  3
OpenSans-SemiBoldItalic.ttf
  4

  0
STYLE
  5
47
330
5
100
AcDbSymbolTableRecord
100
AcDbTextStyleTableRecord
  2
OpenSans-Bold
 70
0
 40
0.0
 41
1.0
 50
0.0
 71
0
 42
2.5
  3
OpenSans-Bold.ttf
  4

  0
STYLE
  5
48
330
5
100
AcDbSymbolTableRecord
100
AcDbTextStyleTableRecord
  2
OpenSans-BoldItalic
 70
0
 40
0.0
 41
1.0
 50
0.0
 71
0
 42
2.5
  3
OpenSans-BoldItalic.ttf
  4

  0
STYLE
  5
49
330
5
100
AcDbSymbolTableRecord
100
AcDbTextStyleTableRecord
  2
OpenSans-ExtraBold
 70
0
 40
0.0
 41
1.0
 50
0.0
 71
0
 42
2.5
  3
OpenSans-ExtraBold.ttf
  4

  0
STYLE
  5
4A
330
5
100
AcDbSymbolTableRecord
100
AcDbTextStyleTableRecord
  2
OpenSans-ExtraBoldItalic
 70
0
 40
0.0
 41
1.0
 50
0.0
 71
0
 42
2.5
  3
OpenSans-ExtraBoldItalic.ttf
  4

  0
STYLE
  5
4B
330
5
100
AcDbSymbolTableRecord
100
AcDbTextStyleTableRecord
  2
OpenSansCondensed-Bold
 70
0
 40
0.0
 41
1.0
 50
0.0
 71
0
 42
2.5
  3
OpenSansCondensed-Bold.ttf
  4

  0
STYLE
  5
4C
330
5
100
AcDbSymbolTableRecord
100
AcDbTextStyleTableRecord
  2
OpenSansCondensed-Light
 70
0
 40
0.0
 41
1.0
 50
0.0
 71
0
 42
2.5
  3
OpenSansCondensed-Light.ttf
  4

  0
STYLE
  5
4D
330
5
100
AcDbSymbolTableRecord
100
AcDbTextStyleTableRecord
  2
OpenSansCondensed-Italic
 70
0
 40
0.0
 41
1.0
 50
0.0
 71
0
 42
2.5
  3
OpenSansCondensed-LightItalic.ttf
  4

  0
STYLE
  5
4E
330
5
100
AcDbSymbolTableRecord
100
AcDbTextStyleTableRecord
  2
LiberationSans
 70
0
 40
0.0
 41
1.0
 50
0.0
 71
0
 42
2.5
  3
LiberationSans-Regular.ttf
  4

  0
STYLE
  5
4F
330
5
100
AcDbSymbolTableRecord
100
AcDbTextStyleTableRecord
  2
LiberationSans-Bold
 70
0
 40
0.0
 41
1.0
 50
0.0
 71
0
 42
2.5
  3
LiberationSans-Bold.ttf
  4

  0
STYLE
  5
50
330
5
100
AcDbSymbolTableRecord
100
AcDbTextStyleTableRecord
  2
LiberationSans-BoldItalic
 70
0
 40
0.0
 41
1.0
 50
0.0
 71
0
 42
2.5
  3
LiberationSans-BoldItalic.ttf
  4

  0
STYLE
  5
51
330
5
100
AcDbSymbolTableRecord
100
AcDbTextStyleTableRecord
  2
LiberationSans-Italic
 70
0
 40
0.0
 41
1.0
 50
0.0
 71
0
 42
2.5
  3
LiberationSans-Italic.ttf
  4

  0
STYLE
  5
52
330
5
100
AcDbSymbolTableRecord
100
AcDbTextStyleTableRecord
  2
LiberationSerif
 70
0
 40
0.0
 41
1.0
 50
0.0
 71
0
 42
2.5
  3
LiberationSerif-Regular.ttf
  4

  0
STYLE
  5
53
330
5
100
AcDbSymbolTableRecord
100
AcDbTextStyleTableRecord
  2
LiberationSerif-Bold
 70
0
 40
0.0
 41
1.0
 50
0.0
 71
0
 42
2.5
  3
LiberationSerif-Bold.ttf
  4

  0
STYLE
  5
54
330
5
100
AcDbSymbolTableRecord
100
AcDbTextStyleTableRecord
  2
LiberationSerif-BoldItalic
 70
0
 40
0.0
 41
1.0
 50
0.0
 71
0
 42
2.5
  3
LiberationSerif-BoldItalic.ttf
  4

  0
STYLE
  5
55
330
5
100
AcDbSymbolTableRecord
100
AcDbTextStyleTableRecord
  2
LiberationSerif-Italic
 70
0
 40
0.0
 41
1.0
 50
0.0
 71
0
 42
2.5
  3
LiberationSerif-Italic.ttf
  4

  0
STYLE
  5
56
330
5
100
AcDbSymbolTableRecord
100
AcDbTextStyleTableRecord
  2
LiberationMono
 70
0
 40
0.0
 41
1.0
 50
0.0
 71
0
 42
2.5
  3
LiberationMono-Regular.ttf
  4

  0
STYLE
  5
57
330
5
100
AcDbSymbolTableRecord
100
AcDbTextStyleTableRecord
  2
LiberationMono-Bold
 70
0
 40
0.0
 41
1.0
 50
0.0
 71
0
 42
2.5
  3
LiberationMono-Bold.ttf
  4

  0
STYLE
  5
58
330
5
100
AcDbSymbolTableRecord
100
AcDbTextStyleTableRecord
  2
LiberationMono-BoldItalic
 70
0
 40
0.0
 41
1.0
 50
0.0
 71
0
 42
2.5
  3
LiberationMono-BoldItalic.ttf
  4

  0
STYLE
  5
59
330
5
100
AcDbSymbolTableRecord
100
AcDbTextStyleTableRecord
  2
LiberationMono-Italic
 70
0
 40
0.0
 41
1.0
 50
0.0
 71
0
 42
2.5
  3
LiberationMono-Italic.ttf
  4

  0
ENDTAB
  0
TABLE
  2
VIEW
  5
7
330
0
100
AcDbSymbolTable
 70
0
  0
ENDTAB
  0
TABLE
  2
UCS
  5
6
330
0
100
AcDbSymbolTable
 70
0
  0
ENDTAB
  0
TABLE
  2
APPID
  5
3
330
0
100
AcDbSymbolTable
 70
3
  0
APPID
  5
2A
330
3
100
AcDbSymbolTableRecord
100
AcDbRegAppTableRecord
  2
ACAD
 70
0
  0
APPID
  5
A4
330
3
100
AcDbSymbolTableRecord
100
AcDbRegAppTableRecord
  2
HATCHBACKGROUNDCOLOR
 70
0
  0
APPID
  5
A5
330
3
100
AcDbSymbolTableRecord
100
AcDbRegAppTableRecord
  2
EZDXF
 70
0
  0
ENDTAB
  0
TABLE
  2
DIMSTYLE
  5
4
330
0
100
AcDbSymbolTable
 70
12
100
AcDbDimStyleTable
  0
DIMSTYLE
105
2B
330
4
100
AcDbSymbolTableRecord
100
AcDbDimStyleTableRecord
  2
Standard
 70
0
 40
1.0
 41
2.5
 42
0.625
 43
3.75
 44
1.25
 45
0.0
 46
0.0
 47
0.0
 48
0.0
 49
2.5
140
2.5
141
2.5
142
0.0
143
0.03937007874
144
1.0
145
0.0
146
1.0
147
0.625
148
0.0
 69
0
 70
0
 71
0
 72
0
 73
0
 74
0
 75
0
 76
0
 77
1
 78
8
 79
3
170
0
171
3
172
1
173
0
174
0
175
0
176
0
177
0
178
0
179
2
271
2
272
2
273
2
274
3
275
0
276
0
277
2
278
44
279
0
280
0
281
0
282
0
283
0
284
8
285
0
286
0
288
0
289
3
290
0
371
-2
372
-2
  0
DIMSTYLE
105
73
330
4
100
AcDbSymbolTableRecord
100
AcDbDimStyleTableRecord
  2
EZDXF
 70
0
 40
1.0
 41
0.175
 42
0.125
 43
3.75
 44
0.375
 45
0.0
 46
0.0
 47
0.0
 48
0.0
 49
2.5
140
0.25
141
2.5
142
0.0
143
0.03937007874
144
100.0
145
0.0
146
0.5
147
0.1
148
0.0
 69
0
 70
0
 71
0
 72
0
 73
0
 74
0
 75
0
 76
0
 77
1
 78
12
 79
3
170
0
171
3
172
1
173
0
174
0
175
0
176
0
177
0
178
0
179
2
271
2
272
2
273
2
274
3
275
0
276
0
277
2
278
46
279
2
280
0
281
0
282
0
283
0
284
8
285
0
286
0
288
1
289
3
290
0
340
4C
342
74
371
-2
372
-2
  0
DIMSTYLE
105
7C
330
4
100
AcDbSymbolTableRecord
100
AcDbDimStyleTableRecord
  2
EZ_M_100_H25_CM
 70
0
 40
1.0
 41
0.25
 42
0.125
 43
3.75
 44
0.375
 45
0.0
 46
0.0
 47
0.0
 48
0.0
 49
2.5
140
0.25
141
2.5
142
0.125
143
0.03937007874
144
100.0
145
0.0
146
0.5
147
0.1
148
0.0
 69
0
 70
0
 71
0
 72
0
 73
0
 74
0
 75
0
 76
0
 77
1
 78
12
 79
3
170
0
171
3
172
1
173
0
174
0
175
0
176
0
177
0
178
0
179
2
271
2
272
2
273
2
274
3
275
0
276
0
277
2
278
46
279
2
280
0
281
0
282
0
283
0
284
8
285
0
286
0
288
1
289
3
290
0
340
4C
371
-2
372
-2
  0
DIMSTYLE
105
7D
330
4
100
AcDbSymbolTableRecord
100
AcDbDimStyleTableRecord
  2
EZ_M_50_H25_CM
 70
0
 40
1.0
 41
0.125
 42
0.0625
 43
3.75
 44
0.1875
 45
0.0
 46
0.0
 47
0.0
 48
0.0
 49
2.5
140
0.125
141
2.5
142
0.0625
143
0.03937007874
144
100.0
145
0.0
146
0.5
147
0.05
148
0.0
 69
0
 70
0
 71
0
 72
0
 73
0
 74
0
 75
0
 76
0
 77
1
 78
12
 79
3
170
0
171
3
172
1
173
0
174
0
175
0
176
0
177
0
178
0
179
2
271
2
272
2
273
2
274
3
275
0
276
0
277
2
278
46
279
2
280
0
281
0
282
0
283
0
284
8
285
0
286
0
288
1
289
3
290
0
340
4C
371
-2
372
-2
  0
DIMSTYLE
105
7E
330
4
100
AcDbSymbolTableRecord
100
AcDbDimStyleTableRecord
  2
EZ_M_25_H25_CM
 70
0
 40
1.0
 41
0.0625
 42
0.03125
 43
3.75
 44
0.09375
 45
0.0
 46
0.0
 47
0.0
 48
0.0
 49
2.5
140
0.0625
141
2.5
142
0.03125
143
0.03937007874
144
100.0
145
0.0
146
0.5
147
0.025
148
0.0
 69
0
 70
0
 71
0
 72
0
 73
0
 74
0
 75
0
 76
0
 77
1
 78
12
 79
3
170
0
171
3
172
1
173
0
174
0
175
0
176
0
177
0
178
0
179
2
271
2
272
2
273
2
274
3
275
0
276
0
277
2
278
46
279
2
280
0
281
0
282
0
283
0
284
8
285
0
286
0
288
1
289
3
290
0
340
4C
371
-2
372
-2
  0
DIMSTYLE
105
7F
330
4
100
AcDbSymbolTableRecord
100
AcDbDimStyleTableRecord
  2
EZ_M_20_H25_CM
 70
0
 40
1.0
 41
0.05
 42
0.025
 43
3.75
 44
0.07500000000000001
 45
0.0
 46
0.0
 47
0.0
 48
0.0
 49
2.5
140
0.05
141
2.5
142
0.025
143
0.03937007874
144
100.0
145
0.0
146
0.5
147
0.020000000000000004
148
0.0
 69
0
 70
0
 71
0
 72
0
 73
0
 74
0
 75
0
 76
0
 77
1
 78
12
 79
3
170
0
171
3
172
1
173
0
174
0
175
0
176
0
177
0
178
0
179
2
271
2
272
2
273
2
274
3
275
0
276
0
277
2
278
46
279
2
280
0
281
0
282
0
283
0
284
8
285
0
286
0
288
1
289
3
290
0
340
4C
371
-2
372
-2
  0
DIMSTYLE
105
80
330
4
100
AcDbSymbolTableRecord
100
AcDbDimStyleTableRecord
  2
EZ_M_10_H25_CM
 70
0
 40
1.0
 41
0.025
 42
0.0125
 43
3.75
 44
0.037500000000000006
 45
0.0
 46
0.0
 47
0.0
 48
0.0
 49
2.5
140
0.025
141
2.5
142
0.0125
143
0.03937007874
144
100.0
145
0.0
146
0.5
147
0.010000000000000002
148
0.0
 69
0
 70
0
 71
0
 72
0
 73
0
 74
0
 75
0
 76
0
 77
1
 78
12
 79
3
170
0
171
3
172
1
173
0
174
0
175
0
176
0
177
0
178
0
179
2
271
2
272
2
273
2
274
3
275
0
276
0
277
2
278
46
279
2
280
0
281
0
282
0
283
0
284
8
285
0
286
0
288
1
289
3
290
0
340
4C
371
-2
372
-2
  0
DIMSTYLE
105
81
330
4
100
AcDbSymbolTableRecord
100
AcDbDimStyleTableRecord
  2
EZ_M_5_H25_CM
 70
0
 40
1.0
 41
0.0125
 42
0.00625
 43
3.75
 44
0.018750000000000003
 45
0.0
 46
0.0
 47
0.0
 48
0.0
 49
2.5
140
0.0125
141
2.5
142
0.00625
143
0.03937007874
144
100.0
145
0.0
146
0.5
147
0.005000000000000001
148
0.0
 69
0
 70
0
 71
0
 72
0
 73
0
 74
0
 75
0
 76
0
 77
1
 78
12
 79
3
170
0
171
3
172
1
173
0
174
0
175
0
176
0
177
0
178
0
179
2
271
2
272
2
273
2
274
3
275
0
276
0
277
2
278
46
279
2
280
0
281
0
282
0
283
0
284
8
285
0
286
0
288
1
289
3
290
0
340
4C
371
-2
372
-2
  0
DIMSTYLE
105
82
330
4
100
AcDbSymbolTableRecord
100
AcDbDimStyleTableRecord
  2
EZ_M_1_H25_CM
 70
0
 40
1.0
 41
0.0025
 42
0.00125
 43
3.75
 44
0.00375
 45
0.0
 46
0.0
 47
0.0
 48
0.0
 49
2.5
140
0.0025
141
2.5
142
0.00125
143
0.03937007874
144
100.0
145
0.0
146
0.5
147
0.001
148
0.0
 69
0
 70
0
 71
0
 72
0
 73
0
 74
0
 75
0
 76
0
 77
1
 78
12
 79
3
170
0
171
3
172
1
173
0
174
0
175
0
176
0
177
0
178
0
179
2
271
2
272
2
273
2
274
3
275
0
276
0
277
2
278
46
279
2
280
0
281
0
282
0
283
0
284
8
285
0
286
0
288
1
289
3
290
0
340
4C
371
-2
372
-2
  0
DIMSTYLE
105
83
330
4
100
AcDbSymbolTableRecord
100
AcDbDimStyleTableRecord
  2
EZ_RADIUS
 70
0
 40
1.0
 41
0.25
 42
0.125
 43
3.75
 44
0.375
 45
0.0
 46
0.0
 47
0.0
 48
0.0
 49
2.5
140
0.25
141
0.0
142
0.0
143
0.03937007874
144
100.0
145
0.0
146
0.5
147
0.1
148
0.0
 69
0
 70
0
 71
0
 72
0
 73
0
 74
0
 75
0
 76
0
 77
1
 78
12
 79
3
170
0
171
3
172
0
173
0
174
0
175
0
176
0
177
0
178
0
179
2
271
2
272
2
273
2
274
3
275
0
276
0
277
2
278
46
279
1
280
0
281
0
282
0
283
0
284
8
285
0
286
0
288
1
289
3
290
0
340
4C
342
84
371
-2
372
-2
  0
DIMSTYLE
105
88
330
4
100
AcDbSymbolTableRecord
100
AcDbDimStyleTableRecord
  2
EZ_RADIUS_INSIDE
 70
0
 40
1.0
 41
0.25
 42
0.125
 43
3.75
 44
0.375
 45
0.0
 46
0.0
 47
0.0
 48
0.0
 49
2.5
140
0.25
141
0.0
142
0.0
143
0.03937007874
144
100.0
145
0.0
146
0.5
147
0.1
148
0.0
 69
0
 70
0
 71
0
 72
0
 73
0
 74
0
 75
0
 76
0
 77
0
 78
12
 79
3
170
0
171
3
172
0
173
0
174
1
175
0
176
0
177
0
178
0
179
2
271
2
272
2
273
2
274
3
275
0
276
0
277
2
278
46
279
0
280
0
281
0
282
0
283
0
284
8
285
0
286
0
288
1
289
0
290
0
340
4C
342
84
371
-2
372
-2
  0
DIMSTYLE
105
89
330
4
100
AcDbSymbolTableRecord
100
AcDbDimStyleTableRecord
  2
EZ_CURVED
 70
0
 40
1.0
 41
0.25
 42
0.125
 43
3.75
 44
0.375
 45
0.0
 46
0.0
 47
0.0
 48
0.0
 49
2.5
140
0.25
141
2.5
142
0.0
143
0.03937007874
144
100.0
145
0.0
146
0.5
147
0.1
148
0.0
 69
0
 70
0
 71
0
 72
0
 73
0
 74
0
 75
0
 76
0
 77
1
 78
12
 79
2
 90
2
170
0
171
3
172
1
173
0
174
0
175
0
176
0
177
0
178
0
179
2
271
2
272
2
273
2
274
3
275
0
276
0
277
2
278
46
279
2
280
0
281
0
282
0
283
0
284
8
285
0
286
0
288
1
289
3
290
0
340
4C
371
-2
372
-2
  0
ENDTAB
  0
TABLE
  2
BLOCK_RECORD
  5
9
330
0
100
AcDbSymbolTable
 70
5
  0
BLOCK_RECORD
  5
17
330
9
100
AcDbSymbolTableRecord
100
AcDbBlockTableRecord
  2
*Model_Space
340
1A
 70
0
280
1
281
0
  0
BLOCK_RECORD
  5
1B
330
9
100
AcDbSymbolTableRecord
100
AcDbBlockTableRecord
  2
*Paper_Space
340
1E
 70
0
280
1
281
0
  0
BLOCK_RECORD
  5
74
330
9
100
AcDbSymbolTableRecord
100
AcDbBlockTableRecord
  2
_ARCHTICK
340
0
 70
0
280
1
281
0
  0
BLOCK_RECORD
  5
78
330
9
100
AcDbSymbolTableRecord
100
AcDbBlockTableRecord
  2
_CLOSEDFILLED
340
0
 70
0
280
1
281
0
  0
BLOCK_RECORD
  5
84
330
9
100
AcDbSymbolTableRecord
100
AcDbBlockTableRecord
  2
_CLOSEDBLANK
340
0
 70
0
280
1
281
0
  0
ENDTAB
  0
ENDSEC
  0
SECTION
  2
BLOCKS
  0
BLOCK
  5
18
330
17
100
AcDbEntity
  8
0
100
AcDbBlockBegin
  2
*Model_Space
 70
0
 10
0.0
 20
0.0
 30
0.0
  3
*Model_Space
  1

  0
ENDBLK
  5
19
330
17
100
AcDbEntity
  8
0
100
AcDbBlockEnd
  0
BLOCK
  5
1C
330
1B
100
AcDbEntity
  8
0
100
AcDbBlockBegin
  2
*Paper_Space
 70
0
 10
0.0
 20
0.0
 30
0.0
  3
*Paper_Space
  1

  0
ENDBLK
  5
1D
330
1B
100
AcDbEntity
  8
0
100
AcDbBlockEnd
  0
BLOCK
  5
75
330
74
100
AcDbEntity
  8
0
100
AcDbBlockBegin
  2
_ARCHTICK
 70
0
 10
0.0
 20
0.0
 30
0.0
  3
_ARCHTICK
  1

  0
LWPOLYLINE
  5
77
330
74
100
AcDbEntity
  8
0
  6
BYBLOCK
 62
0
100
AcDbPolyline
 90
2
 70
0
 43
0.15
 10
-0.5
 20
-0.5
 10
0.5
 20
0.5
  0
ENDBLK
  5
76
330
74
100
AcDbEntity
  8
0
100
AcDbBlockEnd
  0
BLOCK
  5
79
330
78
100
AcDbEntity
  8
0
100
AcDbBlockBegin
  2
_CLOSEDFILLED
 70
0
 10
0.0
 20
0.0
 30
0.0
  3
_CLOSEDFILLED
  1

  0
SOLID
  5
7B
330
78
100
AcDbEntity
  8
0
  6
BYBLOCK
 62
0
100
AcDbTrace
 10
-1.0
 20
0.16439898372402537
 30
0.0
 11
0.0
 21
0.0
 31
0.0
 12
-1.0
 22
-0.16439898372402537
 32
0.0
 13
-1.0
 23
-0.16439898372402537
 33
0.0
  0
ENDBLK
  5
7A
330
78
100
AcDbEntity
  8
0
100
AcDbBlockEnd
  0
BLOCK
  5
85
330
84
100
AcDbEntity
  8
0
100
AcDbBlockBegin
  2
_CLOSEDBLANK
 70
0
 10
0.0
 20
0.0
 30
0.0
  3
_CLOSEDBLANK
  1

  0
LWPOLYLINE
  5
87
330
84
100
AcDbEntity
  8
0
  6
BYBLOCK
 62
0
100
AcDbPolyline
 90
3
 70
1
 10
-1.0
 20
0.16439898372402537
 10
0.0
 20
0.0
 10
-1.0
 20
-0.16439898372402537
  0
ENDBLK
  5
86
330
84
100
AcDbEntity
  8
0
100
AcDbBlockEnd
  0
ENDSEC
  0
SECTION
  2
ENTITIES
  0
LWPOLYLINE
  5
93
330
17
100
AcDbEntity
  8
ANT_CENTERLINE
100
AcDbPolyline
 90
650
 70
0
 43
0.24
 10
0.0
 20
-12.0
 10
0.0
 20
-9.88
 10
16.964999999999996
 20
-9.88
 10
17.480526218352395
 20
-9.857491639212675
 10
17.99212897089989
 20
-9.79013785906721
 10
18.495914651781405
 20
-9.678451262499838
 10
18.988049147771328
 20
-9.523281851948648
 10
19.464787018196233
 20
-9.325810560321784
 10
19.922499999999996
 20
-9.087540263384955
 10
20.357704621016435
 20
-8.810284341969385
 10
20.767088711295877
 20
-8.496152881048754
 10
21.147536610718426
 20
-8.14753661071843
 10
21.49615288104875
 20
-7.76708871129588
 10
21.810284341969382
 20
-7.357704621016438
 10
22.087540263384952
 20
-6.922499999999999
 10
22.32581056032178
 20
-6.464787018196237
 10
22.523281851948646
 20
-5.9880491477713305
 10
22.678451262499834
 20
-5.495914651781411
 10
22.790137859067208
 20
-4.992128970899893
 10
22.85749163921267
 20
-4.480526218352397
 10
22.88
 20
-3.965
 10
22.88
 20
3.965
 10
22.85749163921267
 20
4.480526218352398
 10
22.790137859067208
 20
4.992128970899893
 10
22.678451262499834
 20
5.49591465178141
 10
22.523281851948646
 20
5.9880491477713305
 10
22.32581056032178
 20
6.464787018196237
 10
22.087540263384952
 20
6.922499999999999
 10
21.810284341969382
 20
7.357704621016437
 10
21.49615288104875
 20
7.76708871129588
 10
21.147536610718426
 20
8.14753661071843
 10
20.767088711295877
 20
8.496152881048754
 10
20.357704621016435
 20
8.810284341969385
 10
19.922499999999996
 20
9.087540263384955
 10
19.464787018196233
 20
9.325810560321784
 10
18.988049147771328
 20
9.523281851948648
 10
18.49591465178141
 20
9.678451262499838
 10
17.99212897089989
 20
9.79013785906721
 10
17.480526218352395
 20
9.857491639212675
 10
16.964999999999996
 20
9.88
 10
-16.964999999999996
 20
9.88
 10
-17.480526218352395
 20
9.857491639212675
 10
-17.992128970899888
 20
9.79013785906721
 10
-18.495914651781405
 20
9.678451262499838
 10
-18.988049147771328
 20
9.52328185194865
 10
-19.464787018196233
 20
9.325810560321784
 10
-19.922499999999996
 20
9.087540263384955
 10
-20.357704621016435
 20
8.810284341969385
 10
-20.767088711295877
 20
8.496152881048754
 10
-21.147536610718426
 20
8.14753661071843
 10
-21.49615288104875
 20
7.767088711295881
 10
-21.810284341969382
 20
7.357704621016439
 10
-22.087540263384952
 20
6.922500000000001
 10
-22.32581056032178
 20
6.464787018196237
 10
-22.523281851948646
 20
5.988049147771331
 10
-22.678451262499834
 20
5.495914651781412
 10
-22.790137859067208
 20
4.992128970899892
 10
-22.85749163921267
 20
4.480526218352398
 10
-22.88
 20
3.965
 10
-22.88
 20
-3.965
 10
-22.85749163921267
 20
-4.480526218352397
 10
-22.790137859067208
 20
-4.992128970899891
 10
-22.678451262499834
 20
-5.49591465178141
 10
-22.523281851948646
 20
-5.98804914777133
 10
-22.32581056032178
 20
-6.464787018196236
 10
-22.087540263384952
 20
-6.922499999999998
 10
-21.810284341969382
 20
-7.357704621016438
 10
-21.49615288104875
 20
-7.76708871129588
 10
-21.147536610718426
 20
-8.14753661071843
 10
-20.767088711295877
 20
-8.496152881048754
 10
-20.357704621016435
 20
-8.810284341969385
 10
-19.9225
 20
-9.087540263384952
 10
-19.464787018196233
 20
-9.325810560321784
 10
-18.988049147771324
 20
-9.52328185194865
 10
-18.495914651781405
 20
-9.678451262499838
 10
-17.992128970899888
 20
-9.79013785906721
 10
-17.480526218352395
 20
-9.857491639212675
 10
-16.964999999999996
 20
-9.88
 10
-0.5655000000000001
 20
-9.88
 10
-0.5502041671477861
 20
-9.879332169515102
 10
-0.5350247448194538
 20
-9.877333760653643
 10
-0.5200772575845077
 20
-9.874019982513733
 10
-0.5054754648463452
 20
-9.869416054947928
 10
-0.4913304950645073
 20
-9.863557016624933
 10
-0.47775000000000006
 20
-9.856487458364171
 10
-0.46483733542039146
 20
-9.848261183772719
 10
-0.4526907745000124
 20
-9.838940799767382
 10
-0.4414027599017609
 20
-9.82859724009824
 10
-0.43105920023261934
 20
-9.817309225499988
 10
-0.42173881622728193
 20
-9.80516266457961
 10
-0.413512541635831
 20
-9.792250000000001
 10
-0.4064429833750679
 20
-9.778669504935493
 10
-0.40058394505207306
 20
-9.764524535153656
 10
-0.3959800174862685
 20
-9.749922742415494
 10
-0.39266623934635747
 20
-9.734975255180547
 10
-0.3906678304848986
 20
-9.719795832852215
 10
-0.39
 20
-9.704500000000001
 10
-0.39
 20
-9.6655
 10
-0.38933216951510136
 20
-9.650204167147786
 10
-0.38733376065364256
 20
-9.635024744819454
 10
-0.3840199825137315
 20
-9.620077257584507
 10
-0.37941605494792696
 20
-9.605475464846345
 10
-0.37355701662493207
 20
-9.591330495064508
 10
-0.366487458364169
 20
-9.57775
 10
-0.35826118377271804
 20
-9.56483733542039
 10
-0.3489407997673806
 20
-9.552690774500013
 10
-0.3385972400982391
 20
-9.54140275990176
 10
-0.32730922549998764
 20
-9.531059200232619
 10
-0.3151626645796086
 20
-9.521738816227282
 10
-0.30225
 20
-9.51351254163583
 10
-0.2886695049354927
 20
-9.506442983375068
 10
-0.2745245351536549
 20
-9.500583945052073
 10
-0.2599227424154924
 20
-9.495980017486268
 10
-0.24497525518054628
 20
-9.492666239346358
 10
-0.22979583285221397
 20
-9.490667830484899
 10
-0.21449999999999997
 20
-9.49
 10
16.964999999999996
 20
-9.49
 10
17.446535478680808
 20
-9.468975706956893
 10
17.924406181609786
 20
-9.40606283539245
 10
18.394975224191423
 20
-9.301740190247102
 10
18.854661291874315
 20
-9.156801729842144
 10
19.29996589611736
 20
-8.972350523377491
 10
19.727499999999996
 20
-8.749790355909024
 10
20.134009810839526
 20
-8.49081504469668
 10
20.51640154351813
 20
-8.197395548232354
 10
20.87176496605567
 20
-7.871764966055675
 10
21.19739554823235
 20
-7.516401543518129
 10
21.490815044696674
 20
-7.13400981083953
 10
21.74979035590902
 20
-6.7275
 10
21.972350523377486
 20
-6.299965896117364
 10
22.15680172984214
 20
-5.85466129187432
 10
22.3017401902471
 20
-5.394975224191428
 10
22.406062835392447
 20
-4.92440618160979
 10
22.46897570695689
 20
-4.4465354786808104
 10
22.49
 20
-3.964999999999999
 10
22.49
 20
3.964999999999999
 10
22.46897570695689
 20
4.4465354786808104
 10
22.406062835392447
 20
4.924406181609789
 10
22.3017401902471
 20
5.394975224191426
 10
22.15680172984214
 20
5.854661291874319
 10
21.97235052337749
 20
6.299965896117364
 10
21.74979035590902
 20
6.727499999999999
 10
21.490815044696678
 20
7.134009810839529
 10
21.19739554823235
 20
7.516401543518129
 10
20.87176496605567
 20
7.871764966055675
 10
20.51640154351813
 20
8.197395548232354
 10
20.134009810839526
 20
8.490815044696678
 10
19.7275
 20
8.749790355909024
 10
19.299965896117364
 20
8.97235052337749
 10
18.85466129187432
 20
9.156801729842144
 10
18.394975224191427
 20
9.301740190247102
 10
17.92440618160979
 20
9.40606283539245
 10
17.446535478680808
 20
9.468975706956893
 10
16.964999999999996
 20
9.49
 10
-16.964999999999996
 20
9.49
 10
-17.446535478680808
 20
9.468975706956893
 10
-17.924406181609786
 20
9.40606283539245
 10
-18.394975224191423
 20
9.301740190247102
 10
-18.854661291874315
 20
9.156801729842144
 10
-19.29996589611736
 20
8.972350523377493
 10
-19.727499999999996
 20
8.749790355909024
 10
-20.134009810839526
 20
8.490815044696678
 10
-20.51640154351813
 20
8.197395548232354
 10
-20.87176496605567
 20
7.871764966055675
 10
-21.19739554823235
 20
7.51640154351813
 10
-21.490815044696674
 20
7.134009810839531
 10
-21.74979035590902
 20
6.727500000000002
 10
-21.972350523377486
 20
6.299965896117365
 10
-22.15680172984214
 20
5.85466129187432
 10
-22.3017401902471
 20
5.394975224191429
 10
-22.406062835392447
 20
4.92440618160979
 10
-22.46897570695689
 20
4.446535478680811
 10
-22.49
 20
3.964999999999999
 10
-22.49
 20
-3.964999999999999
 10
-22.46897570695689
 20
-4.44653547868081
 10
-22.406062835392447
 20
-4.924406181609788
 10
-22.3017401902471
 20
-5.394975224191427
 10
-22.15680172984214
 20
-5.8546612918743195
 10
-21.97235052337749
 20
-6.299965896117364
 10
-21.74979035590902
 20
-6.727499999999999
 10
-21.490815044696674
 20
-7.13400981083953
 10
-21.19739554823235
 20
-7.516401543518129
 10
-20.87176496605567
 20
-7.871764966055675
 10
-20.51640154351813
 20
-8.197395548232354
 10
-20.13400981083953
 20
-8.490815044696678
 10
-19.7275
 20
-8.749790355909022
 10
-19.29996589611736
 20
-8.972350523377493
 10
-18.854661291874315
 20
-9.156801729842144
 10
-18.394975224191423
 20
-9.301740190247102
 10
-17.924406181609786
 20
-9.40606283539245
 10
-17.446535478680808
 20
-9.468975706956893
 10
-16.964999999999996
 20
-9.49
 10
-0.9555
 20
-9.49
 10
-0.940204167147786
 20
-9.489332169515102
 10
-0.9250247448194537
 20
-9.487333760653643
 10
-0.9100772575845076
 20
-9.484019982513733
 10
-0.8954754648463451
 20
-9.479416054947928
 10
-0.8813304950645072
 20
-9.473557016624932
 10
-0.86775
 20
-9.46648745836417
 10
-0.8548373354203914
 20
-9.458261183772718
 10
-0.8426907745000123
 20
-9.448940799767382
 10
-0.8314027599017609
 20
-9.43859724009824
 10
-0.8210592002326194
 20
-9.427309225499988
 10
-0.811738816227282
 20
-9.41516266457961
 10
-0.8035125416358311
 20
-9.40225
 10
-0.7964429833750679
 20
-9.388669504935493
 10
-0.7905839450520731
 20
-9.374524535153656
 10
-0.7859800174862686
 20
-9.359922742415494
 10
-0.7826662393463575
 20
-9.344975255180547
 10
-0.7806678304848986
 20
-9.329795832852215
 10
-0.78
 20
-9.3145
 10
-0.78
 20
-9.2755
 10
-0.7793321695151014
 20
-9.260204167147785
 10
-0.7773337606536426
 20
-9.245024744819453
 10
-0.7740199825137315
 20
-9.230077257584506
 10
-0.769416054947927
 20
-9.215475464846344
 10
-0.7635570166249321
 20
-9.201330495064507
 10
-0.7564874583641691
 20
-9.18775
 10
-0.7482611837727181
 20
-9.17483733542039
 10
-0.7389407997673807
 20
-9.162690774500012
 10
-0.7285972400982391
 20
-9.15140275990176
 10
-0.7173092254999878
 20
-9.141059200232618
 10
-0.7051626645796086
 20
-9.131738816227282
 10
-0.69225
 20
-9.12351254163583
 10
-0.6786695049354927
 20
-9.116442983375068
 10
-0.664524535153655
 20
-9.110583945052072
 10
-0.6499227424154924
 20
-9.105980017486267
 10
-0.6349752551805463
 20
-9.102666239346357
 10
-0.6197958328522141
 20
-9.100667830484898
 10
-0.6045
 20
-9.1
 10
16.965
 20
-9.1
 10
17.412544739009224
 20
-9.080459774701113
 10
17.856683392319688
 20
-9.02198781171769
 10
18.294035796601445
 20
-8.925029117994367
 10
18.72127343597731
 20
-8.79032160773564
 10
19.135144774038494
 20
-8.618890486433198
 10
19.532500000000002
 20
-8.412040448433093
 10
19.910315000662624
 20
-8.171345747423974
 10
20.26571437574038
 20
-7.898638215415952
 10
20.595993321392925
 20
-7.595993321392922
 10
20.898638215415954
 20
-7.26571437574038
 10
21.171345747423977
 20
-6.910315000662623
 10
21.412040448433096
 20
-6.5325
 10
21.6188904864332
 20
-6.135144774038491
 10
21.790321607735642
 20
-5.721273435977309
 10
21.92502911799437
 20
-5.2940357966014435
 10
22.021987811717693
 20
-4.856683392319686
 10
22.08045977470112
 20
-4.412544739009223
 10
22.1
 20
-3.964999999999999
 10
22.1
 20
3.964999999999999
 10
22.08045977470112
 20
4.412544739009224
 10
22.021987811717693
 20
4.856683392319686
 10
21.92502911799437
 20
5.2940357966014435
 10
21.790321607735642
 20
5.721273435977309
 10
21.6188904864332
 20
6.135144774038492
 10
21.412040448433096
 20
6.5325
 10
21.171345747423977
 20
6.910315000662622
 10
20.898638215415954
 20
7.26571437574038
 10
20.595993321392925
 20
7.595993321392922
 10
20.26571437574038
 20
7.898638215415952
 10
19.910315000662624
 20
8.171345747423974
 10
19.532500000000002
 20
8.412040448433093
 10
19.135144774038494
 20
8.618890486433198
 10
18.72127343597731
 20
8.79032160773564
 10
18.294035796601445
 20
8.925029117994367
 10
17.856683392319688
 20
9.02198781171769
 10
17.412544739009224
 20
9.080459774701113
 10
16.965
 20
9.1
 10
-16.965
 20
9.1
 10
-17.412544739009224
 20
9.080459774701113
 10
-17.856683392319688
 20
9.02198781171769
 10
-18.294035796601445
 20
8.925029117994367
 10
-18.72127343597731
 20
8.79032160773564
 10
-19.135144774038494
 20
8.618890486433198
 10
-19.5325
 20
8.412040448433093
 10
-19.910315000662624
 20
8.171345747423974
 10
-20.26571437574038
 20
7.898638215415954
 10
-20.595993321392925
 20
7.595993321392921
 10
-20.898638215415954
 20
7.26571437574038
 10
-21.171345747423974
 20
6.910315000662623
 10
-21.412040448433096
 20
6.5325000000000015
 10
-21.6188904864332
 20
6.135144774038492
 10
-21.790321607735642
 20
5.721273435977309
 10
-21.92502911799437
 20
5.294035796601443
 10
-22.021987811717693
 20
4.856683392319686
 10
-22.08045977470112
 20
4.412544739009225
 10
-22.1
 20
3.964999999999999
 10
-22.1
 20
-3.964999999999999
 10
-22.08045977470112
 20
-4.412544739009223
 10
-22.021987811717693
 20
-4.856683392319688
 10
-21.92502911799437
 20
-5.294035796601444
 10
-21.790321607735642
 20
-5.7212734359773085
 10
-21.6188904864332
 20
-6.135144774038492
 10
-21.412040448433096
 20
-6.532500000000001
 10
-21.171345747423977
 20
-6.910315000662622
 10
-20.898638215415954
 20
-7.26571437574038
 10
-20.595993321392925
 20
-7.595993321392922
 10
-20.26571437574038
 20
-7.898638215415954
 10
-19.910315000662624
 20
-8.171345747423974
 10
-19.532500000000002
 20
-8.412040448433093
 10
-19.135144774038494
 20
-8.618890486433198
 10
-18.721273435977313
 20
-8.790321607735638
 10
-18.294035796601445
 20
-8.925029117994367
 10
-17.856683392319685
 20
-9.02198781171769
 10
-17.412544739009224
 20
-9.080459774701113
 10
-16.965
 20
-9.1
 10
-1.3455
 20
-9.1
 10
-1.330204167147786
 20
-9.099332169515101
 10
-1.3150247448194536
 20
-9.097333760653642
 10
-1.3000772575845074
 20
-9.094019982513732
 10
-1.2854754648463451
 20
-9.089416054947927
 10
-1.2713304950645072
 20
-9.083557016624932
 10
-1.25775
 20
-9.07648745836417
 10
-1.2448373354203912
 20
-9.068261183772718
 10
-1.2326907745000122
 20
-9.058940799767381
 10
-1.2214027599017607
 20
-9.048597240098239
 10
-1.2110592002326193
 20
-9.037309225499987
 10
-1.201738816227282
 20
-9.025162664579609
 10
-1.193512541635831
 20
-9.01225
 10
-1.1864429833750678
 20
-8.998669504935492
 10
-1.180583945052073
 20
-8.984524535153655
 10
-1.1759800174862685
 20
-8.969922742415493
 10
-1.1726662393463574
 20
-8.954975255180546
 10
-1.1706678304848985
 20
-8.939795832852214
 10
-1.17
 20
-8.9245
 10
-1.17
 20
-8.8855
 10
-1.1693321695151013
 20
-8.870204167147786
 10
-1.1673337606536425
 20
-8.855024744819454
 10
-1.1640199825137314
 20
-8.840077257584507
 10
-1.1594160549479269
 20
-8.825475464846345
 10
-1.153557016624932
 20
-8.811330495064508
 10
-1.1464874583641689
 20
-8.79775
 10
-1.138261183772718
 20
-8.784837335420391
 10
-1.1289407997673806
 20
-8.772690774500013
 10
-1.1185972400982391
 20
-8.761402759901761
 10
-1.1073092254999877
 20
-8.75105920023262
 10
-1.0951626645796086
 20
-8.741738816227283
 10
-1.08225
 20
-8.73351254163583
 10
-1.0686695049354926
 20
-8.726442983375069
 10
-1.0545245351536547
 20
-8.720583945052073
 10
-1.0399227424154924
 20
-8.715980017486268
 10
-1.0249752551805462
 20
-8.712666239346358
 10
-1.0097958328522139
 20
-8.7106678304849
 10
-0.9944999999999999
 20
-8.71
 10
16.965
 20
-8.71
 10
17.378553999337637
 20
-8.691943842445333
 10
17.788960603029583
 20
-8.637912788042929
 10
18.19309636901146
 20
-8.548318045741631
 10
18.587885580080297
 20
-8.423841485629136
 10
18.970323651959617
 20
-8.265430449488905
 10
19.3375
 20
-8.074290540957161
 10
19.686620190485712
 20
-7.851876450151266
 10
20.01502720796263
 20
-7.599880882599551
 10
20.320221676730167
 20
-7.320221676730169
 10
20.59988088259955
 20
-7.01502720796263
 10
20.851876450151266
 20
-6.686620190485715
 10
21.07429054095716
 20
-6.3375
 10
21.265430449488903
 20
-5.970323651959619
 10
21.423841485629133
 20
-5.587885580080299
 10
21.548318045741627
 20
-5.193096369011462
 10
21.637912788042925
 20
-4.788960603029586
 10
21.691943842445333
 20
-4.378553999337639
 10
21.71
 20
-3.965
 10
21.71
 20
3.965
 10
21.691943842445333
 20
4.378553999337638
 10
21.63791278804293
 20
4.788960603029584
 10
21.54831804574163
 20
5.193096369011461
 10
21.423841485629136
 20
5.5878855800802985
 10
21.265430449488903
 20
5.970323651959619
 10
21.07429054095716
 20
6.3375
 10
20.851876450151266
 20
6.686620190485714
 10
20.599880882599553
 20
7.015027207962629
 10
20.32022167673017
 20
7.320221676730168
 10
20.01502720796263
 20
7.599880882599551
 10
19.686620190485716
 20
7.851876450151266
 10
19.337500000000002
 20
8.074290540957161
 10
18.97032365195962
 20
8.265430449488903
 10
18.5878855800803
 20
8.423841485629136
 10
18.193096369011464
 20
8.54831804574163
 10
17.788960603029587
 20
8.637912788042929
 10
17.37855399933764
 20
8.691943842445333
 10
16.965
 20
8.71
 10
-16.965
 20
8.71
 10
-17.378553999337637
 20
8.691943842445333
 10
-17.788960603029583
 20
8.637912788042929
 10
-18.19309636901146
 20
8.548318045741631
 10
-18.587885580080297
 20
8.423841485629136
 10
-18.970323651959617
 20
8.265430449488905
 10
-19.3375
 20
8.074290540957161
 10
-19.686620190485712
 20
7.851876450151266
 10
-20.01502720796263
 20
7.599880882599551
 10
-20.320221676730167
 20
7.320221676730169
 10
-20.59988088259955
 20
7.01502720796263
 10
-20.851876450151266
 20
6.686620190485716
 10
-21.07429054095716
 20
6.337500000000002
 10
-21.265430449488903
 20
5.97032365195962
 10
-21.423841485629133
 20
5.587885580080299
 10
-21.548318045741627
 20
5.193096369011463
 10
-21.637912788042925
 20
4.788960603029585
 10
-21.691943842445333
 20
4.378553999337639
 10
-21.71
 20
3.965
 10
-21.71
 20
-3.965
 10
-21.691943842445333
 20
-4.378553999337638
 10
-21.63791278804293
 20
-4.788960603029584
 10
-21.54831804574163
 20
-5.193096369011462
 10
-21.423841485629136
 20
-5.5878855800802985
 10
-21.265430449488903
 20
-5.970323651959619
 10
-21.07429054095716
 20
-6.3374999999999995
 10
-20.851876450151266
 20
-6.686620190485715
 10
-20.59988088259955
 20
-7.01502720796263
 10
-20.32022167673017
 20
-7.320221676730169
 10
-20.01502720796263
 20
-7.599880882599551
 10
-19.686620190485716
 20
-7.851876450151266
 10
-19.337500000000002
 20
-8.074290540957161
 10
-18.970323651959617
 20
-8.265430449488905
 10
-18.587885580080297
 20
-8.423841485629136
 10
-18.19309636901146
 20
-8.548318045741631
 10
-17.788960603029583
 20
-8.637912788042929
 10
-17.378553999337637
 20
-8.691943842445333
 10
-16.965
 20
-8.71
 10
-1.7355
 20
-8.71
 10
-1.7202041671477861
 20
-8.709332169515102
 10
-1.7050247448194538
 20
-8.707333760653643
 10
-1.6900772575845076
 20
-8.704019982513733
 10
-1.6754754648463452
 20
-8.699416054947928
 10
-1.6613304950645074
 20
-8.693557016624933
 10
-1.64775
 20
-8.686487458364171
 10
-1.6348373354203913
 20
-8.678261183772719
 10
-1.6226907745000123
 20
-8.668940799767382
 10
-1.6114027599017609
 20
-8.65859724009824
 10
-1.6010592002326194
 20
-8.647309225499988
 10
-1.591738816227282
 20
-8.63516266457961
 10
-1.583512541635831
 20
-8.622250000000001
 10
-1.576442983375068
 20
-8.608669504935493
 10
-1.570583945052073
 20
-8.594524535153656
 10
-1.5659800174862686
 20
-8.579922742415494
 10
-1.5626662393463575
 20
-8.564975255180547
 10
-1.5606678304848987
 20
-8.549795832852215
 10
-1.56
 20
-8.534500000000001
 10
-1.56
 20
-8.4955
 10
-1.5593321695151015
 20
-8.480204167147786
 10
-1.5573337606536426
 20
-8.465024744819454
 10
-1.5540199825137315
 20
-8.450077257584507
 10
-1.549416054947927
 20
-8.435475464846345
 10
-1.5435570166249322
 20
-8.421330495064508
 10
-1.536487458364169
 20
-8.40775
 10
-1.528261183772718
 20
-8.394837335420391
 10
-1.5189407997673807
 20
-8.382690774500013
 10
-1.5085972400982393
 20
-8.37140275990176
 10
-1.4973092254999878
 20
-8.361059200232619
 10
-1.4851626645796088
 20
-8.351738816227282
 10
-1.47225
 20
-8.34351254163583
 10
-1.4586695049354927
 20
-8.336442983375068
 10
-1.4445245351536549
 20
-8.330583945052073
 10
-1.4299227424154926
 20
-8.325980017486268
 10
-1.4149752551805463
 20
-8.322666239346358
 10
-1.399795832852214
 20
-8.320667830484899
 10
-1.3845
 20
-8.32
 10
16.965
 20
-8.32
 10
17.34456325966605
 20
-8.303427910189551
 10
17.72123781373948
 20
-8.253837764368166
 10
18.09215694142148
 20
-8.171606973488892
 10
18.454497724183287
 20
-8.05736136352263
 10
18.805502529880748
 20
-7.91197041254461
 10
19.1425
 20
-7.736540633481231
 10
19.462925380308807
 20
-7.53240715287856
 10
19.76434004018488
 20
-7.301123549783149
 10
20.044450032067417
 20
-7.044450032067415
 10
20.30112354978315
 20
-6.764340040184878
 10
20.53240715287856
 20
-6.462925380308806
 10
20.73654063348123
 20
-6.1425
 10
20.911970412544612
 20
-5.805502529880746
 10
21.05736136352263
 20
-5.4544977241832875
 10
21.171606973488892
 20
-5.092156941421479
 10
21.253837764368164
 20
-4.7212378137394815
 10
21.30342791018955
 20
-4.34456325966605
 10
21.32
 20
-3.964999999999999
 10
21.32
 20
3.964999999999999
 10
21.30342791018955
 20
4.34456325966605
 10
21.253837764368168
 20
4.721237813739481
 10
21.171606973488892
 20
5.092156941421477
 10
21.05736136352263
 20
5.454497724183287
 10
20.911970412544612
 20
5.805502529880745
 10
20.73654063348123
 20
6.142499999999999
 10
20.53240715287856
 20
6.462925380308805
 10
20.30112354978315
 20
6.764340040184878
 10
20.044450032067417
 20
7.044450032067414
 10
19.76434004018488
 20
7.301123549783149
 10
19.462925380308807
 20
7.532407152878559
 10
19.142500000000002
 20
7.73654063348123
 10
18.805502529880748
 20
7.91197041254461
 10
18.454497724183287
 20
8.05736136352263
 10
18.09215694142148
 20
8.171606973488892
 10
17.72123781373948
 20
8.253837764368166
 10
17.344563259666053
 20
8.303427910189551
 10
16.965
 20
8.32
 10
-16.965
 20
8.32
 10
-17.34456325966605
 20
8.303427910189551
 10
-17.72123781373948
 20
8.253837764368166
 10
-18.09215694142148
 20
8.171606973488892
 10
-18.454497724183287
 20
8.05736136352263
 10
-18.805502529880744
 20
7.911970412544611
 10
-19.1425
 20
7.736540633481231
 10
-19.462925380308807
 20
7.532407152878559
 10
-19.76434004018488
 20
7.301123549783149
 10
-20.044450032067413
 20
7.044450032067415
 10
-20.30112354978315
 20
6.76434004018488
 10
-20.53240715287856
 20
6.462925380308807
 10
-20.73654063348123
 20
6.142500000000002
 10
-20.911970412544612
 20
5.805502529880746
 10
-21.05736136352263
 20
5.4544977241832875
 10
-21.171606973488892
 20
5.092156941421479
 10
-21.253837764368164
 20
4.7212378137394815
 10
-21.30342791018955
 20
4.344563259666051
 10
-21.32
 20
3.964999999999999
 10
-21.32
 20
-3.964999999999999
 10
-21.30342791018955
 20
-4.34456325966605
 10
-21.253837764368168
 20
-4.72123781373948
 10
-21.171606973488892
 20
-5.092156941421478
 10
-21.05736136352263
 20
-5.4544977241832875
 10
-20.911970412544612
 20
-5.805502529880745
 10
-20.73654063348123
 20
-6.142499999999998
 10
-20.53240715287856
 20
-6.462925380308806
 10
-20.30112354978315
 20
-6.764340040184878
 10
-20.044450032067417
 20
-7.044450032067415
 10
-19.76434004018488
 20
-7.301123549783149
 10
-19.462925380308807
 20
-7.532407152878559
 10
-19.142500000000002
 20
-7.73654063348123
 10
-18.805502529880744
 20
-7.911970412544611
 10
-18.454497724183287
 20
-8.05736136352263
 10
-18.09215694142148
 20
-8.171606973488892
 10
-17.72123781373948
 20
-8.253837764368166
 10
-17.344563259666053
 20
-8.303427910189551
 10
-16.965
 20
-8.32
 10
-2.1255
 20
-8.32
 10
-2.1102041671477862
 20
-8.319332169515102
 10
-2.0950247448194537
 20
-8.317333760653643
 10
-2.0800772575845077
 20
-8.314019982513733
 10
-2.065475464846345
 20
-8.309416054947928
 10
-2.0513304950645073
 20
-8.303557016624932
 10
-2.03775
 20
-8.29648745836417
 10
-2.0248373354203917
 20
-8.288261183772718
 10
-2.0126907745000127
 20
-8.278940799767382
 10
-2.001402759901761
 20
-8.26859724009824
 10
-1.9910592002326195
 20
-8.257309225499988
 10
-1.9817388162272822
 20
-8.24516266457961
 10
-1.9735125416358312
 20
-8.23225
 10
-1.966442983375068
 20
-8.218669504935493
 10
-1.9605839450520732
 20
-8.204524535153656
 10
-1.9559800174862687
 20
-8.189922742415494
 10
-1.9526662393463576
 20
-8.174975255180547
 10
-1.9506678304848988
 20
-8.159795832852215
 10
-1.9500000000000002
 20
-8.1445
 10
-1.9500000000000002
 20
-8.1055
 10
-1.9493321695151016
 20
-8.090204167147785
 10
-1.9473337606536427
 20
-8.075024744819453
 10
-1.9440199825137316
 20
-8.060077257584506
 10
-1.9394160549479271
 20
-8.045475464846344
 10
-1.9335570166249323
 20
-8.031330495064507
 10
-1.9264874583641691
 20
-8.01775
 10
-1.9182611837727181
 20
-8.00483733542039
 10
-1.9089407997673808
 20
-7.992690774500011
 10
-1.8985972400982394
 20
-7.98140275990176
 10
-1.887309225499988
 20
-7.971059200232618
 10
-1.875162664579609
 20
-7.961738816227281
 10
-1.8622500000000002
 20
-7.95351254163583
 10
-1.8486695049354929
 20
-7.946442983375067
 10
-1.834524535153655
 20
-7.940583945052072
 10
-1.8199227424154927
 20
-7.935980017486267
 10
-1.8049752551805465
 20
-7.932666239346357
 10
-1.789795832852214
 20
-7.930667830484898
 10
-1.7745000000000002
 20
-7.93
 10
16.965
 20
-7.93
 10
17.310572519994466
 20
-7.914911977933771
 10
17.65351502444938
 20
-7.869762740693405
 10
17.991217513831494
 20
-7.794895901236156
 10
18.32110986828628
 20
-7.690881241416127
 10
18.64068140780187
 20
-7.558510375600317
 10
18.947499999999998
 20
-7.3987907260053
 10
19.239230570131898
 20
-7.212937855605853
 10
19.51365287240713
 20
-7.002366216966748
 10
19.768678387404663
 20
-6.768678387404661
 10
20.00236621696675
 20
-6.513652872407128
 10
20.21293785560585
 20
-6.239230570131898
 10
20.3987907260053
 20
-5.9475
 10
20.558510375600317
 20
-5.640681407801873
 10
20.690881241416125
 20
-5.3211098682862765
 10
20.794895901236156
 20
-4.991217513831495
 10
20.869762740693403
 20
-4.653515024449379
 10
20.91491197793377
 20
-4.310572519994465
 10
20.93
 20
-3.9649999999999994
 10
20.93
 20
3.9649999999999994
 10
20.91491197793377
 20
4.310572519994464
 10
20.869762740693403
 20
4.653515024449378
 10
20.794895901236156
 20
4.991217513831494
 10
20.690881241416125
 20
5.321109868286276
 10
20.558510375600317
 20
5.640681407801873
 10
20.3987907260053
 20
5.9475
 10
20.21293785560585
 20
6.239230570131896
 10
20.00236621696675
 20
6.513652872407128
 10
19.768678387404663
 20
6.768678387404661
 10
19.51365287240713
 20
7.002366216966747
 10
19.239230570131898
 20
7.212937855605851
 10
18.9475
 20
7.3987907260052985
 10
18.640681407801875
 20
7.558510375600317
 10
18.32110986828628
 20
7.690881241416127
 10
17.991217513831497
 20
7.794895901236155
 10
17.65351502444938
 20
7.869762740693405
 10
17.310572519994466
 20
7.914911977933771
 10
16.965
 20
7.93
 10
-16.965
 20
7.93
 10
-17.310572519994462
 20
7.914911977933771
 10
-17.65351502444938
 20
7.869762740693405
 10
-17.991217513831494
 20
7.794895901236156
 10
-18.321109868286275
 20
7.690881241416127
 10
-18.64068140780187
 20
7.558510375600317
 10
-18.947499999999998
 20
7.3987907260053
 10
-19.239230570131898
 20
7.212937855605852
 10
-19.51365287240713
 20
7.002366216966748
 10
-19.76867838740466
 20
6.768678387404661
 10
-20.00236621696675
 20
6.513652872407129
 10
-20.21293785560585
 20
6.239230570131899
 10
-20.3987907260053
 20
5.947500000000002
 10
-20.558510375600317
 20
5.640681407801874
 10
-20.690881241416125
 20
5.321109868286277
 10
-20.794895901236156
 20
4.991217513831496
 10
-20.869762740693403
 20
4.653515024449379
 10
-20.91491197793377
 20
4.310572519994465
 10
-20.93
 20
3.9649999999999994
 10
-20.93
 20
-3.9649999999999994
 10
-20.91491197793377
 20
-4.310572519994464
 10
-20.869762740693403
 20
-4.653515024449378
 10
-20.794895901236156
 20
-4.991217513831495
 10
-20.690881241416125
 20
-5.3211098682862765
 10
-20.558510375600317
 20
-5.640681407801873
 10
-20.3987907260053
 20
-5.947499999999999
 10
-20.21293785560585
 20
-6.239230570131898
 10
-20.00236621696675
 20
-6.513652872407128
 10
-19.768678387404663
 20
-6.768678387404661
 10
-19.51365287240713
 20
-7.002366216966747
 10
-19.239230570131898
 20
-7.212937855605851
 10
-18.9475
 20
-7.3987907260052985
 10
-18.64068140780187
 20
-7.558510375600317
 10
-18.321109868286275
 20
-7.690881241416127
 10
-17.991217513831494
 20
-7.794895901236156
 10
-17.65351502444938
 20
-7.869762740693405
 10
-17.310572519994466
 20
-7.914911977933771
 10
-16.965
 20
-7.93
 10
-2.34
 20
-7.93
 10
-2.34
 20
-7.33
  0
LWPOLYLINE
  5
94
330
17
100
AcDbEntity
  8
ANT_BOTTOM
100
AcDbPolyline
 90
3
 70
0
 43
0.24
 10
-2.34
 20
-7.33
 10
-2.34
 20
-12.0
 10
-2.0
 20
-12.0
  0
LWPOLYLINE
  5
95
330
17
100
AcDbEntity
  8
ANT_COPPER
100
AcDbPolyline
 90
1301
 70
1
 10
-0.12
 20
-9.760000000000002
 10
16.96238159068533
 20
-9.760000000000002
 10
17.470057565384717
 20
-9.737834388252628
 10
17.971271337734763
 20
-9.671848343297544
 10
18.46482677760139
 20
-9.56242973656072
 10
18.946967630070322
 20
-9.410411309708186
 10
19.414024512129618
 20
-9.216950014759536
 10
19.8624428388902
 20
-8.983518208984432
 10
20.288809876123004
 20
-8.71189244937481
 10
20.689880713227215
 20
-8.404139971973436
 10
21.06260295895932
 20
-8.062602958959324
 10
21.404139971973418
 20
-7.689880713227234
 10
21.711892449374815
 20
-7.288809876122993
 10
21.983518208984428
 20
-6.8624428388902015
 10
22.21695001475953
 20
-6.414024512129624
 10
22.410411309708188
 20
-5.9469676300703185
 10
22.562429736560716
 20
-5.464826777601402
 10
22.671848343297544
 20
-4.971271337734745
 10
22.737834388252626
 20
-4.470057565384719
 10
22.759999999999998
 20
-3.9623815906853705
 10
22.759999999999998
 20
3.9623815906853705
 10
22.737834388252626
 20
4.47005756538472
 10
22.671848343297544
 20
4.971271337734745
 10
22.562429736560716
 20
5.4648267776014015
 10
22.410411309708188
 20
5.9469676300703185
 10
22.21695001475953
 20
6.414024512129624
 10
21.983518208984428
 20
6.8624428388902015
 10
21.711892449374815
 20
7.288809876122993
 10
21.404139971973418
 20
7.689880713227234
 10
21.06260295895932
 20
8.062602958959324
 10
20.689880713227215
 20
8.404139971973436
 10
20.288809876123004
 20
8.71189244937481
 10
19.8624428388902
 20
8.983518208984432
 10
19.414024512129618
 20
9.216950014759536
 10
18.946967630070322
 20
9.410411309708186
 10
18.464826777601395
 20
9.56242973656072
 10
17.97127133773474
 20
9.671848343297546
 10
17.470057565384717
 20
9.737834388252628
 10
16.96238159068533
 20
9.760000000000002
 10
-16.96238159068533
 20
9.760000000000002
 10
-17.470057565384717
 20
9.737834388252628
 10
-17.971271337734738
 20
9.671848343297546
 10
-18.464826777601395
 20
9.56242973656072
 10
-18.946967630070322
 20
9.410411309708188
 10
-19.414024512129618
 20
9.216950014759536
 10
-19.8624428388902
 20
8.983518208984432
 10
-20.288809876123004
 20
8.71189244937481
 10
-20.689880713227215
 20
8.404139971973436
 10
-21.06260295895932
 20
8.062602958959324
 10
-21.404139971973418
 20
7.689880713227235
 10
-21.711892449374815
 20
7.288809876122994
 10
-21.983518208984428
 20
6.862442838890204
 10
-22.21695001475953
 20
6.414024512129624
 10
-22.410411309708188
 20
5.946967630070319
 10
-22.562429736560716
 20
5.464826777601403
 10
-22.671848343297544
 20
4.971271337734744
 10
-22.737834388252626
 20
4.47005756538472
 10
-22.759999999999998
 20
3.9623815906853705
 10
-22.759999999999998
 20
-3.9623815906853705
 10
-22.737834388252626
 20
-4.470057565384719
 10
-22.671848343297544
 20
-4.971271337734743
 10
-22.562429736560716
 20
-5.4648267776014015
 10
-22.410411309708188
 20
-5.946967630070318
 10
-22.21695001475953
 20
-6.4140245121296235
 10
-21.983518208984428
 20
-6.862442838890201
 10
-21.711892449374815
 20
-7.288809876122994
 10
-21.404139971973418
 20
-7.689880713227234
 10
-21.06260295895932
 20
-8.062602958959324
 10
-20.689880713227215
 20
-8.404139971973436
 10
-20.288809876123004
 20
-8.71189244937481
 10
-19.862442838890185
 20
-8.983518208984439
 10
-19.414024512129632
 20
-9.21695001475953
 10
-18.94696763007032
 20
-9.410411309708188
 10
-18.464826777601395
 20
-9.56242973656072
 10
-17.971271337734738
 20
-9.671848343297546
 10
-17.470057565384717
 20
-9.737834388252628
 10
-16.96238159068533
 20
-9.760000000000002
 10
-0.5681184093146683
 20
-9.760000000000002
 10
-0.560672820115465
 20
-9.759674918555055
 10
-0.5558823779845815
 20
-9.759044244883976
 10
-0.5511651317645229
 20
-9.757998456574617
 10
-0.546556982547366
 20
-9.756545512707474
 10
-0.5420930011311086
 20
-9.754696471062678
 10
-0.5378071611098031
 20
-9.752465403963651
 10
-0.5337320803138318
 20
-9.749869291178149
 10
-0.5298987725686634
 20
-9.746927890692053
 10
-0.5263364116608705
 20
-9.74366358833914
 10
-0.5230721093079415
 20
-9.74010122743133
 10
-0.520130708821853
 20
-9.736267919686172
 10
-0.5175345960363519
 20
-9.7321928388902
 10
-0.5153035289373215
 20
-9.727906998868889
 10
-0.5134544872925282
 20
-9.723443017452636
 10
-0.5120015434253861
 20
-9.718834868235483
 10
-0.5109557551160245
 20
-9.714117622015417
 10
-0.5103250814449461
 20
-9.709327179884536
 10
-0.51
 20
-9.701881590685343
 10
-0.51
 20
-9.662881590685341
 10
-0.5089894204751487
 20
-9.639735514180105
 10
-0.5056232764233102
 20
-9.614167111654325
 10
-0.5000415084528483
 20
-9.588989383404494
 10
-0.4922865971883828
 20
-9.564393947145327
 10
-0.48241756218718435
 20
-9.540567988997902
 10
-0.4705095127646919
 20
-9.517692838890202
 10
-0.45665307636728797
 20
-9.495942590526951
 10
-0.4409537088427014
 20
-9.475482776431353
 10
-0.4235308918573502
 20
-9.456469108142663
 10
-0.40451722356863745
 20
-9.43904629115729
 10
-0.3840574094730503
 20
-9.423346923632714
 10
-0.3623071611098041
 20
-9.40949048723531
 10
-0.33943201100209247
 20
-9.397582437812813
 10
-0.315606052854676
 20
-9.387713402811618
 10
-0.2910106165955077
 20
-9.379958491547152
 10
-0.26583288834567387
 20
-9.37437672357669
 10
-0.24026448581989265
 20
-9.371010579524851
 10
-0.21711840931466822
 20
-9.370000000000001
 10
16.962381590685325
 20
-9.370000000000001
 10
17.43606682571313
 20
-9.349318455996846
 10
17.903548548444657
 20
-9.287773319622785
 10
18.363887350011392
 20
-9.18571866430799
 10
18.81357977417331
 20
-9.043931187601682
 10
19.24920339005076
 20
-8.863489977815236
 10
19.66744283889018
 20
-8.645768301508511
 10
20.065115065946095
 20
-8.392423152102104
 10
20.439193545449466
 20
-8.105382639157035
 10
20.786831314296567
 20
-7.786831314296571
 10
21.105382639157018
 20
-7.439193545449483
 10
21.392423152102104
 20
-7.065115065946089
 10
21.6457683015085
 20
-6.667442838890198
 10
21.863489977815235
 20
-6.249203390050751
 10
22.043931187601682
 20
-5.813579774173311
 10
22.18571866430798
 20
-5.363887350011416
 10
22.287773319622783
 20
-4.9035485484446415
 10
22.349318455996844
 20
-4.436066825713133
 10
22.369999999999997
 20
-3.9623815906853697
 10
22.369999999999997
 20
3.9623815906853697
 10
22.349318455996844
 20
4.436066825713133
 10
22.287773319622783
 20
4.903548548444641
 10
22.18571866430798
 20
5.363887350011415
 10
22.04393118760168
 20
5.813579774173314
 10
21.86348997781524
 20
6.249203390050743
 10
21.645768301508493
 20
6.667442838890206
 10
21.39242315210211
 20
7.065115065946085
 10
21.105382639157018
 20
7.439193545449483
 10
20.786831314296567
 20
7.786831314296571
 10
20.439193545449466
 20
8.105382639157035
 10
20.06511506594608
 20
8.392423152102111
 10
19.667442838890217
 20
8.645768301508493
 10
19.24920339005075
 20
8.863489977815242
 10
18.813579774173313
 20
9.043931187601684
 10
18.363887350011396
 20
9.18571866430799
 10
17.90354854844466
 20
9.287773319622785
 10
17.43606682571313
 20
9.349318455996846
 10
16.962381590685325
 20
9.370000000000001
 10
-16.962381590685325
 20
9.370000000000001
 10
-17.43606682571313
 20
9.349318455996846
 10
-17.903548548444657
 20
9.287773319622785
 10
-18.363887350011392
 20
9.18571866430799
 10
-18.81357977417331
 20
9.043931187601682
 10
-19.24920339005076
 20
8.863489977815238
 10
-19.66744283889018
 20
8.645768301508511
 10
-20.065115065946095
 20
8.392423152102102
 10
-20.439193545449466
 20
8.105382639157035
 10
-20.786831314296567
 20
7.786831314296571
 10
-21.105382639157018
 20
7.439193545449484
 10
-21.392423152102104
 20
7.065115065946091
 10
-21.6457683015085
 20
6.667442838890199
 10
-21.863489977815235
 20
6.249203390050752
 10
-22.043931187601682
 20
5.813579774173311
 10
-22.18571866430798
 20
5.363887350011417
 10
-22.287773319622783
 20
4.9035485484446415
 10
-22.349318455996844
 20
4.436066825713134
 10
-22.369999999999997
 20
3.9623815906853697
 10
-22.369999999999997
 20
-3.9623815906853697
 10
-22.349318455996844
 20
-4.436066825713132
 10
-22.287773319622783
 20
-4.90354854844464
 10
-22.18571866430798
 20
-5.3638873500114155
 10
-22.04393118760168
 20
-5.813579774173315
 10
-21.86348997781524
 20
-6.249203390050743
 10
-21.645768301508493
 20
-6.667442838890206
 10
-21.392423152102108
 20
-7.0651150659460855
 10
-21.105382639157018
 20
-7.439193545449483
 10
-20.786831314296567
 20
-7.786831314296571
 10
-20.439193545449466
 20
-8.105382639157035
 10
-20.0651150659461
 20
-8.392423152102102
 10
-19.667442838890185
 20
-8.64576830150851
 10
-19.24920339005076
 20
-8.863489977815238
 10
-18.81357977417331
 20
-9.043931187601682
 10
-18.363887350011392
 20
-9.18571866430799
 10
-17.903548548444657
 20
-9.287773319622785
 10
-17.43606682571313
 20
-9.349318455996846
 10
-16.962381590685325
 20
-9.370000000000001
 10
-0.9581184093146682
 20
-9.370000000000001
 10
-0.950672820115465
 20
-9.369674918555054
 10
-0.9458823779845814
 20
-9.369044244883975
 10
-0.9411651317645228
 20
-9.367998456574616
 10
-0.9365569825473659
 20
-9.366545512707473
 10
-0.9320930011311092
 20
-9.364696471062677
 10
-0.9278071611098028
 20
-9.36246540396365
 10
-0.9237320803138303
 20
-9.359869291178148
 10
-0.9198987725686671
 20
-9.356927890692056
 10
-0.9163364116608684
 20
-9.353663588339138
 10
-0.9130721093079415
 20
-9.35010122743133
 10
-0.9101307088218544
 20
-9.346267919686174
 10
-0.9075345960363498
 20
-9.342192838890195
 10
-0.9053035289373221
 20
-9.33790699886889
 10
-0.9034544872925286
 20
-9.333443017452637
 10
-0.9020015434253854
 20
-9.32883486823548
 10
-0.9009557551160248
 20
-9.324117622015416
 10
-0.9003250814449462
 20
-9.319327179884535
 10
-0.9
 20
-9.311881590685342
 10
-0.9
 20
-9.27288159068534
 10
-0.898989420475149
 20
-9.249735514180106
 10
-0.8956232764233099
 20
-9.224167111654323
 10
-0.8900415084528484
 20
-9.198989383404493
 10
-0.8822865971883825
 20
-9.174393947145326
 10
-0.8724175621871852
 20
-9.150567988997903
 10
-0.8605095127646917
 20
-9.127692838890201
 10
-0.8466530763672878
 20
-9.10594259052695
 10
-0.8309537088427028
 20
-9.085482776431354
 10
-0.8135308918573466
 20
-9.066469108142659
 10
-0.7945172235686426
 20
-9.049046291157293
 10
-0.7740574094730475
 20
-9.033346923632712
 10
-0.7523071611098041
 20
-9.01949048723531
 10
-0.7294320110020915
 20
-9.007582437812813
 10
-0.7056060528546766
 20
-8.997713402811618
 10
-0.6810106165955075
 20
-8.989958491547151
 10
-0.655832888345674
 20
-8.98437672357669
 10
-0.630264485819893
 20
-8.98101057952485
 10
-0.6071184093146682
 20
-8.98
 10
16.962381590685332
 20
-8.98
 10
17.402076086041546
 20
-8.960802523741066
 10
17.835825759154538
 20
-8.903698295948026
 10
18.262947922421432
 20
-8.809007592055249
 10
18.680191918276304
 20
-8.677451065495179
 10
19.084382267971893
 20
-8.510029940870943
 10
19.47244283889019
 20
-8.30801839403258
 10
19.841420255769194
 20
-8.072953854829398
 10
20.188506377671718
 20
-7.806625306340633
 10
20.511059669633827
 20
-7.511059669633813
 10
20.80662530634064
 20
-7.188506377671715
 10
21.072953854829397
 20
-6.8414202557692
 10
21.308018394032572
 20
-6.472442838890203
 10
21.510029940870954
 20
-6.084382267971875
 10
21.67745106549518
 20
-5.680191918276304
 10
21.809007592055252
 20
-5.262947922421432
 10
21.90369829594803
 20
-4.83582575915454
 10
21.960802523741073
 20
-4.402076086041545
 10
21.98
 20
-3.9623815906853723
 10
21.98
 20
3.9623815906853723
 10
21.960802523741073
 20
4.4020760860415455
 10
21.90369829594803
 20
4.835825759154539
 10
21.809007592055252
 20
5.262947922421432
 10
21.67745106549518
 20
5.6801919182763045
 10
21.510029940870954
 20
6.084382267971876
 10
21.308018394032572
 20
6.472442838890203
 10
21.072953854829397
 20
6.841420255769199
 10
20.80662530634064
 20
7.188506377671715
 10
20.511059669633827
 20
7.511059669633813
 10
20.188506377671718
 20
7.806625306340633
 10
19.841420255769194
 20
8.072953854829398
 10
19.47244283889019
 20
8.30801839403258
 10
19.084382267971893
 20
8.510029940870943
 10
18.680191918276304
 20
8.677451065495179
 10
18.262947922421432
 20
8.809007592055249
 10
17.835825759154538
 20
8.903698295948026
 10
17.402076086041546
 20
8.960802523741066
 10
16.962381590685332
 20
8.98
 10
-16.962381590685332
 20
8.98
 10
-17.402076086041546
 20
8.960802523741066
 10
-17.835825759154538
 20
8.903698295948026
 10
-18.262947922421432
 20
8.809007592055249
 10
-18.680191918276304
 20
8.677451065495179
 10
-19.084382267971893
 20
8.510029940870943
 10
-19.472442838890185
 20
8.30801839403258
 10
-19.841420255769194
 20
8.072953854829397
 10
-20.188506377671718
 20
7.806625306340635
 10
-20.511059669633827
 20
7.511059669633812
 10
-20.80662530634062
 20
7.188506377671734
 10
-21.072953854829404
 20
6.841420255769182
 10
-21.308018394032576
 20
6.472442838890199
 10
-21.510029940870954
 20
6.084382267971876
 10
-21.67745106549518
 20
5.6801919182763045
 10
-21.809007592055252
 20
5.262947922421431
 10
-21.90369829594803
 20
4.835825759154539
 10
-21.960802523741073
 20
4.4020760860415455
 10
-21.98
 20
3.9623815906853723
 10
-21.98
 20
-3.9623815906853723
 10
-21.960802523741073
 20
-4.4020760860415455
 10
-21.90369829594803
 20
-4.83582575915454
 10
-21.809007592055252
 20
-5.262947922421433
 10
-21.67745106549518
 20
-5.680191918276304
 10
-21.510029940870954
 20
-6.084382267971876
 10
-21.308018394032572
 20
-6.472442838890203
 10
-21.072953854829397
 20
-6.841420255769199
 10
-20.80662530634064
 20
-7.188506377671715
 10
-20.511059669633827
 20
-7.511059669633813
 10
-20.188506377671718
 20
-7.806625306340635
 10
-19.841420255769194
 20
-8.072953854829398
 10
-19.47244283889019
 20
-8.30801839403258
 10
-19.084382267971893
 20
-8.510029940870943
 10
-18.680191918276307
 20
-8.677451065495179
 10
-18.262947922421432
 20
-8.809007592055249
 10
-17.835825759154535
 20
-8.903698295948026
 10
-17.402076086041546
 20
-8.960802523741066
 10
-16.962381590685332
 20
-8.98
 10
-1.3481184093146683
 20
-8.98
 10
-1.3406728201154645
 20
-8.979674918555054
 10
-1.335882377984581
 20
-8.979044244883974
 10
-1.331165131764525
 20
-8.977998456574616
 10
-1.3265569825473638
 20
-8.976545512707471
 10
-1.3220930011311078
 20
-8.974696471062677
 10
-1.3178071611098015
 20
-8.97246540396365
 10
-1.3137320803138348
 20
-8.969869291178151
 10
-1.3098987725686626
 20
-8.966927890692052
 10
-1.3063364116608618
 20
-8.963663588339132
 10
-1.3030721093079505
 20
-8.96010122743134
 10
-1.3001307088218501
 20
-8.956267919686166
 10
-1.297534596036352
 20
-8.9521928388902
 10
-1.2953035289373223
 20
-8.94790699886889
 10
-1.2934544872925282
 20
-8.943443017452635
 10
-1.2920015434253853
 20
-8.93883486823548
 10
-1.2909557551160247
 20
-8.934117622015416
 10
-1.2903250814449458
 20
-8.929327179884533
 10
-1.2899999999999998
 20
-8.921881590685341
 10
-1.2899999999999998
 20
-8.882881590685342
 10
-1.2889894204751486
 20
-8.859735514180105
 10
-1.2856232764233098
 20
-8.834167111654324
 10
-1.2800415084528483
 20
-8.808989383404494
 10
-1.272286597188382
 20
-8.784393947145325
 10
-1.2624175621871865
 20
-8.760567988997906
 10
-1.25050951276469
 20
-8.7376928388902
 10
-1.236653076367286
 20
-8.715942590526948
 10
-1.2209537088427118
 20
-8.695482776431366
 10
-1.2035308918573402
 20
-8.676469108142655
 10
-1.184517223568638
 20
-8.65904629115729
 10
-1.1640574094730523
 20
-8.643346923632716
 10
-1.1423071611098015
 20
-8.62949048723531
 10
-1.1194320110020932
 20
-8.617582437812814
 10
-1.0956060528546734
 20
-8.607713402811617
 10
-1.07101061659551
 20
-8.599958491547152
 10
-1.0458328883456736
 20
-8.59437672357669
 10
-1.0202644858198924
 20
-8.591010579524852
 10
-0.9971184093146682
 20
-8.590000000000002
 10
16.962381590685332
 20
-8.590000000000002
 10
17.36808534636996
 20
-8.572286591485286
 10
17.768102969864433
 20
-8.519623272273265
 10
18.162008494831447
 20
-8.432296519802513
 10
18.54680406237929
 20
-8.310970943388677
 10
18.919561145893017
 20
-8.15656990392665
 10
19.277442838890202
 20
-7.970268486556638
 10
19.617725445592274
 20
-7.753484557556695
 10
19.937819209893966
 20
-7.507867973524233
 10
20.23528802497107
 20
-7.23528802497106
 10
20.507867973524217
 20
-6.937819209893984
 10
20.7534845575567
 20
-6.617725445592271
 10
20.970268486556638
 20
-6.277442838890203
 10
21.156569903926655
 20
-5.919561145893003
 10
21.31097094338867
 20
-5.5468040623792945
 10
21.43229651980251
 20
-5.162008494831449
 10
21.51962327227326
 20
-4.768102969864441
 10
21.572286591485287
 20
-4.368085346369959
 10
21.59
 20
-3.962381590685372
 10
21.59
 20
3.9623815906853714
 10
21.572286591485287
 20
4.36808534636996
 10
21.519623272273265
 20
4.768102969864438
 10
21.432296519802513
 20
5.162008494831448
 10
21.31097094338868
 20
5.546804062379289
 10
21.156569903926652
 20
5.919561145893007
 10
20.970268486556638
 20
6.277442838890203
 10
20.7534845575567
 20
6.61772544559227
 10
20.50786797352422
 20
6.937819209893983
 10
20.235288024971073
 20
7.235288024971059
 10
19.937819209893966
 20
7.507867973524233
 10
19.617725445592278
 20
7.753484557556695
 10
19.277442838890206
 20
7.970268486556638
 10
18.919561145893006
 20
8.156569903926655
 10
18.546804062379294
 20
8.310970943388677
 10
18.162008494831433
 20
8.432296519802517
 10
17.768102969864458
 20
8.519623272273263
 10
17.368085346369963
 20
8.572286591485286
 10
16.962381590685332
 20
8.590000000000002
 10
-16.962381590685332
 20
8.590000000000002
 10
-17.36808534636996
 20
8.572286591485286
 10
-17.768102969864433
 20
8.519623272273265
 10
-18.162008494831447
 20
8.432296519802513
 10
-18.54680406237929
 20
8.310970943388677
 10
-18.919561145893017
 20
8.15656990392665
 10
-19.277442838890202
 20
7.970268486556638
 10
-19.617725445592274
 20
7.753484557556695
 10
-19.937819209893966
 20
7.507867973524233
 10
-20.23528802497107
 20
7.23528802497106
 10
-20.507867973524213
 20
6.937819209893989
 10
-20.753484557556703
 20
6.617725445592266
 10
-20.970268486556638
 20
6.277442838890205
 10
-21.156569903926655
 20
5.919561145893004
 10
-21.31097094338867
 20
5.5468040623792945
 10
-21.43229651980251
 20
5.16200849483145
 10
-21.51962327227326
 20
4.76810296986444
 10
-21.572286591485287
 20
4.368085346369959
 10
-21.59
 20
3.962381590685372
 10
-21.59
 20
-3.9623815906853714
 10
-21.572286591485287
 20
-4.36808534636996
 10
-21.519623272273265
 20
-4.768102969864438
 10
-21.432296519802513
 20
-5.162008494831449
 10
-21.31097094338868
 20
-5.546804062379289
 10
-21.156569903926652
 20
-5.919561145893007
 10
-20.970268486556638
 20
-6.277442838890202
 10
-20.7534845575567
 20
-6.617725445592271
 10
-20.507867973524217
 20
-6.937819209893984
 10
-20.235288024971073
 20
-7.23528802497106
 10
-19.937819209893966
 20
-7.507867973524233
 10
-19.617725445592278
 20
-7.753484557556695
 10
-19.277442838890206
 20
-7.970268486556638
 10
-18.919561145893002
 20
-8.156569903926657
 10
-18.54680406237929
 20
-8.310970943388677
 10
-18.162008494831447
 20
-8.432296519802513
 10
-17.768102969864433
 20
-8.519623272273265
 10
-17.36808534636996
 20
-8.572286591485286
 10
-16.962381590685332
 20
-8.590000000000002
 10
-1.7381184093146684
 20
-8.590000000000002
 10
-1.7306728201154646
 20
-8.589674918555055
 10
-1.725882377984581
 20
-8.589044244883976
 10
-1.7211651317645251
 20
-8.587998456574617
 10
-1.7165569825473639
 20
-8.586545512707472
 10
-1.712093001131108
 20
-8.584696471062678
 10
-1.7078071611098016
 20
-8.582465403963651
 10
-1.703732080313835
 20
-8.579869291178152
 10
-1.6998987725686627
 20
-8.576927890692053
 10
-1.696336411660862
 20
-8.573663588339134
 10
-1.6930721093079506
 20
-8.57010122743134
 10
-1.6901307088218502
 20
-8.566267919686167
 10
-1.6875345960363521
 20
-8.562192838890201
 10
-1.6853035289373224
 20
-8.55790699886889
 10
-1.6834544872925283
 20
-8.553443017452636
 10
-1.6820015434253854
 20
-8.548834868235481
 10
-1.6809557551160248
 20
-8.544117622015417
 10
-1.680325081444946
 20
-8.539327179884534
 10
-1.6800000000000002
 20
-8.531881590685348
 10
-1.6800000000000002
 20
-8.492881590685347
 10
-1.6789894204751488
 20
-8.469735514180105
 10
-1.6756232764233099
 20
-8.444167111654323
 10
-1.6700415084528484
 20
-8.418989383404494
 10
-1.6622865971883822
 20
-8.394393947145325
 10
-1.6524175621871866
 20
-8.370567988997905
 10
-1.64050951276469
 20
-8.3476928388902
 10
-1.6266530763672862
 20
-8.325942590526948
 10
-1.610953708842712
 20
-8.305482776431365
 10
-1.5935308918573403
 20
-8.286469108142654
 10
-1.5745172235686382
 20
-8.26904629115729
 10
-1.5540574094730524
 20
-8.253346923632716
 10
-1.5323071611098016
 20
-8.23949048723531
 10
-1.5094320110020933
 20
-8.227582437812814
 10
-1.4856060528546735
 20
-8.217713402811617
 10
-1.4610106165955101
 20
-8.209958491547152
 10
-1.4358328883456737
 20
-8.20437672357669
 10
-1.4102644858198925
 20
-8.201010579524851
 10
-1.3871184093146685
 20
-8.200000000000001
 10
16.96238159068533
 20
-8.200000000000001
 10
17.334094606698372
 20
-8.183770659229504
 10
17.70038018057433
 20
-8.135548248598502
 10
18.06106906724147
 20
-8.055585447549774
 10
18.413416206482275
 20
-7.944490821282174
 10
18.75474002381414
 20
-7.803109866982358
 10
19.082442838890195
 20
-7.632518579080712
 10
19.394030635415376
 20
-7.434015260283983
 10
19.687132042116218
 20
-7.209110640707831
 10
19.959516380308315
 20
-6.9595163803083055
 10
20.209110640707816
 20
-6.687132042116232
 10
20.434015260283992
 20
-6.394030635415362
 10
20.632518579080703
 20
-6.0824428388902065
 10
20.803109866982364
 20
-5.754740023814126
 10
20.94449082128217
 20
-5.413416206482283
 10
21.055585447549774
 20
-5.0610690672414655
 10
21.1355482485985
 20
-4.700380180574337
 10
21.183770659229506
 20
-4.334094606698371
 10
21.2
 20
-3.9623815906853705
 10
21.2
 20
3.9623815906853705
 10
21.183770659229506
 20
4.334094606698373
 10
21.135548248598504
 20
4.700380180574332
 10
21.055585447549774
 20
5.0610690672414655
 10
20.94449082128217
 20
5.413416206482282
 10
20.803109866982364
 20
5.754740023814125
 10
20.632518579080703
 20
6.082442838890206
 10
20.434015260283992
 20
6.394030635415361
 10
20.209110640707816
 20
6.687132042116232
 10
19.959516380308315
 20
6.959516380308305
 10
19.687132042116218
 20
7.209110640707831
 10
19.39403063541537
 20
7.434015260283988
 10
19.082442838890206
 20
7.632518579080707
 10
18.75474002381414
 20
7.803109866982358
 10
18.413416206482275
 20
7.944490821282174
 10
18.06106906724147
 20
8.055585447549774
 10
17.70038018057433
 20
8.135548248598502
 10
17.334094606698375
 20
8.183770659229504
 10
16.96238159068533
 20
8.200000000000001
 10
-16.96238159068533
 20
8.200000000000001
 10
-17.334094606698372
 20
8.183770659229504
 10
-17.70038018057433
 20
8.135548248598502
 10
-18.06106906724147
 20
8.055585447549774
 10
-18.413416206482275
 20
7.944490821282174
 10
-18.754740023814136
 20
7.803109866982359
 10
-19.082442838890202
 20
7.632518579080708
 10
-19.39403063541537
 20
7.434015260283988
 10
-19.68713204211622
 20
7.209110640707826
 10
-19.959516380308305
 20
6.959516380308316
 10
-20.20911064070782
 20
6.687132042116229
 10
-20.434015260283992
 20
6.394030635415363
 10
-20.632518579080706
 20
6.082442838890204
 10
-20.803109866982364
 20
5.75474002381413
 10
-20.94449082128217
 20
5.413416206482283
 10
-21.055585447549774
 20
5.0610690672414655
 10
-21.1355482485985
 20
4.700380180574337
 10
-21.183770659229506
 20
4.334094606698372
 10
-21.2
 20
3.9623815906853705
 10
-21.2
 20
-3.9623815906853705
 10
-21.183770659229506
 20
-4.334094606698373
 10
-21.135548248598504
 20
-4.7003801805743315
 10
-21.055585447549774
 20
-5.061069067241466
 10
-20.94449082128217
 20
-5.413416206482283
 10
-20.803109866982364
 20
-5.754740023814125
 10
-20.632518579080703
 20
-6.082442838890205
 10
-20.434015260283992
 20
-6.394030635415362
 10
-20.209110640707816
 20
-6.687132042116232
 10
-19.959516380308315
 20
-6.9595163803083055
 10
-19.687132042116218
 20
-7.209110640707831
 10
-19.39403063541537
 20
-7.434015260283988
 10
-19.082442838890206
 20
-7.632518579080707
 10
-18.754740023814136
 20
-7.803109866982359
 10
-18.413416206482275
 20
-7.944490821282174
 10
-18.06106906724147
 20
-8.055585447549774
 10
-17.70038018057433
 20
-8.135548248598502
 10
-17.334094606698375
 20
-8.183770659229504
 10
-16.96238159068533
 20
-8.200000000000001
 10
-2.128118409314668
 20
-8.200000000000001
 10
-2.1206728201154648
 20
-8.199674918555054
 10
-2.1158823779845815
 20
-8.199044244883975
 10
-2.111165131764523
 20
-8.197998456574616
 10
-2.106556982547366
 20
-8.196545512707473
 10
-2.102093001131108
 20
-8.194696471062677
 10
-2.0978071611097944
 20
-8.192465403963647
 10
-2.093732080313842
 20
-8.189869291178157
 10
-2.089898772568663
 20
-8.186927890692052
 10
-2.0863364116608674
 20
-8.183663588339138
 10
-2.0830721093079467
 20
-8.180101227431335
 10
-2.0801307088218497
 20
-8.176267919686167
 10
-2.0775345960363514
 20
-8.172192838890199
 10
-2.0753035289373223
 20
-8.16790699886889
 10
-2.073454487292529
 20
-8.163443017452638
 10
-2.0720015434253862
 20
-8.158834868235482
 10
-2.0709557551160245
 20
-8.154117622015415
 10
-2.0703250814449463
 20
-8.149327179884535
 10
-2.0700000000000003
 20
-8.141881590685342
 10
-2.0700000000000003
 20
-8.10288159068534
 10
-2.068989420475149
 20
-8.079735514180106
 10
-2.0656232764233096
 20
-8.054167111654321
 10
-2.060041508452849
 20
-8.028989383404495
 10
-2.0522865971883846
 20
-8.004393947145331
 10
-2.042417562187183
 20
-7.9805679889978975
 10
-2.030509512764691
 20
-7.957692838890201
 10
-2.016653076367289
 20
-7.9359425905269525
 10
-2.000953708842707
 20
-7.915482776431357
 10
-1.9835308918573449
 20
-7.896469108142658
 10
-1.9645172235686414
 20
-7.879046291157292
 10
-1.9440574094730492
 20
-7.863346923632712
 10
-1.9223071611097988
 20
-7.849490487235308
 10
-1.899432011002094
 20
-7.837582437812811
 10
-1.8756060528546614
 20
-7.827713402811613
 10
-1.851010616595501
 20
-7.8199584915471485
 10
-1.8258328883456738
 20
-7.814376723576689
 10
-1.8002644858199026
 20
-7.811010579524852
 10
-1.7771184093146482
 20
-7.81
 10
16.96238159068535
 20
-7.81
 10
17.30010386702678
 20
-7.795254726973725
 10
17.63265739128425
 20
-7.751473224923737
 10
17.960129639651484
 20
-7.678874375297039
 10
18.280028350585273
 20
-7.5780106991756675
 10
18.589918901735256
 20
-7.449649830038069
 10
18.887442838890202
 20
-7.2947686716047775
 10
19.17033582523846
 20
-7.114545963011282
 10
19.436444874338466
 20
-6.910353307891429
 10
19.683744735645565
 20
-6.6837447356455515
 10
19.910353307891416
 20
-6.436444874338482
 10
20.114545963011285
 20
-6.170335825238454
 10
20.294768671604775
 20
-5.887442838890202
 10
20.44964983003807
 20
-5.589918901735257
 10
20.578010699175664
 20
-5.280028350585271
 10
20.67887437529704
 20
-4.960129639651482
 10
20.75147322492374
 20
-4.632657391284234
 10
20.795254726973724
 20
-4.3001038670267855
 10
20.81
 20
-3.9623815906853705
 10
20.81
 20
3.9623815906853705
 10
20.795254726973724
 20
4.300103867026785
 10
20.75147322492374
 20
4.6326573912842335
 10
20.67887437529704
 20
4.9601296396514805
 10
20.578010699175664
 20
5.280028350585271
 10
20.44964983003807
 20
5.589918901735257
 10
20.294768671604775
 20
5.887442838890202
 10
20.11454596301128
 20
6.170335825238458
 10
19.91035330789142
 20
6.436444874338478
 10
19.683744735645565
 20
6.6837447356455515
 10
19.436444874338466
 20
6.9103533078914285
 10
19.17033582523846
 20
7.11454596301128
 10
18.887442838890205
 20
7.294768671604776
 10
18.589918901735267
 20
7.449649830038065
 10
18.280028350585265
 20
7.57801069917567
 10
17.960129639651488
 20
7.678874375297038
 10
17.63265739128425
 20
7.751473224923737
 10
17.30010386702678
 20
7.795254726973725
 10
16.96238159068535
 20
7.81
 10
-16.96238159068535
 20
7.81
 10
-17.300103867026777
 20
7.795254726973725
 10
-17.63265739128425
 20
7.751473224923737
 10
-17.96012963965148
 20
7.678874375297039
 10
-18.280028350585262
 20
7.57801069917567
 10
-18.589918901735263
 20
7.449649830038065
 10
-18.887442838890202
 20
7.2947686716047775
 10
-19.17033582523846
 20
7.114545963011281
 10
-19.43644487433847
 20
6.910353307891425
 10
-19.68374473564555
 20
6.683744735645561
 10
-19.91035330789142
 20
6.436444874338478
 10
-20.114545963011285
 20
6.170335825238455
 10
-20.294768671604775
 20
5.887442838890204
 10
-20.44964983003807
 20
5.589918901735258
 10
-20.578010699175664
 20
5.280028350585272
 10
-20.67887437529704
 20
4.960129639651483
 10
-20.75147322492374
 20
4.632657391284234
 10
-20.795254726973724
 20
4.3001038670267855
 10
-20.81
 20
3.9623815906853705
 10
-20.81
 20
-3.9623815906853705
 10
-20.795254726973724
 20
-4.300103867026785
 10
-20.75147322492374
 20
-4.6326573912842335
 10
-20.67887437529704
 20
-4.960129639651482
 10
-20.578010699175664
 20
-5.280028350585271
 10
-20.44964983003807
 20
-5.589918901735253
 10
-20.29476867160477
 20
-5.887442838890205
 10
-20.114545963011285
 20
-6.170335825238454
 10
-19.910353307891416
 20
-6.436444874338482
 10
-19.683744735645565
 20
-6.6837447356455515
 10
-19.436444874338466
 20
-6.9103533078914285
 10
-19.17033582523846
 20
-7.11454596301128
 10
-18.887442838890205
 20
-7.294768671604776
 10
-18.589918901735263
 20
-7.449649830038065
 10
-18.280028350585262
 20
-7.57801069917567
 10
-17.96012963965148
 20
-7.678874375297039
 10
-17.63265739128425
 20
-7.751473224923737
 10
-17.30010386702678
 20
-7.795254726973725
 10
-16.96238159068535
 20
-7.81
 10
-2.46
 20
-7.81
 10
-2.46
 20
-7.33
 10
-2.2199999999999998
 20
-7.33
 10
-2.2199999999999998
 20
-8.049999999999999
 10
-16.967618409314667
 20
-8.049999999999999
 10
-17.321041172962143
 20
-8.034569228893819
 10
-17.67437265761451
 20
-7.988052256463073
 10
-18.022305388011507
 20
-7.910917427175273
 10
-18.362191385987288
 20
-7.803751783656584
 10
-18.69144391386848
 20
-7.667370921162569
 10
-19.007557161109798
 20
-7.502812780405821
 10
-19.308125315025336
 20
-7.311329748200422
 10
-19.59086087047579
 20
-7.094379126042066
 10
-19.85361203916376
 20
-6.85361203916377
 10
-20.09437912604208
 20
-6.590860870475774
 10
-20.311329748200418
 20
-6.308125315025342
 10
-20.502812780405826
 20
-6.007557161109792
 10
-20.667370921162565
 20
-5.691443913868493
 10
-20.803751783656587
 20
-5.362191385987282
 10
-20.910917427175274
 20
-5.0223053880115085
 10
-20.988052256463067
 20
-4.674372657614523
 10
-21.034569228893815
 20
-4.321041172962143
 10
-21.05
 20
-3.9676184093146283
 10
-21.05
 20
3.9676184093146283
 10
-21.034569228893815
 20
4.321041172962144
 10
-20.988052256463067
 20
4.674372657614524
 10
-20.910917427175274
 20
5.022305388011509
 10
-20.803751783656587
 20
5.362191385987283
 10
-20.667370921162565
 20
5.69144391386849
 10
-20.502812780405822
 20
6.0075571611097995
 10
-20.311329748200418
 20
6.308125315025343
 10
-20.094379126042078
 20
6.5908608704757805
 10
-19.853612039163767
 20
6.85361203916376
 10
-19.590860870475787
 20
7.094379126042071
 10
-19.308125315025336
 20
7.311329748200423
 10
-19.007557161109794
 20
7.502812780405823
 10
-18.69144391386848
 20
7.667370921162569
 10
-18.362191385987288
 20
7.803751783656584
 10
-18.022305388011507
 20
7.910917427175273
 10
-17.67437265761451
 20
7.988052256463073
 10
-17.32104117296214
 20
8.034569228893819
 10
-16.967618409314667
 20
8.049999999999999
 10
16.967618409314667
 20
8.049999999999999
 10
17.321041172962143
 20
8.034569228893819
 10
17.67437265761451
 20
7.988052256463073
 10
18.022305388011507
 20
7.9109174271752725
 10
18.36219138598729
 20
7.803751783656584
 10
18.691443913868483
 20
7.667370921162569
 10
19.007557161109798
 20
7.502812780405821
 10
19.308125315025336
 20
7.311329748200422
 10
19.59086087047579
 20
7.094379126042066
 10
19.85361203916376
 20
6.85361203916377
 10
20.094379126042078
 20
6.590860870475779
 10
20.31132974820042
 20
6.308125315025335
 10
20.502812780405822
 20
6.007557161109798
 10
20.667370921162565
 20
5.691443913868489
 10
20.803751783656587
 20
5.3621913859872805
 10
20.910917427175274
 20
5.022305388011507
 10
20.988052256463067
 20
4.674372657614523
 10
21.034569228893815
 20
4.321041172962143
 10
21.05
 20
3.9676184093146283
 10
21.05
 20
-3.9676184093146283
 10
21.034569228893815
 20
-4.321041172962144
 10
20.988052256463067
 20
-4.674372657614524
 10
20.910917427175274
 20
-5.0223053880115085
 10
20.803751783656587
 20
-5.362191385987282
 10
20.667370921162565
 20
-5.691443913868489
 10
20.502812780405822
 20
-6.007557161109798
 10
20.311329748200418
 20
-6.308125315025342
 10
20.09437912604208
 20
-6.590860870475774
 10
19.85361203916376
 20
-6.85361203916377
 10
19.59086087047579
 20
-7.0943791260420666
 10
19.308125315025336
 20
-7.311329748200424
 10
19.007557161109794
 20
-7.502812780405823
 10
18.691443913868486
 20
-7.667370921162565
 10
18.362191385987284
 20
-7.803751783656587
 10
18.022305388011503
 20
-7.910917427175273
 10
17.67437265761451
 20
-7.988052256463073
 10
17.321041172962143
 20
-8.034569228893819
 10
16.967618409314667
 20
-8.049999999999999
 10
-1.7718815906853318
 20
-8.049999999999999
 10
-1.7793271798845356
 20
-8.050325081444946
 10
-1.7841176220154191
 20
-8.050955755116025
 10
-1.788834868235475
 20
-8.052001543425384
 10
-1.7934430174526426
 20
-8.05345448729253
 10
-1.7979069988688776
 20
-8.055303528937316
 10
-1.8021928388902093
 20
-8.057534596036357
 10
-1.806267919686173
 20
-8.060130708821854
 10
-1.8101012274313324
 20
-8.063072109307944
 10
-1.8136635883391372
 20
-8.066336411660865
 10
-1.8169278906920563
 20
-8.069898772568667
 10
-1.8198692911781473
 20
-8.073732080313828
 10
-1.822465403963648
 20
-8.0778071611098
 10
-1.8246964710626778
 20
-8.08209300113111
 10
-1.826545512707472
 20
-8.086556982547364
 10
-1.8279984565746148
 20
-8.09116513176452
 10
-1.8290442448839754
 20
-8.095882377984584
 10
-1.8296749185550543
 20
-8.100672820115467
 10
-1.83
 20
-8.108118409314653
 10
-1.83
 20
-8.147118409314654
 10
-1.8310105795248515
 20
-8.170264485819896
 10
-1.8343767235766903
 20
-8.195832888345677
 10
-1.8399584915471519
 20
-8.221010616595507
 10
-1.847713402811618
 20
-8.245606052854676
 10
-1.8575824378128136
 20
-8.269432011002095
 10
-1.8694904872353102
 20
-8.2923071611098
 10
-1.883346923632714
 20
-8.314057409473053
 10
-1.899046291157292
 20
-8.33451722356864
 10
-1.9164691081426541
 20
-8.353530891857341
 10
-1.9354827764313622
 20
-8.37095370884271
 10
-1.9559425905269412
 20
-8.38665307636728
 10
-1.9776928388902044
 20
-8.400509512764694
 10
-2.0005679889979078
 20
-8.412417562187187
 10
-2.0243939471453243
 20
-8.422286597188382
 10
-2.0489893834044923
 20
-8.430041508452849
 10
-2.074167111654326
 20
-8.43562327642331
 10
-2.0997355141801077
 20
-8.43898942047515
 10
-2.122881590685332
 20
-8.44
 10
-16.96761840931467
 20
-8.44
 10
-17.35503191263373
 20
-8.423085161149599
 10
-17.74209544690463
 20
-8.37212728013783
 10
-18.123244815601492
 20
-8.28762849942801
 10
-18.495579241884293
 20
-8.17023190576309
 10
-18.85626503594736
 20
-8.020830958106858
 10
-19.202557161109798
 20
-7.840562687881753
 10
-19.531820125202245
 20
-7.63079904547313
 10
-19.841548038253542
 20
-7.393136458858468
 10
-20.129383683826518
 20
-7.129383683826524
 10
-20.393136458858482
 20
-6.841548038253524
 10
-20.630799045473125
 20
-6.53182012520225
 10
-20.840562687881757
 20
-6.202557161109792
 10
-21.02083095810686
 20
-5.856265035947366
 10
-21.170231905763092
 20
-5.495579241884292
 10
-21.28762849942801
 20
-5.123244815601489
 10
-21.372127280137832
 20
-4.742095446904628
 10
-21.423085161149597
 20
-4.355031912633728
 10
-21.44
 20
-3.9676184093146274
 10
-21.44
 20
3.9676184093146274
 10
-21.423085161149597
 20
4.355031912633731
 10
-21.37212728013783
 20
4.742095446904626
 10
-21.28762849942801
 20
5.123244815601492
 10
-21.170231905763092
 20
5.495579241884292
 10
-21.02083095810686
 20
5.856265035947362
 10
-20.840562687881754
 20
6.2025571611098
 10
-20.630799045473125
 20
6.531820125202251
 10
-20.39313645885848
 20
6.841548038253531
 10
-20.12938368382652
 20
7.129383683826513
 10
-19.84154803825354
 20
7.393136458858472
 10
-19.531820125202245
 20
7.63079904547313
 10
-19.202557161109794
 20
7.840562687881754
 10
-18.85626503594736
 20
8.020830958106858
 10
-18.495579241884293
 20
8.17023190576309
 10
-18.123244815601492
 20
8.28762849942801
 10
-17.74209544690463
 20
8.37212728013783
 10
-17.355031912633727
 20
8.423085161149599
 10
-16.96761840931467
 20
8.44
 10
16.96761840931467
 20
8.44
 10
17.35503191263373
 20
8.423085161149599
 10
17.74209544690463
 20
8.37212728013783
 10
18.123244815601492
 20
8.28762849942801
 10
18.495579241884293
 20
8.170231905763092
 10
18.85626503594735
 20
8.020830958106865
 10
19.202557161109798
 20
7.840562687881753
 10
19.531820125202245
 20
7.63079904547313
 10
19.841548038253542
 20
7.393136458858468
 10
20.129383683826518
 20
7.129383683826523
 10
20.393136458858482
 20
6.841548038253524
 10
20.630799045473125
 20
6.531820125202249
 10
20.840562687881757
 20
6.202557161109793
 10
21.02083095810686
 20
5.856265035947366
 10
21.170231905763092
 20
5.4955792418842915
 10
21.28762849942801
 20
5.123244815601488
 10
21.372127280137832
 20
4.742095446904629
 10
21.423085161149597
 20
4.355031912633728
 10
21.44
 20
3.9676184093146274
 10
21.44
 20
-3.9676184093146274
 10
21.423085161149597
 20
-4.35503191263373
 10
21.37212728013783
 20
-4.742095446904626
 10
21.28762849942801
 20
-5.123244815601492
 10
21.170231905763092
 20
-5.495579241884292
 10
21.02083095810686
 20
-5.8562650359473665
 10
20.840562687881757
 20
-6.202557161109794
 10
20.630799045473125
 20
-6.53182012520225
 10
20.393136458858482
 20
-6.841548038253524
 10
20.129383683826518
 20
-7.129383683826524
 10
19.841548038253542
 20
-7.393136458858468
 10
19.531820125202238
 20
-7.630799045473136
 10
19.2025571611098
 20
-7.840562687881749
 10
18.85626503594735
 20
-8.020830958106865
 10
18.495579241884293
 20
-8.170231905763092
 10
18.123244815601492
 20
-8.28762849942801
 10
17.74209544690463
 20
-8.37212728013783
 10
17.355031912633727
 20
-8.423085161149599
 10
16.96761840931467
 20
-8.44
 10
-1.3818815906853317
 20
-8.44
 10
-1.3893271798845355
 20
-8.440325081444946
 10
-1.394117622015419
 20
-8.440955755116025
 10
-1.398834868235475
 20
-8.442001543425384
 10
-1.4034430174526362
 20
-8.443454487292529
 10
-1.4079069988688921
 20
-8.445303528937323
 10
-1.4121928388901985
 20
-8.44753459603635
 10
-1.4162679196861652
 20
-8.450130708821849
 10
-1.4201012274313374
 20
-8.453072109307948
 10
-1.4236635883391382
 20
-8.456336411660867
 10
-1.4269278906920495
 20
-8.45989877256866
 10
-1.4298692911781499
 20
-8.463732080313834
 10
-1.432465403963648
 20
-8.4678071611098
 10
-1.4346964710626777
 20
-8.47209300113111
 10
-1.4365455127074718
 20
-8.476556982547365
 10
-1.4379984565746147
 20
-8.48116513176452
 10
-1.4390442448839753
 20
-8.485882377984584
 10
-1.4396749185550541
 20
-8.490672820115467
 10
-1.44
 20
-8.498118409314653
 10
-1.44
 20
-8.537118409314655
 10
-1.4410105795248513
 20
-8.560264485819896
 10
-1.4443767235766902
 20
-8.585832888345678
 10
-1.4499584915471517
 20
-8.611010616595507
 10
-1.4577134028116179
 20
-8.635606052854676
 10
-1.4675824378128135
 20
-8.659432011002096
 10
-1.47949048723531
 20
-8.6823071611098
 10
-1.493346923632714
 20
-8.704057409473053
 10
-1.5090462911572882
 20
-8.724517223568636
 10
-1.5264691081426598
 20
-8.743530891857347
 10
-1.545482776431362
 20
-8.760953708842711
 10
-1.5659425905269477
 20
-8.776653076367285
 10
-1.5876928388901985
 20
-8.790509512764691
 10
-1.6105679889979068
 20
-8.802417562187188
 10
-1.6343939471453266
 20
-8.812286597188384
 10
-1.65898938340449
 20
-8.82004150845285
 10
-1.6841671116543264
 20
-8.825623276423311
 10
-1.7097355141801076
 20
-8.82898942047515
 10
-1.7328815906853317
 20
-8.83
 10
-16.967618409314667
 20
-8.83
 10
-17.389022652305314
 20
-8.81160109340538
 10
-17.809818236194733
 20
-8.756202303812593
 10
-18.224184243191473
 20
-8.664339571680749
 10
-18.628967097781302
 20
-8.536712027869596
 10
-19.021086158026232
 20
-8.374290995051153
 10
-19.3975571611098
 20
-8.178312595357685
 10
-19.755514935379153
 20
-7.950268342745837
 10
-20.09223520603129
 20
-7.69189379167487
 10
-20.40515532848927
 20
-7.405155328489278
 10
-20.691893791674882
 20
-7.092235206031276
 10
-20.950268342745833
 20
-6.755514935379159
 10
-21.178312595357685
 20
-6.3975571611097966
 10
-21.374290995051155
 20
-6.021086158026232
 10
-21.536712027869594
 20
-5.628967097781308
 10
-21.66433957168075
 20
-5.224184243191475
 10
-21.756202303812593
 20
-4.8098182361947295
 10
-21.81160109340538
 20
-4.389022652305315
 10
-21.830000000000002
 20
-3.9676184093146283
 10
-21.830000000000002
 20
3.967618409314628
 10
-21.81160109340538
 20
4.389022652305318
 10
-21.75620230381259
 20
4.8098182361947295
 10
-21.664339571680745
 20
5.224184243191476
 10
-21.536712027869594
 20
5.628967097781304
 10
-21.37429099505115
 20
6.021086158026236
 10
-21.178312595357685
 20
6.397557161109799
 10
-20.95026834274583
 20
6.755514935379165
 10
-20.691893791674886
 20
7.092235206031272
 10
-20.405155328489265
 20
7.405155328489278
 10
-20.09223520603129
 20
7.69189379167487
 10
-19.75551493537915
 20
7.950268342745837
 10
-19.397557161109813
 20
8.178312595357674
 10
-19.02108615802622
 20
8.37429099505116
 10
-18.628967097781302
 20
8.536712027869596
 10
-18.224184243191473
 20
8.664339571680749
 10
-17.809818236194733
 20
8.756202303812593
 10
-17.389022652305314
 20
8.81160109340538
 10
-16.967618409314667
 20
8.83
 10
16.967618409314667
 20
8.83
 10
17.389022652305318
 20
8.81160109340538
 10
17.809818236194715
 20
8.756202303812595
 10
18.224184243191495
 20
8.664339571680742
 10
18.628967097781306
 20
8.536712027869596
 10
19.021086158026236
 20
8.374290995051151
 10
19.3975571611098
 20
8.178312595357685
 10
19.755514935379153
 20
7.950268342745837
 10
20.09223520603129
 20
7.69189379167487
 10
20.40515532848927
 20
7.405155328489277
 10
20.691893791674886
 20
7.092235206031275
 10
20.950268342745833
 20
6.755514935379158
 10
21.178312595357685
 20
6.397557161109797
 10
21.374290995051155
 20
6.021086158026232
 10
21.536712027869594
 20
5.628967097781308
 10
21.66433957168075
 20
5.224184243191474
 10
21.756202303812593
 20
4.8098182361947295
 10
21.81160109340538
 20
4.389022652305315
 10
21.830000000000002
 20
3.9676184093146283
 10
21.830000000000002
 20
-3.967618409314628
 10
21.81160109340538
 20
-4.389022652305318
 10
21.75620230381259
 20
-4.80981823619473
 10
21.664339571680745
 20
-5.224184243191475
 10
21.536712027869594
 20
-5.628967097781304
 10
21.37429099505115
 20
-6.021086158026235
 10
21.178312595357685
 20
-6.397557161109797
 10
20.950268342745833
 20
-6.755514935379159
 10
20.691893791674882
 20
-7.092235206031276
 10
20.405155328489265
 20
-7.405155328489278
 10
20.09223520603129
 20
-7.69189379167487
 10
19.75551493537915
 20
-7.950268342745837
 10
19.397557161109813
 20
-8.178312595357674
 10
19.02108615802622
 20
-8.37429099505116
 10
18.628967097781302
 20
-8.536712027869596
 10
18.224184243191473
 20
-8.664339571680749
 10
17.809818236194733
 20
-8.756202303812593
 10
17.389022652305314
 20
-8.81160109340538
 10
16.967618409314667
 20
-8.83
 10
-0.9918815906853317
 20
-8.83
 10
-0.9993271798845352
 20
-8.830325081444947
 10
-1.0041176220154189
 20
-8.830955755116026
 10
-1.0088348682354749
 20
-8.832001543425385
 10
-1.013443017452636
 20
-8.83345448729253
 10
-1.017906998868892
 20
-8.835303528937324
 10
-1.0221928388901984
 20
-8.83753459603635
 10
-1.026267919686165
 20
-8.84013070882185
 10
-1.0301012274313373
 20
-8.843072109307949
 10
-1.033663588339138
 20
-8.846336411660868
 10
-1.0369278906920494
 20
-8.849898772568661
 10
-1.0398692911781497
 20
-8.853732080313835
 10
-1.0424654039636478
 20
-8.8578071611098
 10
-1.0446964710626776
 20
-8.862093001131111
 10
-1.0465455127074716
 20
-8.866556982547365
 10
-1.0479984565746145
 20
-8.87116513176452
 10
-1.0490442448839752
 20
-8.875882377984585
 10
-1.049674918555054
 20
-8.880672820115468
 10
-1.05
 20
-8.888118409314659
 10
-1.05
 20
-8.927118409314659
 10
-1.0510105795248512
 20
-8.950264485819895
 10
-1.05437672357669
 20
-8.975832888345677
 10
-1.0599584915471516
 20
-9.001010616595506
 10
-1.0677134028116178
 20
-9.025606052854675
 10
-1.0775824378128134
 20
-9.049432011002095
 10
-1.08949048723531
 20
-9.0723071611098
 10
-1.1033469236327138
 20
-9.094057409473052
 10
-1.119046291157288
 20
-9.114517223568635
 10
-1.1364691081426597
 20
-9.133530891857346
 10
-1.1554827764313618
 20
-9.15095370884271
 10
-1.1759425905269476
 20
-9.166653076367284
 10
-1.1976928388901984
 20
-9.18050951276469
 10
-1.2205679889979066
 20
-9.192417562187186
 10
-1.2443939471453265
 20
-9.202286597188383
 10
-1.2689893834044899
 20
-9.210041508452848
 10
-1.2941671116543263
 20
-9.21562327642331
 10
-1.3197355141801075
 20
-9.218989420475149
 10
-1.3428815906853315
 20
-9.219999999999999
 10
-16.967618409314667
 20
-9.219999999999999
 10
-17.4230133919769
 20
-9.20011702566116
 10
-17.877541025484835
 20
-9.140277327487354
 10
-18.32512367078146
 20
-9.041050643933485
 10
-18.76235495367832
 20
-8.903192149976098
 10
-19.185907280105095
 20
-8.727751031995453
 10
-19.592557161109816
 20
-8.516062502833606
 10
-19.979209745556055
 20
-8.26973764001855
 10
-20.342922373809042
 20
-7.990651124491272
 10
-20.680926973152022
 20
-7.680926973152031
 10
-20.99065112449127
 20
-7.342922373809046
 10
-21.26973764001856
 20
-6.9792097455560445
 10
-21.51606250283362
 20
-6.592557161109799
 10
-21.72775103199545
 20
-6.185907280105108
 10
-21.903192149976103
 20
-5.762354953678313
 10
-22.041050643933488
 20
-5.325123670781456
 10
-22.140277327487357
 20
-4.877541025484836
 10
-22.200117025661164
 20
-4.423013391976901
 10
-22.220000000000002
 20
-3.9676184093146256
 10
-22.220000000000002
 20
3.9676184093146256
 10
-22.200117025661164
 20
4.4230133919769035
 10
-22.140277327487357
 20
4.877541025484834
 10
-22.041050643933488
 20
5.325123670781454
 10
-21.903192149976103
 20
5.762354953678314
 10
-21.72775103199545
 20
6.185907280105108
 10
-21.516062502833616
 20
6.592557161109804
 10
-21.269737640018544
 20
6.979209745556063
 10
-20.990651124491286
 20
7.342922373809026
 10
-20.680926973152022
 20
7.68092697315203
 10
-20.342922373809042
 20
7.990651124491272
 10
-19.979209745556055
 20
8.269737640018551
 10
-19.592557161109813
 20
8.516062502833606
 10
-19.185907280105095
 20
8.727751031995453
 10
-18.762354953678315
 20
8.903192149976102
 10
-18.32512367078146
 20
9.041050643933485
 10
-17.877541025484838
 20
9.140277327487354
 10
-17.4230133919769
 20
9.20011702566116
 10
-16.967618409314667
 20
9.219999999999999
 10
16.967618409314667
 20
9.219999999999999
 10
17.4230133919769
 20
9.20011702566116
 10
17.877541025484838
 20
9.140277327487354
 10
18.32512367078146
 20
9.041050643933485
 10
18.762354953678315
 20
8.903192149976102
 10
19.185907280105095
 20
8.727751031995453
 10
19.592557161109816
 20
8.516062502833606
 10
19.979209745556055
 20
8.26973764001855
 10
20.342922373809042
 20
7.99065112449127
 10
20.680926973152022
 20
7.680926973152031
 10
20.99065112449127
 20
7.342922373809046
 10
21.26973764001856
 20
6.9792097455560445
 10
21.51606250283362
 20
6.592557161109797
 10
21.72775103199545
 20
6.185907280105108
 10
21.903192149976103
 20
5.762354953678314
 10
22.041050643933488
 20
5.325123670781455
 10
22.140277327487357
 20
4.877541025484834
 10
22.200117025661164
 20
4.423013391976903
 10
22.220000000000002
 20
3.9676184093146256
 10
22.220000000000002
 20
-3.9676184093146256
 10
22.200117025661164
 20
-4.423013391976902
 10
22.140277327487357
 20
-4.877541025484833
 10
22.041050643933488
 20
-5.325123670781455
 10
21.903192149976103
 20
-5.762354953678315
 10
21.72775103199545
 20
-6.1859072801051065
 10
21.51606250283362
 20
-6.592557161109797
 10
21.26973764001856
 20
-6.979209745556045
 10
20.99065112449127
 20
-7.342922373809046
 10
20.680926973152022
 20
-7.680926973152031
 10
20.342922373809042
 20
-7.99065112449127
 10
19.979209745556055
 20
-8.26973764001855
 10
19.592557161109816
 20
-8.516062502833606
 10
19.185907280105095
 20
-8.727751031995453
 10
18.762354953678315
 20
-8.903192149976102
 10
18.32512367078146
 20
-9.041050643933485
 10
17.877541025484838
 20
-9.140277327487354
 10
17.4230133919769
 20
-9.20011702566116
 10
16.967618409314667
 20
-9.219999999999999
 10
-0.6018815906853319
 20
-9.219999999999999
 10
-0.6093271798845351
 20
-9.220325081444946
 10
-0.6141176220154186
 20
-9.220955755116025
 10
-0.6188348682354773
 20
-9.222001543425383
 10
-0.623443017452633
 20
-9.223454487292527
 10
-0.6279069988688936
 20
-9.225303528937323
 10
-0.632192838890196
 20
-9.22753459603635
 10
-0.6362679196861698
 20
-9.230130708821852
 10
-0.6401012274313329
 20
-9.233072109307944
 10
-0.6436635883391316
 20
-9.236336411660862
 10
-0.6469278906920586
 20
-9.23989877256867
 10
-0.6498692911781484
 20
-9.24373208031383
 10
-0.6524654039636465
 20
-9.247807161109797
 10
-0.654696471062679
 20
-9.252093001131112
 10
-0.6565455127074714
 20
-9.256556982547362
 10
-0.6579984565746146
 20
-9.26116513176452
 10
-0.6590442448839753
 20
-9.265882377984584
 10
-0.6596749185550539
 20
-9.270672820115465
 10
-0.66
 20
-9.278118409314658
 10
-0.66
 20
-9.31711840931466
 10
-0.6610105795248511
 20
-9.340264485819894
 10
-0.6643767235766902
 20
-9.365832888345677
 10
-0.6699584915471517
 20
-9.391010616595507
 10
-0.6777134028116175
 20
-9.415606052854674
 10
-0.6875824378128137
 20
-9.439432011002095
 10
-0.6994904872353124
 20
-9.462307161109806
 10
-0.7133469236327095
 20
-9.484057409473046
 10
-0.7290462911572972
 20
-9.504517223568646
 10
-0.7464691081426534
 20
-9.523530891857341
 10
-0.7654827764313574
 20
-9.540953708842707
 10
-0.7859425905269526
 20
-9.556653076367288
 10
-0.8076928388901973
 20
-9.57050951276469
 10
-0.8305679889979053
 20
-9.582417562187187
 10
-0.8543939471453244
 20
-9.592286597188382
 10
-0.8789893834044925
 20
-9.600041508452849
 10
-0.9041671116543261
 20
-9.60562327642331
 10
-0.929735514180107
 20
-9.60898942047515
 10
-0.9528815906853318
 20
-9.61
 10
-16.967618409314667
 20
-9.61
 10
-17.457004131648485
 20
-9.588632957916941
 10
-17.945263814774915
 20
-9.524352351162117
 10
-18.426063098371454
 20
-9.417761716186215
 10
-18.89574280957532
 20
-9.269672272082605
 10
-19.35072840218396
 20
-9.081211068939748
 10
-19.787557161109813
 20
-8.853812410309535
 10
-20.20290455573296
 20
-8.589206937291253
 10
-20.59360954158679
 20
-8.289408457307673
 10
-20.956698617814776
 20
-7.956698617814778
 10
-21.289408457307683
 20
-7.593609541586775
 10
-21.58920693729124
 20
-7.202904555732974
 10
-21.853812410309548
 20
-6.787557161109793
 10
-22.081211068939737
 20
-6.350728402183984
 10
-22.2696722720826
 20
-5.895742809575324
 10
-22.417761716186217
 20
-5.426063098371438
 10
-22.52435235116211
 20
-4.945263814774936
 10
-22.588632957916936
 20
-4.457004131648487
 10
-22.61
 20
-3.9676184093146283
 10
-22.61
 20
3.9676184093146283
 10
-22.588632957916936
 20
4.457004131648489
 10
-22.52435235116211
 20
4.945263814774938
 10
-22.417761716186217
 20
5.42606309837144
 10
-22.269672272082598
 20
5.89574280957533
 10
-22.081211068939737
 20
6.350728402183977
 10
-21.85381241030954
 20
6.787557161109804
 10
-21.589206937291245
 20
7.202904555732972
 10
-21.289408457307683
 20
7.593609541586776
 10
-20.956698617814776
 20
7.956698617814778
 10
-20.59360954158679
 20
8.289408457307673
 10
-20.202904555732957
 20
8.589206937291253
 10
-19.78755716110981
 20
8.853812410309537
 10
-19.35072840218396
 20
9.081211068939748
 10
-18.89574280957532
 20
9.269672272082605
 10
-18.426063098371454
 20
9.417761716186215
 10
-17.945263814774915
 20
9.524352351162117
 10
-17.457004131648485
 20
9.588632957916941
 10
-16.967618409314667
 20
9.61
 10
16.967618409314667
 20
9.61
 10
17.457004131648485
 20
9.588632957916941
 10
17.94526381477492
 20
9.524352351162117
 10
18.426063098371458
 20
9.417761716186215
 10
18.895742809575324
 20
9.269672272082603
 10
19.35072840218398
 20
9.081211068939737
 10
19.78755716110978
 20
8.853812410309555
 10
20.20290455573297
 20
8.589206937291245
 10
20.59360954158679
 20
8.289408457307673
 10
20.956698617814776
 20
7.956698617814778
 10
21.289408457307683
 20
7.593609541586775
 10
21.589206937291245
 20
7.202904555732973
 10
21.853812410309548
 20
6.787557161109793
 10
22.081211068939737
 20
6.350728402183984
 10
22.2696722720826
 20
5.8957428095753235
 10
22.417761716186217
 20
5.426063098371437
 10
22.52435235116211
 20
4.945263814774937
 10
22.588632957916936
 20
4.457004131648488
 10
22.61
 20
3.9676184093146283
 10
22.61
 20
-3.9676184093146283
 10
22.588632957916936
 20
-4.457004131648488
 10
22.52435235116211
 20
-4.945263814774938
 10
22.417761716186217
 20
-5.426063098371439
 10
22.269672272082598
 20
-5.89574280957533
 10
22.081211068939737
 20
-6.350728402183976
 10
21.85381241030954
 20
-6.7875571611098025
 10
21.589206937291245
 20
-7.20290455573297
 10
21.289408457307683
 20
-7.593609541586775
 10
20.956698617814776
 20
-7.956698617814778
 10
20.59360954158679
 20
-8.289408457307673
 10
20.202904555732957
 20
-8.589206937291255
 10
19.78755716110981
 20
-8.853812410309537
 10
19.35072840218396
 20
-9.081211068939746
 10
18.89574280957532
 20
-9.269672272082605
 10
18.426063098371454
 20
-9.417761716186215
 10
17.945263814774915
 20
-9.524352351162117
 10
17.457004131648485
 20
-9.588632957916941
 10
16.967618409314667
 20
-9.61
 10
-0.21188159068533172
 20
-9.61
 10
-0.21932717988453526
 20
-9.610325081444946
 10
-0.22411762201541857
 20
-9.610955755116025
 10
-0.22883486823547705
 20
-9.612001543425384
 10
-0.2334430174526337
 20
-9.613454487292527
 10
-0.2379069988688928
 20
-9.615303528937323
 10
-0.24219283889019613
 20
-9.61753459603635
 10
-0.2462679196861669
 20
-9.62013070882185
 10
-0.2501012274313377
 20
-9.623072109307948
 10
-0.25366358833912805
 20
-9.626336411660859
 10
-0.25692789069205985
 20
-9.629898772568673
 10
-0.2598692911781481
 20
-9.63373208031383
 10
-0.26246540396364615
 20
-9.637807161109798
 10
-0.2646964710626798
 20
-9.642093001131114
 10
-0.2665455127074711
 20
-9.646556982547363
 10
-0.26799845657461463
 20
-9.65116513176452
 10
-0.2690442448839751
 20
-9.655882377984582
 10
-0.26967491855505393
 20
-9.660672820115467
 10
-0.27
 20
-9.668118409314658
 10
-0.27
 20
-9.70711840931466
 10
-0.2710105795248511
 20
-9.730264485819895
 10
-0.27437672357669035
 20
-9.755832888345678
 10
-0.27995849154715097
 20
-9.781010616595506
 10
-0.28771340281161806
 20
-9.805606052854676
 10
-0.2975824378128145
 20
-9.829432011002098
 10
-0.30949048723531014
 20
-9.852307161109803
 10
-0.32334692363271045
 20
-9.874057409473048
 10
-0.3390462911572975
 20
-9.894517223568647
 10
-0.35646910814265137
 20
-9.91353089185734
 10
-0.3754827764313615
 20
-9.930953708842711
 10
-0.3959425905269509
 20
-9.946653076367287
 10
-0.41769283889019715
 20
-9.960509512764691
 10
-0.440567988997906
 20
-9.972417562187188
 10
-0.4643939471453243
 20
-9.982286597188383
 10
-0.488989383404493
 20
-9.99004150845285
 10
-0.5141671116543263
 20
-9.995623276423311
 10
-0.5397355141801071
 20
-9.99898942047515
 10
-0.562881590685332
 20
-10.0
 10
-16.967618409314664
 20
-10.0
 10
-17.490994871320073
 20
-9.977148890172723
 10
-18.012986604065038
 20
-9.908427374836874
 10
-18.527002525961414
 20
-9.794472788438956
 10
-19.02913066547233
 20
-9.63615239418911
 10
-19.515549524262834
 20
-9.43467110588404
 10
-19.982557161109813
 20
-9.191562317785465
 10
-20.426599365909865
 20
-8.908676234563961
 10
-20.84429670936454
 20
-8.588165790124073
 10
-21.23247026247753
 20
-8.232470262477534
 10
-21.588165790124084
 20
-7.844296709364526
 10
-21.90867623456395
 20
-7.426599365909882
 10
-22.191562317785475
 20
-6.982557161109795
 10
-22.434671105884032
 20
-6.515549524262848
 10
-22.636152394189104
 20
-6.0291306654723416
 10
-22.794472788438952
 20
-5.527002525961419
 10
-22.908427374836872
 20
-5.0129866040650395
 10
-22.977148890172717
 20
-4.4909948713200745
 10
-23.0
 20
-3.967618409314629
 10
-23.0
 20
3.967618409314629
 10
-22.977148890172717
 20
4.490994871320075
 10
-22.908427374836872
 20
5.01298660406504
 10
-22.794472788438952
 20
5.527002525961421
 10
-22.636152394189104
 20
6.029130665472343
 10
-22.434671105884032
 20
6.515549524262849
 10
-22.191562317785475
 20
6.982557161109798
 10
-21.90867623456395
 20
7.426599365909884
 10
-21.588165790124084
 20
7.844296709364527
 10
-21.23247026247753
 20
8.232470262477534
 10
-20.84429670936454
 20
8.588165790124073
 10
-20.426599365909865
 20
8.908676234563961
 10
-19.982557161109792
 20
9.191562317785479
 10
-19.51554952426285
 20
9.434671105884032
 10
-19.029130665472334
 20
9.63615239418911
 10
-18.527002525961414
 20
9.794472788438956
 10
-18.012986604065038
 20
9.908427374836874
 10
-17.490994871320073
 20
9.977148890172723
 10
-16.967618409314664
 20
10.0
 10
16.967618409314664
 20
10.0
 10
17.490994871320073
 20
9.977148890172723
 10
18.01298660406504
 20
9.908427374836874
 10
18.52700252596142
 20
9.794472788438956
 10
19.029130665472334
 20
9.636152394189109
 10
19.51554952426285
 20
9.434671105884032
 10
19.982557161109792
 20
9.191562317785479
 10
20.426599365909865
 20
8.908676234563961
 10
20.84429670936454
 20
8.588165790124073
 10
21.23247026247753
 20
8.232470262477534
 10
21.588165790124084
 20
7.844296709364526
 10
21.90867623456395
 20
7.4265993659098815
 10
22.191562317785475
 20
6.982557161109797
 10
22.434671105884032
 20
6.515549524262849
 10
22.636152394189104
 20
6.029130665472342
 10
22.794472788438952
 20
5.527002525961419
 10
22.908427374836872
 20
5.012986604065041
 10
22.977148890172717
 20
4.490994871320075
 10
23.0
 20
3.967618409314629
 10
23.0
 20
-3.967618409314629
 10
22.977148890172717
 20
-4.4909948713200745
 10
22.908427374836872
 20
-5.012986604065041
 10
22.794472788438952
 20
-5.52700252596142
 10
22.636152394189104
 20
-6.029130665472342
 10
22.434671105884032
 20
-6.515549524262849
 10
22.191562317785475
 20
-6.982557161109797
 10
21.90867623456395
 20
-7.426599365909883
 10
21.588165790124084
 20
-7.844296709364526
 10
21.23247026247753
 20
-8.232470262477534
 10
20.84429670936454
 20
-8.588165790124073
 10
20.426599365909865
 20
-8.908676234563961
 10
19.982557161109792
 20
-9.191562317785479
 10
19.51554952426285
 20
-9.434671105884032
 10
19.029130665472334
 20
-9.636152394189109
 10
18.527002525961414
 20
-9.794472788438956
 10
18.01298660406502
 20
-9.908427374836876
 10
17.490994871320073
 20
-9.977148890172723
 10
16.967618409314664
 20
-10.0
 10
0.12
 20
-10.0
 10
0.12
 20
-12.0
 10
-0.12
 20
-12.0
 10
-0.12
 20
-9.760000000000002
  0
HATCH
  5
96
330
17
100
AcDbEntity
  8
ANT_COPPER_HATCH
 62
3
100
AcDbHatch
 10
0.0
 20
0.0
 30
0.0
210
0.0
220
0.0
230
1.0
  2
SOLID
 70
1
 71
0
 91
1
 92
3
 72
0
 73
1
 93
1301
 10
-0.12
 20
-9.760000000000002
 10
16.96238159068533
 20
-9.760000000000002
 10
17.470057565384717
 20
-9.737834388252628
 10
17.971271337734763
 20
-9.671848343297544
 10
18.46482677760139
 20
-9.56242973656072
 10
18.946967630070322
 20
-9.410411309708186
 10
19.414024512129618
 20
-9.216950014759536
 10
19.8624428388902
 20
-8.983518208984432
 10
20.288809876123004
 20
-8.71189244937481
 10
20.689880713227215
 20
-8.404139971973436
 10
21.06260295895932
 20
-8.062602958959324
 10
21.404139971973418
 20
-7.689880713227234
 10
21.711892449374815
 20
-7.288809876122993
 10
21.983518208984428
 20
-6.8624428388902015
 10
22.21695001475953
 20
-6.414024512129624
 10
22.410411309708188
 20
-5.9469676300703185
 10
22.562429736560716
 20
-5.464826777601402
 10
22.671848343297544
 20
-4.971271337734745
 10
22.737834388252626
 20
-4.470057565384719
 10
22.759999999999998
 20
-3.9623815906853705
 10
22.759999999999998
 20
3.9623815906853705
 10
22.737834388252626
 20
4.47005756538472
 10
22.671848343297544
 20
4.971271337734745
 10
22.562429736560716
 20
5.4648267776014015
 10
22.410411309708188
 20
5.9469676300703185
 10
22.21695001475953
 20
6.414024512129624
 10
21.983518208984428
 20
6.8624428388902015
 10
21.711892449374815
 20
7.288809876122993
 10
21.404139971973418
 20
7.689880713227234
 10
21.06260295895932
 20
8.062602958959324
 10
20.689880713227215
 20
8.404139971973436
 10
20.288809876123004
 20
8.71189244937481
 10
19.8624428388902
 20
8.983518208984432
 10
19.414024512129618
 20
9.216950014759536
 10
18.946967630070322
 20
9.410411309708186
 10
18.464826777601395
 20
9.56242973656072
 10
17.97127133773474
 20
9.671848343297546
 10
17.470057565384717
 20
9.737834388252628
 10
16.96238159068533
 20
9.760000000000002
 10
-16.96238159068533
 20
9.760000000000002
 10
-17.470057565384717
 20
9.737834388252628
 10
-17.971271337734738
 20
9.671848343297546
 10
-18.464826777601395
 20
9.56242973656072
 10
-18.946967630070322
 20
9.410411309708188
 10
-19.414024512129618
 20
9.216950014759536
 10
-19.8624428388902
 20
8.983518208984432
 10
-20.288809876123004
 20
8.71189244937481
 10
-20.689880713227215
 20
8.404139971973436
 10
-21.06260295895932
 20
8.062602958959324
 10
-21.404139971973418
 20
7.689880713227235
 10
-21.711892449374815
 20
7.288809876122994
 10
-21.983518208984428
 20
6.862442838890204
 10
-22.21695001475953
 20
6.414024512129624
 10
-22.410411309708188
 20
5.946967630070319
 10
-22.562429736560716
 20
5.464826777601403
 10
-22.671848343297544
 20
4.971271337734744
 10
-22.737834388252626
 20
4.47005756538472
 10
-22.759999999999998
 20
3.9623815906853705
 10
-22.759999999999998
 20
-3.9623815906853705
 10
-22.737834388252626
 20
-4.470057565384719
 10
-22.671848343297544
 20
-4.971271337734743
 10
-22.562429736560716
 20
-5.4648267776014015
 10
-22.410411309708188
 20
-5.946967630070318
 10
-22.21695001475953
 20
-6.4140245121296235
 10
-21.983518208984428
 20
-6.862442838890201
 10
-21.711892449374815
 20
-7.288809876122994
 10
-21.404139971973418
 20
-7.689880713227234
 10
-21.06260295895932
 20
-8.062602958959324
 10
-20.689880713227215
 20
-8.404139971973436
 10
-20.288809876123004
 20
-8.71189244937481
 10
-19.862442838890185
 20
-8.983518208984439
 10
-19.414024512129632
 20
-9.21695001475953
 10
-18.94696763007032
 20
-9.410411309708188
 10
-18.464826777601395
 20
-9.56242973656072
 10
-17.971271337734738
 20
-9.671848343297546
 10
-17.470057565384717
 20
-9.737834388252628
 10
-16.96238159068533
 20
-9.760000000000002
 10
-0.5681184093146683
 20
-9.760000000000002
 10
-0.560672820115465
 20
-9.759674918555055
 10
-0.5558823779845815
 20
-9.759044244883976
 10
-0.5511651317645229
 20
-9.757998456574617
 10
-0.546556982547366
 20
-9.756545512707474
 10
-0.5420930011311086
 20
-9.754696471062678
 10
-0.5378071611098031
 20
-9.752465403963651
 10
-0.5337320803138318
 20
-9.749869291178149
 10
-0.5298987725686634
 20
-9.746927890692053
 10
-0.5263364116608705
 20
-9.74366358833914
 10
-0.5230721093079415
 20
-9.74010122743133
 10
-0.520130708821853
 20
-9.736267919686172
 10
-0.5175345960363519
 20
-9.7321928388902
 10
-0.5153035289373215
 20
-9.727906998868889
 10
-0.5134544872925282
 20
-9.723443017452636
 10
-0.5120015434253861
 20
-9.718834868235483
 10
-0.5109557551160245
 20
-9.714117622015417
 10
-0.5103250814449461
 20
-9.709327179884536
 10
-0.51
 20
-9.701881590685343
 10
-0.51
 20
-9.662881590685341
 10
-0.5089894204751487
 20
-9.639735514180105
 10
-0.5056232764233102
 20
-9.614167111654325
 10
-0.5000415084528483
 20
-9.588989383404494
 10
-0.4922865971883828
 20
-9.564393947145327
 10
-0.48241756218718435
 20
-9.540567988997902
 10
-0.4705095127646919
 20
-9.517692838890202
 10
-0.45665307636728797
 20
-9.495942590526951
 10
-0.4409537088427014
 20
-9.475482776431353
 10
-0.4235308918573502
 20
-9.456469108142663
 10
-0.40451722356863745
 20
-9.43904629115729
 10
-0.3840574094730503
 20
-9.423346923632714
 10
-0.3623071611098041
 20
-9.40949048723531
 10
-0.33943201100209247
 20
-9.397582437812813
 10
-0.315606052854676
 20
-9.387713402811618
 10
-0.2910106165955077
 20
-9.379958491547152
 10
-0.26583288834567387
 20
-9.37437672357669
 10
-0.24026448581989265
 20
-9.371010579524851
 10
-0.21711840931466822
 20
-9.370000000000001
 10
16.962381590685325
 20
-9.370000000000001
 10
17.43606682571313
 20
-9.349318455996846
 10
17.903548548444657
 20
-9.287773319622785
 10
18.363887350011392
 20
-9.18571866430799
 10
18.81357977417331
 20
-9.043931187601682
 10
19.24920339005076
 20
-8.863489977815236
 10
19.66744283889018
 20
-8.645768301508511
 10
20.065115065946095
 20
-8.392423152102104
 10
20.439193545449466
 20
-8.105382639157035
 10
20.786831314296567
 20
-7.786831314296571
 10
21.105382639157018
 20
-7.439193545449483
 10
21.392423152102104
 20
-7.065115065946089
 10
21.6457683015085
 20
-6.667442838890198
 10
21.863489977815235
 20
-6.249203390050751
 10
22.043931187601682
 20
-5.813579774173311
 10
22.18571866430798
 20
-5.363887350011416
 10
22.287773319622783
 20
-4.9035485484446415
 10
22.349318455996844
 20
-4.436066825713133
 10
22.369999999999997
 20
-3.9623815906853697
 10
22.369999999999997
 20
3.9623815906853697
 10
22.349318455996844
 20
4.436066825713133
 10
22.287773319622783
 20
4.903548548444641
 10
22.18571866430798
 20
5.363887350011415
 10
22.04393118760168
 20
5.813579774173314
 10
21.86348997781524
 20
6.249203390050743
 10
21.645768301508493
 20
6.667442838890206
 10
21.39242315210211
 20
7.065115065946085
 10
21.105382639157018
 20
7.439193545449483
 10
20.786831314296567
 20
7.786831314296571
 10
20.439193545449466
 20
8.105382639157035
 10
20.06511506594608
 20
8.392423152102111
 10
19.667442838890217
 20
8.645768301508493
 10
19.24920339005075
 20
8.863489977815242
 10
18.813579774173313
 20
9.043931187601684
 10
18.363887350011396
 20
9.18571866430799
 10
17.90354854844466
 20
9.287773319622785
 10
17.43606682571313
 20
9.349318455996846
 10
16.962381590685325
 20
9.370000000000001
 10
-16.962381590685325
 20
9.370000000000001
 10
-17.43606682571313
 20
9.349318455996846
 10
-17.903548548444657
 20
9.287773319622785
 10
-18.363887350011392
 20
9.18571866430799
 10
-18.81357977417331
 20
9.043931187601682
 10
-19.24920339005076
 20
8.863489977815238
 10
-19.66744283889018
 20
8.645768301508511
 10
-20.065115065946095
 20
8.392423152102102
 10
-20.439193545449466
 20
8.105382639157035
 10
-20.786831314296567
 20
7.786831314296571
 10
-21.105382639157018
 20
7.439193545449484
 10
-21.392423152102104
 20
7.065115065946091
 10
-21.6457683015085
 20
6.667442838890199
 10
-21.863489977815235
 20
6.249203390050752
 10
-22.043931187601682
 20
5.813579774173311
 10
-22.18571866430798
 20
5.363887350011417
 10
-22.287773319622783
 20
4.9035485484446415
 10
-22.349318455996844
 20
4.436066825713134
 10
-22.369999999999997
 20
3.9623815906853697
 10
-22.369999999999997
 20
-3.9623815906853697
 10
-22.349318455996844
 20
-4.436066825713132
 10
-22.287773319622783
 20
-4.90354854844464
 10
-22.18571866430798
 20
-5.3638873500114155
 10
-22.04393118760168
 20
-5.813579774173315
 10
-21.86348997781524
 20
-6.249203390050743
 10
-21.645768301508493
 20
-6.667442838890206
 10
-21.392423152102108
 20
-7.0651150659460855
 10
-21.105382639157018
 20
-7.439193545449483
 10
-20.786831314296567
 20
-7.786831314296571
 10
-20.439193545449466
 20
-8.105382639157035
 10
-20.0651150659461
 20
-8.392423152102102
 10
-19.667442838890185
 20
-8.64576830150851
 10
-19.24920339005076
 20
-8.863489977815238
 10
-18.81357977417331
 20
-9.043931187601682
 10
-18.363887350011392
 20
-9.18571866430799
 10
-17.903548548444657
 20
-9.287773319622785
 10
-17.43606682571313
 20
-9.349318455996846
 10
-16.962381590685325
 20
-9.370000000000001
 10
-0.9581184093146682
 20
-9.370000000000001
 10
-0.950672820115465
 20
-9.369674918555054
 10
-0.9458823779845814
 20
-9.369044244883975
 10
-0.9411651317645228
 20
-9.367998456574616
 10
-0.9365569825473659
 20
-9.366545512707473
 10
-0.9320930011311092
 20
-9.364696471062677
 10
-0.9278071611098028
 20
-9.36246540396365
 10
-0.9237320803138303
 20
-9.359869291178148
 10
-0.9198987725686671
 20
-9.356927890692056
 10
-0.9163364116608684
 20
-9.353663588339138
 10
-0.9130721093079415
 20
-9.35010122743133
 10
-0.9101307088218544
 20
-9.346267919686174
 10
-0.9075345960363498
 20
-9.342192838890195
 10
-0.9053035289373221
 20
-9.33790699886889
 10
-0.9034544872925286
 20
-9.333443017452637
 10
-0.9020015434253854
 20
-9.32883486823548
 10
-0.9009557551160248
 20
-9.324117622015416
 10
-0.9003250814449462
 20
-9.319327179884535
 10
-0.9
 20
-9.311881590685342
 10
-0.9
 20
-9.27288159068534
 10
-0.898989420475149
 20
-9.249735514180106
 10
-0.8956232764233099
 20
-9.224167111654323
 10
-0.8900415084528484
 20
-9.198989383404493
 10
-0.8822865971883825
 20
-9.174393947145326
 10
-0.8724175621871852
 20
-9.150567988997903
 10
-0.8605095127646917
 20
-9.127692838890201
 10
-0.8466530763672878
 20
-9.10594259052695
 10
-0.8309537088427028
 20
-9.085482776431354
 10
-0.8135308918573466
 20
-9.066469108142659
 10
-0.7945172235686426
 20
-9.049046291157293
 10
-0.7740574094730475
 20
-9.033346923632712
 10
-0.7523071611098041
 20
-9.01949048723531
 10
-0.7294320110020915
 20
-9.007582437812813
 10
-0.7056060528546766
 20
-8.997713402811618
 10
-0.6810106165955075
 20
-8.989958491547151
 10
-0.655832888345674
 20
-8.98437672357669
 10
-0.630264485819893
 20
-8.98101057952485
 10
-0.6071184093146682
 20
-8.98
 10
16.962381590685332
 20
-8.98
 10
17.402076086041546
 20
-8.960802523741066
 10
17.835825759154538
 20
-8.903698295948026
 10
18.262947922421432
 20
-8.809007592055249
 10
18.680191918276304
 20
-8.677451065495179
 10
19.084382267971893
 20
-8.510029940870943
 10
19.47244283889019
 20
-8.30801839403258
 10
19.841420255769194
 20
-8.072953854829398
 10
20.188506377671718
 20
-7.806625306340633
 10
20.511059669633827
 20
-7.511059669633813
 10
20.80662530634064
 20
-7.188506377671715
 10
21.072953854829397
 20
-6.8414202557692
 10
21.308018394032572
 20
-6.472442838890203
 10
21.510029940870954
 20
-6.084382267971875
 10
21.67745106549518
 20
-5.680191918276304
 10
21.809007592055252
 20
-5.262947922421432
 10
21.90369829594803
 20
-4.83582575915454
 10
21.960802523741073
 20
-4.402076086041545
 10
21.98
 20
-3.9623815906853723
 10
21.98
 20
3.9623815906853723
 10
21.960802523741073
 20
4.4020760860415455
 10
21.90369829594803
 20
4.835825759154539
 10
21.809007592055252
 20
5.262947922421432
 10
21.67745106549518
 20
5.6801919182763045
 10
21.510029940870954
 20
6.084382267971876
 10
21.308018394032572
 20
6.472442838890203
 10
21.072953854829397
 20
6.841420255769199
 10
20.80662530634064
 20
7.188506377671715
 10
20.511059669633827
 20
7.511059669633813
 10
20.188506377671718
 20
7.806625306340633
 10
19.841420255769194
 20
8.072953854829398
 10
19.47244283889019
 20
8.30801839403258
 10
19.084382267971893
 20
8.510029940870943
 10
18.680191918276304
 20
8.677451065495179
 10
18.262947922421432
 20
8.809007592055249
 10
17.835825759154538
 20
8.903698295948026
 10
17.402076086041546
 20
8.960802523741066
 10
16.962381590685332
 20
8.98
 10
-16.962381590685332
 20
8.98
 10
-17.402076086041546
 20
8.960802523741066
 10
-17.835825759154538
 20
8.903698295948026
 10
-18.262947922421432
 20
8.809007592055249
 10
-18.680191918276304
 20
8.677451065495179
 10
-19.084382267971893
 20
8.510029940870943
 10
-19.472442838890185
 20
8.30801839403258
 10
-19.841420255769194
 20
8.072953854829397
 10
-20.188506377671718
 20
7.806625306340635
 10
-20.511059669633827
 20
7.511059669633812
 10
-20.80662530634062
 20
7.188506377671734
 10
-21.072953854829404
 20
6.841420255769182
 10
-21.308018394032576
 20
6.472442838890199
 10
-21.510029940870954
 20
6.084382267971876
 10
-21.67745106549518
 20
5.6801919182763045
 10
-21.809007592055252
 20
5.262947922421431
 10
-21.90369829594803
 20
4.835825759154539
 10
-21.960802523741073
 20
4.4020760860415455
 10
-21.98
 20
3.9623815906853723
 10
-21.98
 20
-3.9623815906853723
 10
-21.960802523741073
 20
-4.4020760860415455
 10
-21.90369829594803
 20
-4.83582575915454
 10
-21.809007592055252
 20
-5.262947922421433
 10
-21.67745106549518
 20
-5.680191918276304
 10
-21.510029940870954
 20
-6.084382267971876
 10
-21.308018394032572
 20
-6.472442838890203
 10
-21.072953854829397
 20
-6.841420255769199
 10
-20.80662530634064
 20
-7.188506377671715
 10
-20.511059669633827
 20
-7.511059669633813
 10
-20.188506377671718
 20
-7.806625306340635
 10
-19.841420255769194
 20
-8.072953854829398
 10
-19.47244283889019
 20
-8.30801839403258
 10
-19.084382267971893
 20
-8.510029940870943
 10
-18.680191918276307
 20
-8.677451065495179
 10
-18.262947922421432
 20
-8.809007592055249
 10
-17.835825759154535
 20
-8.903698295948026
 10
-17.402076086041546
 20
-8.960802523741066
 10
-16.962381590685332
 20
-8.98
 10
-1.3481184093146683
 20
-8.98
 10
-1.3406728201154645
 20
-8.979674918555054
 10
-1.335882377984581
 20
-8.979044244883974
 10
-1.331165131764525
 20
-8.977998456574616
 10
-1.3265569825473638
 20
-8.976545512707471
 10
-1.3220930011311078
 20
-8.974696471062677
 10
-1.3178071611098015
 20
-8.97246540396365
 10
-1.3137320803138348
 20
-8.969869291178151
 10
-1.3098987725686626
 20
-8.966927890692052
 10
-1.3063364116608618
 20
-8.963663588339132
 10
-1.3030721093079505
 20
-8.96010122743134
 10
-1.3001307088218501
 20
-8.956267919686166
 10
-1.297534596036352
 20
-8.9521928388902
 10
-1.2953035289373223
 20
-8.94790699886889
 10
-1.2934544872925282
 20
-8.943443017452635
 10
-1.2920015434253853
 20
-8.93883486823548
 10
-1.2909557551160247
 20
-8.934117622015416
 10
-1.2903250814449458
 20
-8.929327179884533
 10
-1.2899999999999998
 20
-8.921881590685341
 10
-1.2899999999999998
 20
-8.882881590685342
 10
-1.2889894204751486
 20
-8.859735514180105
 10
-1.2856232764233098
 20
-8.834167111654324
 10
-1.2800415084528483
 20
-8.808989383404494
 10
-1.272286597188382
 20
-8.784393947145325
 10
-1.2624175621871865
 20
-8.760567988997906
 10
-1.25050951276469
 20
-8.7376928388902
 10
-1.236653076367286
 20
-8.715942590526948
 10
-1.2209537088427118
 20
-8.695482776431366
 10
-1.2035308918573402
 20
-8.676469108142655
 10
-1.184517223568638
 20
-8.65904629115729
 10
-1.1640574094730523
 20
-8.643346923632716
 10
-1.1423071611098015
 20
-8.62949048723531
 10
-1.1194320110020932
 20
-8.617582437812814
 10
-1.0956060528546734
 20
-8.607713402811617
 10
-1.07101061659551
 20
-8.599958491547152
 10
-1.0458328883456736
 20
-8.59437672357669
 10
-1.0202644858198924
 20
-8.591010579524852
 10
-0.9971184093146682
 20
-8.590000000000002
 10
16.962381590685332
 20
-8.590000000000002
 10
17.36808534636996
 20
-8.572286591485286
 10
17.768102969864433
 20
-8.519623272273265
 10
18.162008494831447
 20
-8.432296519802513
 10
18.54680406237929
 20
-8.310970943388677
 10
18.919561145893017
 20
-8.15656990392665
 10
19.277442838890202
 20
-7.970268486556638
 10
19.617725445592274
 20
-7.753484557556695
 10
19.937819209893966
 20
-7.507867973524233
 10
20.23528802497107
 20
-7.23528802497106
 10
20.507867973524217
 20
-6.937819209893984
 10
20.7534845575567
 20
-6.617725445592271
 10
20.970268486556638
 20
-6.277442838890203
 10
21.156569903926655
 20
-5.919561145893003
 10
21.31097094338867
 20
-5.5468040623792945
 10
21.43229651980251
 20
-5.162008494831449
 10
21.51962327227326
 20
-4.768102969864441
 10
21.572286591485287
 20
-4.368085346369959
 10
21.59
 20
-3.962381590685372
 10
21.59
 20
3.9623815906853714
 10
21.572286591485287
 20
4.36808534636996
 10
21.519623272273265
 20
4.768102969864438
 10
21.432296519802513
 20
5.162008494831448
 10
21.31097094338868
 20
5.546804062379289
 10
21.156569903926652
 20
5.919561145893007
 10
20.970268486556638
 20
6.277442838890203
 10
20.7534845575567
 20
6.61772544559227
 10
20.50786797352422
 20
6.937819209893983
 10
20.235288024971073
 20
7.235288024971059
 10
19.937819209893966
 20
7.507867973524233
 10
19.617725445592278
 20
7.753484557556695
 10
19.277442838890206
 20
7.970268486556638
 10
18.919561145893006
 20
8.156569903926655
 10
18.546804062379294
 20
8.310970943388677
 10
18.162008494831433
 20
8.432296519802517
 10
17.768102969864458
 20
8.519623272273263
 10
17.368085346369963
 20
8.572286591485286
 10
16.962381590685332
 20
8.590000000000002
 10
-16.962381590685332
 20
8.590000000000002
 10
-17.36808534636996
 20
8.572286591485286
 10
-17.768102969864433
 20
8.519623272273265
 10
-18.162008494831447
 20
8.432296519802513
 10
-18.54680406237929
 20
8.310970943388677
 10
-18.919561145893017
 20
8.15656990392665
 10
-19.277442838890202
 20
7.970268486556638
 10
-19.617725445592274
 20
7.753484557556695
 10
-19.937819209893966
 20
7.507867973524233
 10
-20.23528802497107
 20
7.23528802497106
 10
-20.507867973524213
 20
6.937819209893989
 10
-20.753484557556703
 20
6.617725445592266
 10
-20.970268486556638
 20
6.277442838890205
 10
-21.156569903926655
 20
5.919561145893004
 10
-21.31097094338867
 20
5.5468040623792945
 10
-21.43229651980251
 20
5.16200849483145
 10
-21.51962327227326
 20
4.76810296986444
 10
-21.572286591485287
 20
4.368085346369959
 10
-21.59
 20
3.962381590685372
 10
-21.59
 20
-3.9623815906853714
 10
-21.572286591485287
 20
-4.36808534636996
 10
-21.519623272273265
 20
-4.768102969864438
 10
-21.432296519802513
 20
-5.162008494831449
 10
-21.31097094338868
 20
-5.546804062379289
 10
-21.156569903926652
 20
-5.919561145893007
 10
-20.970268486556638
 20
-6.277442838890202
 10
-20.7534845575567
 20
-6.617725445592271
 10
-20.507867973524217
 20
-6.937819209893984
 10
-20.235288024971073
 20
-7.23528802497106
 10
-19.937819209893966
 20
-7.507867973524233
 10
-19.617725445592278
 20
-7.753484557556695
 10
-19.277442838890206
 20
-7.970268486556638
 10
-18.919561145893002
 20
-8.156569903926657
 10
-18.54680406237929
 20
-8.310970943388677
 10
-18.162008494831447
 20
-8.432296519802513
 10
-17.768102969864433
 20
-8.519623272273265
 10
-17.36808534636996
 20
-8.572286591485286
 10
-16.962381590685332
 20
-8.590000000000002
 10
-1.7381184093146684
 20
-8.590000000000002
 10
-1.7306728201154646
 20
-8.589674918555055
 10
-1.725882377984581
 20
-8.589044244883976
 10
-1.7211651317645251
 20
-8.587998456574617
 10
-1.7165569825473639
 20
-8.586545512707472
 10
-1.712093001131108
 20
-8.584696471062678
 10
-1.7078071611098016
 20
-8.582465403963651
 10
-1.703732080313835
 20
-8.579869291178152
 10
-1.6998987725686627
 20
-8.576927890692053
 10
-1.696336411660862
 20
-8.573663588339134
 10
-1.6930721093079506
 20
-8.57010122743134
 10
-1.6901307088218502
 20
-8.566267919686167
 10
-1.6875345960363521
 20
-8.562192838890201
 10
-1.6853035289373224
 20
-8.55790699886889
 10
-1.6834544872925283
 20
-8.553443017452636
 10
-1.6820015434253854
 20
-8.548834868235481
 10
-1.6809557551160248
 20
-8.544117622015417
 10
-1.680325081444946
 20
-8.539327179884534
 10
-1.6800000000000002
 20
-8.531881590685348
 10
-1.6800000000000002
 20
-8.492881590685347
 10
-1.6789894204751488
 20
-8.469735514180105
 10
-1.6756232764233099
 20
-8.444167111654323
 10
-1.6700415084528484
 20
-8.418989383404494
 10
-1.6622865971883822
 20
-8.394393947145325
 10
-1.6524175621871866
 20
-8.370567988997905
 10
-1.64050951276469
 20
-8.3476928388902
 10
-1.6266530763672862
 20
-8.325942590526948
 10
-1.610953708842712
 20
-8.305482776431365
 10
-1.5935308918573403
 20
-8.286469108142654
 10
-1.5745172235686382
 20
-8.26904629115729
 10
-1.5540574094730524
 20
-8.253346923632716
 10
-1.5323071611098016
 20
-8.23949048723531
 10
-1.5094320110020933
 20
-8.227582437812814
 10
-1.4856060528546735
 20
-8.217713402811617
 10
-1.4610106165955101
 20
-8.209958491547152
 10
-1.4358328883456737
 20
-8.20437672357669
 10
-1.4102644858198925
 20
-8.201010579524851
 10
-1.3871184093146685
 20
-8.200000000000001
 10
16.96238159068533
 20
-8.200000000000001
 10
17.334094606698372
 20
-8.183770659229504
 10
17.70038018057433
 20
-8.135548248598502
 10
18.06106906724147
 20
-8.055585447549774
 10
18.413416206482275
 20
-7.944490821282174
 10
18.75474002381414
 20
-7.803109866982358
 10
19.082442838890195
 20
-7.632518579080712
 10
19.394030635415376
 20
-7.434015260283983
 10
19.687132042116218
 20
-7.209110640707831
 10
19.959516380308315
 20
-6.9595163803083055
 10
20.209110640707816
 20
-6.687132042116232
 10
20.434015260283992
 20
-6.394030635415362
 10
20.632518579080703
 20
-6.0824428388902065
 10
20.803109866982364
 20
-5.754740023814126
 10
20.94449082128217
 20
-5.413416206482283
 10
21.055585447549774
 20
-5.0610690672414655
 10
21.1355482485985
 20
-4.700380180574337
 10
21.183770659229506
 20
-4.334094606698371
 10
21.2
 20
-3.9623815906853705
 10
21.2
 20
3.9623815906853705
 10
21.183770659229506
 20
4.334094606698373
 10
21.135548248598504
 20
4.700380180574332
 10
21.055585447549774
 20
5.0610690672414655
 10
20.94449082128217
 20
5.413416206482282
 10
20.803109866982364
 20
5.754740023814125
 10
20.632518579080703
 20
6.082442838890206
 10
20.434015260283992
 20
6.394030635415361
 10
20.209110640707816
 20
6.687132042116232
 10
19.959516380308315
 20
6.959516380308305
 10
19.687132042116218
 20
7.209110640707831
 10
19.39403063541537
 20
7.434015260283988
 10
19.082442838890206
 20
7.632518579080707
 10
18.75474002381414
 20
7.803109866982358
 10
18.413416206482275
 20
7.944490821282174
 10
18.06106906724147
 20
8.055585447549774
 10
17.70038018057433
 20
8.135548248598502
 10
17.334094606698375
 20
8.183770659229504
 10
16.96238159068533
 20
8.200000000000001
 10
-16.96238159068533
 20
8.200000000000001
 10
-17.334094606698372
 20
8.183770659229504
 10
-17.70038018057433
 20
8.135548248598502
 10
-18.06106906724147
 20
8.055585447549774
 10
-18.413416206482275
 20
7.944490821282174
 10
-18.754740023814136
 20
7.803109866982359
 10
-19.082442838890202
 20
7.632518579080708
 10
-19.39403063541537
 20
7.434015260283988
 10
-19.68713204211622
 20
7.209110640707826
 10
-19.959516380308305
 20
6.959516380308316
 10
-20.20911064070782
 20
6.687132042116229
 10
-20.434015260283992
 20
6.394030635415363
 10
-20.632518579080706
 20
6.082442838890204
 10
-20.803109866982364
 20
5.75474002381413
 10
-20.94449082128217
 20
5.413416206482283
 10
-21.055585447549774
 20
5.0610690672414655
 10
-21.1355482485985
 20
4.700380180574337
 10
-21.183770659229506
 20
4.334094606698372
 10
-21.2
 20
3.9623815906853705
 10
-21.2
 20
-3.9623815906853705
 10
-21.183770659229506
 20
-4.334094606698373
 10
-21.135548248598504
 20
-4.7003801805743315
 10
-21.055585447549774
 20
-5.061069067241466
 10
-20.94449082128217
 20
-5.413416206482283
 10
-20.803109866982364
 20
-5.754740023814125
 10
-20.632518579080703
 20
-6.082442838890205
 10
-20.434015260283992
 20
-6.394030635415362
 10
-20.209110640707816
 20
-6.687132042116232
 10
-19.959516380308315
 20
-6.9595163803083055
 10
-19.687132042116218
 20
-7.209110640707831
 10
-19.39403063541537
 20
-7.434015260283988
 10
-19.082442838890206
 20
-7.632518579080707
 10
-18.754740023814136
 20
-7.803109866982359
 10
-18.413416206482275
 20
-7.944490821282174
 10
-18.06106906724147
 20
-8.055585447549774
 10
-17.70038018057433
 20
-8.135548248598502
 10
-17.334094606698375
 20
-8.183770659229504
 10
-16.96238159068533
 20
-8.200000000000001
 10
-2.128118409314668
 20
-8.200000000000001
 10
-2.1206728201154648
 20
-8.199674918555054
 10
-2.1158823779845815
 20
-8.199044244883975
 10
-2.111165131764523
 20
-8.197998456574616
 10
-2.106556982547366
 20
-8.196545512707473
 10
-2.102093001131108
 20
-8.194696471062677
 10
-2.0978071611097944
 20
-8.192465403963647
 10
-2.093732080313842
 20
-8.189869291178157
 10
-2.089898772568663
 20
-8.186927890692052
 10
-2.0863364116608674
 20
-8.183663588339138
 10
-2.0830721093079467
 20
-8.180101227431335
 10
-2.0801307088218497
 20
-8.176267919686167
 10
-2.0775345960363514
 20
-8.172192838890199
 10
-2.0753035289373223
 20
-8.16790699886889
 10
-2.073454487292529
 20
-8.163443017452638
 10
-2.0720015434253862
 20
-8.158834868235482
 10
-2.0709557551160245
 20
-8.154117622015415
 10
-2.0703250814449463
 20
-8.149327179884535
 10
-2.0700000000000003
 20
-8.141881590685342
 10
-2.0700000000000003
 20
-8.10288159068534
 10
-2.068989420475149
 20
-8.079735514180106
 10
-2.0656232764233096
 20
-8.054167111654321
 10
-2.060041508452849
 20
-8.028989383404495
 10
-2.0522865971883846
 20
-8.004393947145331
 10
-2.042417562187183
 20
-7.9805679889978975
 10
-2.030509512764691
 20
-7.957692838890201
 10
-2.016653076367289
 20
-7.9359425905269525
 10
-2.000953708842707
 20
-7.915482776431357
 10
-1.9835308918573449
 20
-7.896469108142658
 10
-1.9645172235686414
 20
-7.879046291157292
 10
-1.9440574094730492
 20
-7.863346923632712
 10
-1.9223071611097988
 20
-7.849490487235308
 10
-1.899432011002094
 20
-7.837582437812811
 10
-1.8756060528546614
 20
-7.827713402811613
 10
-1.851010616595501
 20
-7.8199584915471485
 10
-1.8258328883456738
 20
-7.814376723576689
 10
-1.8002644858199026
 20
-7.811010579524852
 10
-1.7771184093146482
 20
-7.81
 10
16.96238159068535
 20
-7.81
 10
17.30010386702678
 20
-7.795254726973725
 10
17.63265739128425
 20
-7.751473224923737
 10
17.960129639651484
 20
-7.678874375297039
 10
18.280028350585273
 20
-7.5780106991756675
 10
18.589918901735256
 20
-7.449649830038069
 10
18.887442838890202
 20
-7.2947686716047775
 10
19.17033582523846
 20
-7.114545963011282
 10
19.436444874338466
 20
-6.910353307891429
 10
19.683744735645565
 20
-6.6837447356455515
 10
19.910353307891416
 20
-6.436444874338482
 10
20.114545963011285
 20
-6.170335825238454
 10
20.294768671604775
 20
-5.887442838890202
 10
20.44964983003807
 20
-5.589918901735257
 10
20.578010699175664
 20
-5.280028350585271
 10
20.67887437529704
 20
-4.960129639651482
 10
20.75147322492374
 20
-4.632657391284234
 10
20.795254726973724
 20
-4.3001038670267855
 10
20.81
 20
-3.9623815906853705
 10
20.81
 20
3.9623815906853705
 10
20.795254726973724
 20
4.300103867026785
 10
20.75147322492374
 20
4.6326573912842335
 10
20.67887437529704
 20
4.9601296396514805
 10
20.578010699175664
 20
5.280028350585271
 10
20.44964983003807
 20
5.589918901735257
 10
20.294768671604775
 20
5.887442838890202
 10
20.11454596301128
 20
6.170335825238458
 10
19.91035330789142
 20
6.436444874338478
 10
19.683744735645565
 20
6.6837447356455515
 10
19.436444874338466
 20
6.9103533078914285
 10
19.17033582523846
 20
7.11454596301128
 10
18.887442838890205
 20
7.294768671604776
 10
18.589918901735267
 20
7.449649830038065
 10
18.280028350585265
 20
7.57801069917567
 10
17.960129639651488
 20
7.678874375297038
 10
17.63265739128425
 20
7.751473224923737
 10
17.30010386702678
 20
7.795254726973725
 10
16.96238159068535
 20
7.81
 10
-16.96238159068535
 20
7.81
 10
-17.300103867026777
 20
7.795254726973725
 10
-17.63265739128425
 20
7.751473224923737
 10
-17.96012963965148
 20
7.678874375297039
 10
-18.280028350585262
 20
7.57801069917567
 10
-18.589918901735263
 20
7.449649830038065
 10
-18.887442838890202
 20
7.2947686716047775
 10
-19.17033582523846
 20
7.114545963011281
 10
-19.43644487433847
 20
6.910353307891425
 10
-19.68374473564555
 20
6.683744735645561
 10
-19.91035330789142
 20
6.436444874338478
 10
-20.114545963011285
 20
6.170335825238455
 10
-20.294768671604775
 20
5.887442838890204
 10
-20.44964983003807
 20
5.589918901735258
 10
-20.578010699175664
 20
5.280028350585272
 10
-20.67887437529704
 20
4.960129639651483
 10
-20.75147322492374
 20
4.632657391284234
 10
-20.795254726973724
 20
4.3001038670267855
 10
-20.81
 20
3.9623815906853705
 10
-20.81
 20
-3.9623815906853705
 10
-20.795254726973724
 20
-4.300103867026785
 10
-20.75147322492374
 20
-4.6326573912842335
 10
-20.67887437529704
 20
-4.960129639651482
 10
-20.578010699175664
 20
-5.280028350585271
 10
-20.44964983003807
 20
-5.589918901735253
 10
-20.29476867160477
 20
-5.887442838890205
 10
-20.114545963011285
 20
-6.170335825238454
 10
-19.910353307891416
 20
-6.436444874338482
 10
-19.683744735645565
 20
-6.6837447356455515
 10
-19.436444874338466
 20
-6.9103533078914285
 10
-19.17033582523846
 20
-7.11454596301128
 10
-18.887442838890205
 20
-7.294768671604776
 10
-18.589918901735263
 20
-7.449649830038065
 10
-18.280028350585262
 20
-7.57801069917567
 10
-17.96012963965148
 20
-7.678874375297039
 10
-17.63265739128425
 20
-7.751473224923737
 10
-17.30010386702678
 20
-7.795254726973725
 10
-16.96238159068535
 20
-7.81
 10
-2.46
 20
-7.81
 10
-2.46
 20
-7.33
 10
-2.2199999999999998
 20
-7.33
 10
-2.2199999999999998
 20
-8.049999999999999
 10
-16.967618409314667
 20
-8.049999999999999
 10
-17.321041172962143
 20
-8.034569228893819
 10
-17.67437265761451
 20
-7.988052256463073
 10
-18.022305388011507
 20
-7.910917427175273
 10
-18.362191385987288
 20
-7.803751783656584
 10
-18.69144391386848
 20
-7.667370921162569
 10
-19.007557161109798
 20
-7.502812780405821
 10
-19.308125315025336
 20
-7.311329748200422
 10
-19.59086087047579
 20
-7.094379126042066
 10
-19.85361203916376
 20
-6.85361203916377
 10
-20.09437912604208
 20
-6.590860870475774
 10
-20.311329748200418
 20
-6.308125315025342
 10
-20.502812780405826
 20
-6.007557161109792
 10
-20.667370921162565
 20
-5.691443913868493
 10
-20.803751783656587
 20
-5.362191385987282
 10
-20.910917427175274
 20
-5.0223053880115085
 10
-20.988052256463067
 20
-4.674372657614523
 10
-21.034569228893815
 20
-4.321041172962143
 10
-21.05
 20
-3.9676184093146283
 10
-21.05
 20
3.9676184093146283
 10
-21.034569228893815
 20
4.321041172962144
 10
-20.988052256463067
 20
4.674372657614524
 10
-20.910917427175274
 20
5.022305388011509
 10
-20.803751783656587
 20
5.362191385987283
 10
-20.667370921162565
 20
5.69144391386849
 10
-20.502812780405822
 20
6.0075571611097995
 10
-20.311329748200418
 20
6.308125315025343
 10
-20.094379126042078
 20
6.5908608704757805
 10
-19.853612039163767
 20
6.85361203916376
 10
-19.590860870475787
 20
7.094379126042071
 10
-19.308125315025336
 20
7.311329748200423
 10
-19.007557161109794
 20
7.502812780405823
 10
-18.69144391386848
 20
7.667370921162569
 10
-18.362191385987288
 20
7.803751783656584
 10
-18.022305388011507
 20
7.910917427175273
 10
-17.67437265761451
 20
7.988052256463073
 10
-17.32104117296214
 20
8.034569228893819
 10
-16.967618409314667
 20
8.049999999999999
 10
16.967618409314667
 20
8.049999999999999
 10
17.321041172962143
 20
8.034569228893819
 10
17.67437265761451
 20
7.988052256463073
 10
18.022305388011507
 20
7.9109174271752725
 10
18.36219138598729
 20
7.803751783656584
 10
18.691443913868483
 20
7.667370921162569
 10
19.007557161109798
 20
7.502812780405821
 10
19.308125315025336
 20
7.311329748200422
 10
19.59086087047579
 20
7.094379126042066
 10
19.85361203916376
 20
6.85361203916377
 10
20.094379126042078
 20
6.590860870475779
 10
20.31132974820042
 20
6.308125315025335
 10
20.502812780405822
 20
6.007557161109798
 10
20.667370921162565
 20
5.691443913868489
 10
20.803751783656587
 20
5.3621913859872805
 10
20.910917427175274
 20
5.022305388011507
 10
20.988052256463067
 20
4.674372657614523
 10
21.034569228893815
 20
4.321041172962143
 10
21.05
 20
3.9676184093146283
 10
21.05
 20
-3.9676184093146283
 10
21.034569228893815
 20
-4.321041172962144
 10
20.988052256463067
 20
-4.674372657614524
 10
20.910917427175274
 20
-5.0223053880115085
 10
20.803751783656587
 20
-5.362191385987282
 10
20.667370921162565
 20
-5.691443913868489
 10
20.502812780405822
 20
-6.007557161109798
 10
20.311329748200418
 20
-6.308125315025342
 10
20.09437912604208
 20
-6.590860870475774
 10
19.85361203916376
 20
-6.85361203916377
 10
19.59086087047579
 20
-7.0943791260420666
 10
19.308125315025336
 20
-7.311329748200424
 10
19.007557161109794
 20
-7.502812780405823
 10
18.691443913868486
 20
-7.667370921162565
 10
18.362191385987284
 20
-7.803751783656587
 10
18.022305388011503
 20
-7.910917427175273
 10
17.67437265761451
 20
-7.988052256463073
 10
17.321041172962143
 20
-8.034569228893819
 10
16.967618409314667
 20
-8.049999999999999
 10
-1.7718815906853318
 20
-8.049999999999999
 10
-1.7793271798845356
 20
-8.050325081444946
 10
-1.7841176220154191
 20
-8.050955755116025
 10
-1.788834868235475
 20
-8.052001543425384
 10
-1.7934430174526426
 20
-8.05345448729253
 10
-1.7979069988688776
 20
-8.055303528937316
 10
-1.8021928388902093
 20
-8.057534596036357
 10
-1.806267919686173
 20
-8.060130708821854
 10
-1.8101012274313324
 20
-8.063072109307944
 10
-1.8136635883391372
 20
-8.066336411660865
 10
-1.8169278906920563
 20
-8.069898772568667
 10
-1.8198692911781473
 20
-8.073732080313828
 10
-1.822465403963648
 20
-8.0778071611098
 10
-1.8246964710626778
 20
-8.08209300113111
 10
-1.826545512707472
 20
-8.086556982547364
 10
-1.8279984565746148
 20
-8.09116513176452
 10
-1.8290442448839754
 20
-8.095882377984584
 10
-1.8296749185550543
 20
-8.100672820115467
 10
-1.83
 20
-8.108118409314653
 10
-1.83
 20
-8.147118409314654
 10
-1.8310105795248515
 20
-8.170264485819896
 10
-1.8343767235766903
 20
-8.195832888345677
 10
-1.8399584915471519
 20
-8.221010616595507
 10
-1.847713402811618
 20
-8.245606052854676
 10
-1.8575824378128136
 20
-8.269432011002095
 10
-1.8694904872353102
 20
-8.2923071611098
 10
-1.883346923632714
 20
-8.314057409473053
 10
-1.899046291157292
 20
-8.33451722356864
 10
-1.9164691081426541
 20
-8.353530891857341
 10
-1.9354827764313622
 20
-8.37095370884271
 10
-1.9559425905269412
 20
-8.38665307636728
 10
-1.9776928388902044
 20
-8.400509512764694
 10
-2.0005679889979078
 20
-8.412417562187187
 10
-2.0243939471453243
 20
-8.422286597188382
 10
-2.0489893834044923
 20
-8.430041508452849
 10
-2.074167111654326
 20
-8.43562327642331
 10
-2.0997355141801077
 20
-8.43898942047515
 10
-2.122881590685332
 20
-8.44
 10
-16.96761840931467
 20
-8.44
 10
-17.35503191263373
 20
-8.423085161149599
 10
-17.74209544690463
 20
-8.37212728013783
 10
-18.123244815601492
 20
-8.28762849942801
 10
-18.495579241884293
 20
-8.17023190576309
 10
-18.85626503594736
 20
-8.020830958106858
 10
-19.202557161109798
 20
-7.840562687881753
 10
-19.531820125202245
 20
-7.63079904547313
 10
-19.841548038253542
 20
-7.393136458858468
 10
-20.129383683826518
 20
-7.129383683826524
 10
-20.393136458858482
 20
-6.841548038253524
 10
-20.630799045473125
 20
-6.53182012520225
 10
-20.840562687881757
 20
-6.202557161109792
 10
-21.02083095810686
 20
-5.856265035947366
 10
-21.170231905763092
 20
-5.495579241884292
 10
-21.28762849942801
 20
-5.123244815601489
 10
-21.372127280137832
 20
-4.742095446904628
 10
-21.423085161149597
 20
-4.355031912633728
 10
-21.44
 20
-3.9676184093146274
 10
-21.44
 20
3.9676184093146274
 10
-21.423085161149597
 20
4.355031912633731
 10
-21.37212728013783
 20
4.742095446904626
 10
-21.28762849942801
 20
5.123244815601492
 10
-21.170231905763092
 20
5.495579241884292
 10
-21.02083095810686
 20
5.856265035947362
 10
-20.840562687881754
 20
6.2025571611098
 10
-20.630799045473125
 20
6.531820125202251
 10
-20.39313645885848
 20
6.841548038253531
 10
-20.12938368382652
 20
7.129383683826513
 10
-19.84154803825354
 20
7.393136458858472
 10
-19.531820125202245
 20
7.63079904547313
 10
-19.202557161109794
 20
7.840562687881754
 10
-18.85626503594736
 20
8.020830958106858
 10
-18.495579241884293
 20
8.17023190576309
 10
-18.123244815601492
 20
8.28762849942801
 10
-17.74209544690463
 20
8.37212728013783
 10
-17.355031912633727
 20
8.423085161149599
 10
-16.96761840931467
 20
8.44
 10
16.96761840931467
 20
8.44
 10
17.35503191263373
 20
8.423085161149599
 10
17.74209544690463
 20
8.37212728013783
 10
18.123244815601492
 20
8.28762849942801
 10
18.495579241884293
 20
8.170231905763092
 10
18.85626503594735
 20
8.020830958106865
 10
19.202557161109798
 20
7.840562687881753
 10
19.531820125202245
 20
7.63079904547313
 10
19.841548038253542
 20
7.393136458858468
 10
20.129383683826518
 20
7.129383683826523
 10
20.393136458858482
 20
6.841548038253524
 10
20.630799045473125
 20
6.531820125202249
 10
20.840562687881757
 20
6.202557161109793
 10
21.02083095810686
 20
5.856265035947366
 10
21.170231905763092
 20
5.4955792418842915
 10
21.28762849942801
 20
5.123244815601488
 10
21.372127280137832
 20
4.742095446904629
 10
21.423085161149597
 20
4.355031912633728
 10
21.44
 20
3.9676184093146274
 10
21.44
 20
-3.9676184093146274
 10
21.423085161149597
 20
-4.35503191263373
 10
21.37212728013783
 20
-4.742095446904626
 10
21.28762849942801
 20
-5.123244815601492
 10
21.170231905763092
 20
-5.495579241884292
 10
21.02083095810686
 20
-5.8562650359473665
 10
20.840562687881757
 20
-6.202557161109794
 10
20.630799045473125
 20
-6.53182012520225
 10
20.393136458858482
 20
-6.841548038253524
 10
20.129383683826518
 20
-7.129383683826524
 10
19.841548038253542
 20
-7.393136458858468
 10
19.531820125202238
 20
-7.630799045473136
 10
19.2025571611098
 20
-7.840562687881749
 10
18.85626503594735
 20
-8.020830958106865
 10
18.495579241884293
 20
-8.170231905763092
 10
18.123244815601492
 20
-8.28762849942801
 10
17.74209544690463
 20
-8.37212728013783
 10
17.355031912633727
 20
-8.423085161149599
 10
16.96761840931467
 20
-8.44
 10
-1.3818815906853317
 20
-8.44
 10
-1.3893271798845355
 20
-8.440325081444946
 10
-1.394117622015419
 20
-8.440955755116025
 10
-1.398834868235475
 20
-8.442001543425384
 10
-1.4034430174526362
 20
-8.443454487292529
 10
-1.4079069988688921
 20
-8.445303528937323
 10
-1.4121928388901985
 20
-8.44753459603635
 10
-1.4162679196861652
 20
-8.450130708821849
 10
-1.4201012274313374
 20
-8.453072109307948
 10
-1.4236635883391382
 20
-8.456336411660867
 10
-1.4269278906920495
 20
-8.45989877256866
 10
-1.4298692911781499
 20
-8.463732080313834
 10
-1.432465403963648
 20
-8.4678071611098
 10
-1.4346964710626777
 20
-8.47209300113111
 10
-1.4365455127074718
 20
-8.476556982547365
 10
-1.4379984565746147
 20
-8.48116513176452
 10
-1.4390442448839753
 20
-8.485882377984584
 10
-1.4396749185550541
 20
-8.490672820115467
 10
-1.44
 20
-8.498118409314653
 10
-1.44
 20
-8.537118409314655
 10
-1.4410105795248513
 20
-8.560264485819896
 10
-1.4443767235766902
 20
-8.585832888345678
 10
-1.4499584915471517
 20
-8.611010616595507
 10
-1.4577134028116179
 20
-8.635606052854676
 10
-1.4675824378128135
 20
-8.659432011002096
 10
-1.47949048723531
 20
-8.6823071611098
 10
-1.493346923632714
 20
-8.704057409473053
 10
-1.5090462911572882
 20
-8.724517223568636
 10
-1.5264691081426598
 20
-8.743530891857347
 10
-1.545482776431362
 20
-8.760953708842711
 10
-1.5659425905269477
 20
-8.776653076367285
 10
-1.5876928388901985
 20
-8.790509512764691
 10
-1.6105679889979068
 20
-8.802417562187188
 10
-1.6343939471453266
 20
-8.812286597188384
 10
-1.65898938340449
 20
-8.82004150845285
 10
-1.6841671116543264
 20
-8.825623276423311
 10
-1.7097355141801076
 20
-8.82898942047515
 10
-1.7328815906853317
 20
-8.83
 10
-16.967618409314667
 20
-8.83
 10
-17.389022652305314
 20
-8.81160109340538
 10
-17.809818236194733
 20
-8.756202303812593
 10
-18.224184243191473
 20
-8.664339571680749
 10
-18.628967097781302
 20
-8.536712027869596
 10
-19.021086158026232
 20
-8.374290995051153
 10
-19.3975571611098
 20
-8.178312595357685
 10
-19.755514935379153
 20
-7.950268342745837
 10
-20.09223520603129
 20
-7.69189379167487
 10
-20.40515532848927
 20
-7.405155328489278
 10
-20.691893791674882
 20
-7.092235206031276
 10
-20.950268342745833
 20
-6.755514935379159
 10
-21.178312595357685
 20
-6.3975571611097966
 10
-21.374290995051155
 20
-6.021086158026232
 10
-21.536712027869594
 20
-5.628967097781308
 10
-21.66433957168075
 20
-5.224184243191475
 10
-21.756202303812593
 20
-4.8098182361947295
 10
-21.81160109340538
 20
-4.389022652305315
 10
-21.830000000000002
 20
-3.9676184093146283
 10
-21.830000000000002
 20
3.967618409314628
 10
-21.81160109340538
 20
4.389022652305318
 10
-21.75620230381259
 20
4.8098182361947295
 10
-21.664339571680745
 20
5.224184243191476
 10
-21.536712027869594
 20
5.628967097781304
 10
-21.37429099505115
 20
6.021086158026236
 10
-21.178312595357685
 20
6.397557161109799
 10
-20.95026834274583
 20
6.755514935379165
 10
-20.691893791674886
 20
7.092235206031272
 10
-20.405155328489265
 20
7.405155328489278
 10
-20.09223520603129
 20
7.69189379167487
 10
-19.75551493537915
 20
7.950268342745837
 10
-19.397557161109813
 20
8.178312595357674
 10
-19.02108615802622
 20
8.37429099505116
 10
-18.628967097781302
 20
8.536712027869596
 10
-18.224184243191473
 20
8.664339571680749
 10
-17.809818236194733
 20
8.756202303812593
 10
-17.389022652305314
 20
8.81160109340538
 10
-16.967618409314667
 20
8.83
 10
16.967618409314667
 20
8.83
 10
17.389022652305318
 20
8.81160109340538
 10
17.809818236194715
 20
8.756202303812595
 10
18.224184243191495
 20
8.664339571680742
 10
18.628967097781306
 20
8.536712027869596
 10
19.021086158026236
 20
8.374290995051151
 10
19.3975571611098
 20
8.178312595357685
 10
19.755514935379153
 20
7.950268342745837
 10
20.09223520603129
 20
7.69189379167487
 10
20.40515532848927
 20
7.405155328489277
 10
20.691893791674886
 20
7.092235206031275
 10
20.950268342745833
 20
6.755514935379158
 10
21.178312595357685
 20
6.397557161109797
 10
21.374290995051155
 20
6.021086158026232
 10
21.536712027869594
 20
5.628967097781308
 10
21.66433957168075
 20
5.224184243191474
 10
21.756202303812593
 20
4.8098182361947295
 10
21.81160109340538
 20
4.389022652305315
 10
21.830000000000002
 20
3.9676184093146283
 10
21.830000000000002
 20
-3.967618409314628
 10
21.81160109340538
 20
-4.389022652305318
 10
21.75620230381259
 20
-4.80981823619473
 10
21.664339571680745
 20
-5.224184243191475
 10
21.536712027869594
 20
-5.628967097781304
 10
21.37429099505115
 20
-6.021086158026235
 10
21.178312595357685
 20
-6.397557161109797
 10
20.950268342745833
 20
-6.755514935379159
 10
20.691893791674882
 20
-7.092235206031276
 10
20.405155328489265
 20
-7.405155328489278
 10
20.09223520603129
 20
-7.69189379167487
 10
19.75551493537915
 20
-7.950268342745837
 10
19.397557161109813
 20
-8.178312595357674
 10
19.02108615802622
 20
-8.37429099505116
 10
18.628967097781302
 20
-8.536712027869596
 10
18.224184243191473
 20
-8.664339571680749
 10
17.809818236194733
 20
-8.756202303812593
 10
17.389022652305314
 20
-8.81160109340538
 10
16.967618409314667
 20
-8.83
 10
-0.9918815906853317
 20
-8.83
 10
-0.9993271798845352
 20
-8.830325081444947
 10
-1.0041176220154189
 20
-8.830955755116026
 10
-1.0088348682354749
 20
-8.832001543425385
 10
-1.013443017452636
 20
-8.83345448729253
 10
-1.017906998868892
 20
-8.835303528937324
 10
-1.0221928388901984
 20
-8.83753459603635
 10
-1.026267919686165
 20
-8.84013070882185
 10
-1.0301012274313373
 20
-8.843072109307949
 10
-1.033663588339138
 20
-8.846336411660868
 10
-1.0369278906920494
 20
-8.849898772568661
 10
-1.0398692911781497
 20
-8.853732080313835
 10
-1.0424654039636478
 20
-8.8578071611098
 10
-1.0446964710626776
 20
-8.862093001131111
 10
-1.0465455127074716
 20
-8.866556982547365
 10
-1.0479984565746145
 20
-8.87116513176452
 10
-1.0490442448839752
 20
-8.875882377984585
 10
-1.049674918555054
 20
-8.880672820115468
 10
-1.05
 20
-8.888118409314659
 10
-1.05
 20
-8.927118409314659
 10
-1.0510105795248512
 20
-8.950264485819895
 10
-1.05437672357669
 20
-8.975832888345677
 10
-1.0599584915471516
 20
-9.001010616595506
 10
-1.0677134028116178
 20
-9.025606052854675
 10
-1.0775824378128134
 20
-9.049432011002095
 10
-1.08949048723531
 20
-9.0723071611098
 10
-1.1033469236327138
 20
-9.094057409473052
 10
-1.119046291157288
 20
-9.114517223568635
 10
-1.1364691081426597
 20
-9.133530891857346
 10
-1.1554827764313618
 20
-9.15095370884271
 10
-1.1759425905269476
 20
-9.166653076367284
 10
-1.1976928388901984
 20
-9.18050951276469
 10
-1.2205679889979066
 20
-9.192417562187186
 10
-1.2443939471453265
 20
-9.202286597188383
 10
-1.2689893834044899
 20
-9.210041508452848
 10
-1.2941671116543263
 20
-9.21562327642331
 10
-1.3197355141801075
 20
-9.218989420475149
 10
-1.3428815906853315
 20
-9.219999999999999
 10
-16.967618409314667
 20
-9.219999999999999
 10
-17.4230133919769
 20
-9.20011702566116
 10
-17.877541025484835
 20
-9.140277327487354
 10
-18.32512367078146
 20
-9.041050643933485
 10
-18.76235495367832
 20
-8.903192149976098
 10
-19.185907280105095
 20
-8.727751031995453
 10
-19.592557161109816
 20
-8.516062502833606
 10
-19.979209745556055
 20
-8.26973764001855
 10
-20.342922373809042
 20
-7.990651124491272
 10
-20.680926973152022
 20
-7.680926973152031
 10
-20.99065112449127
 20
-7.342922373809046
 10
-21.26973764001856
 20
-6.9792097455560445
 10
-21.51606250283362
 20
-6.592557161109799
 10
-21.72775103199545
 20
-6.185907280105108
 10
-21.903192149976103
 20
-5.762354953678313
 10
-22.041050643933488
 20
-5.325123670781456
 10
-22.140277327487357
 20
-4.877541025484836
 10
-22.200117025661164
 20
-4.423013391976901
 10
-22.220000000000002
 20
-3.9676184093146256
 10
-22.220000000000002
 20
3.9676184093146256
 10
-22.200117025661164
 20
4.4230133919769035
 10
-22.140277327487357
 20
4.877541025484834
 10
-22.041050643933488
 20
5.325123670781454
 10
-21.903192149976103
 20
5.762354953678314
 10
-21.72775103199545
 20
6.185907280105108
 10
-21.516062502833616
 20
6.592557161109804
 10
-21.269737640018544
 20
6.979209745556063
 10
-20.990651124491286
 20
7.342922373809026
 10
-20.680926973152022
 20
7.68092697315203
 10
-20.342922373809042
 20
7.990651124491272
 10
-19.979209745556055
 20
8.269737640018551
 10
-19.592557161109813
 20
8.516062502833606
 10
-19.185907280105095
 20
8.727751031995453
 10
-18.762354953678315
 20
8.903192149976102
 10
-18.32512367078146
 20
9.041050643933485
 10
-17.877541025484838
 20
9.140277327487354
 10
-17.4230133919769
 20
9.20011702566116
 10
-16.967618409314667
 20
9.219999999999999
 10
16.967618409314667
 20
9.219999999999999
 10
17.4230133919769
 20
9.20011702566116
 10
17.877541025484838
 20
9.140277327487354
 10
18.32512367078146
 20
9.041050643933485
 10
18.762354953678315
 20
8.903192149976102
 10
19.185907280105095
 20
8.727751031995453
 10
19.592557161109816
 20
8.516062502833606
 10
19.979209745556055
 20
8.26973764001855
 10
20.342922373809042
 20
7.99065112449127
 10
20.680926973152022
 20
7.680926973152031
 10
20.99065112449127
 20
7.342922373809046
 10
21.26973764001856
 20
6.9792097455560445
 10
21.51606250283362
 20
6.592557161109797
 10
21.72775103199545
 20
6.185907280105108
 10
21.903192149976103
 20
5.762354953678314
 10
22.041050643933488
 20
5.325123670781455
 10
22.140277327487357
 20
4.877541025484834
 10
22.200117025661164
 20
4.423013391976903
 10
22.220000000000002
 20
3.9676184093146256
 10
22.220000000000002
 20
-3.9676184093146256
 10
22.200117025661164
 20
-4.423013391976902
 10
22.140277327487357
 20
-4.877541025484833
 10
22.041050643933488
 20
-5.325123670781455
 10
21.903192149976103
 20
-5.762354953678315
 10
21.72775103199545
 20
-6.1859072801051065
 10
21.51606250283362
 20
-6.592557161109797
 10
21.26973764001856
 20
-6.979209745556045
 10
20.99065112449127
 20
-7.342922373809046
 10
20.680926973152022
 20
-7.680926973152031
 10
20.342922373809042
 20
-7.99065112449127
 10
19.979209745556055
 20
-8.26973764001855
 10
19.592557161109816
 20
-8.516062502833606
 10
19.185907280105095
 20
-8.727751031995453
 10
18.762354953678315
 20
-8.903192149976102
 10
18.32512367078146
 20
-9.041050643933485
 10
17.877541025484838
 20
-9.140277327487354
 10
17.4230133919769
 20
-9.20011702566116
 10
16.967618409314667
 20
-9.219999999999999
 10
-0.6018815906853319
 20
-9.219999999999999
 10
-0.6093271798845351
 20
-9.220325081444946
 10
-0.6141176220154186
 20
-9.220955755116025
 10
-0.6188348682354773
 20
-9.222001543425383
 10
-0.623443017452633
 20
-9.223454487292527
 10
-0.6279069988688936
 20
-9.225303528937323
 10
-0.632192838890196
 20
-9.22753459603635
 10
-0.6362679196861698
 20
-9.230130708821852
 10
-0.6401012274313329
 20
-9.233072109307944
 10
-0.6436635883391316
 20
-9.236336411660862
 10
-0.6469278906920586
 20
-9.23989877256867
 10
-0.6498692911781484
 20
-9.24373208031383
 10
-0.6524654039636465
 20
-9.247807161109797
 10
-0.654696471062679
 20
-9.252093001131112
 10
-0.6565455127074714
 20
-9.256556982547362
 10
-0.6579984565746146
 20
-9.26116513176452
 10
-0.6590442448839753
 20
-9.265882377984584
 10
-0.6596749185550539
 20
-9.270672820115465
 10
-0.66
 20
-9.278118409314658
 10
-0.66
 20
-9.31711840931466
 10
-0.6610105795248511
 20
-9.340264485819894
 10
-0.6643767235766902
 20
-9.365832888345677
 10
-0.6699584915471517
 20
-9.391010616595507
 10
-0.6777134028116175
 20
-9.415606052854674
 10
-0.6875824378128137
 20
-9.439432011002095
 10
-0.6994904872353124
 20
-9.462307161109806
 10
-0.7133469236327095
 20
-9.484057409473046
 10
-0.7290462911572972
 20
-9.504517223568646
 10
-0.7464691081426534
 20
-9.523530891857341
 10
-0.7654827764313574
 20
-9.540953708842707
 10
-0.7859425905269526
 20
-9.556653076367288
 10
-0.8076928388901973
 20
-9.57050951276469
 10
-0.8305679889979053
 20
-9.582417562187187
 10
-0.8543939471453244
 20
-9.592286597188382
 10
-0.8789893834044925
 20
-9.600041508452849
 10
-0.9041671116543261
 20
-9.60562327642331
 10
-0.929735514180107
 20
-9.60898942047515
 10
-0.9528815906853318
 20
-9.61
 10
-16.967618409314667
 20
-9.61
 10
-17.457004131648485
 20
-9.588632957916941
 10
-17.945263814774915
 20
-9.524352351162117
 10
-18.426063098371454
 20
-9.417761716186215
 10
-18.89574280957532
 20
-9.269672272082605
 10
-19.35072840218396
 20
-9.081211068939748
 10
-19.787557161109813
 20
-8.853812410309535
 10
-20.20290455573296
 20
-8.589206937291253
 10
-20.59360954158679
 20
-8.289408457307673
 10
-20.956698617814776
 20
-7.956698617814778
 10
-21.289408457307683
 20
-7.593609541586775
 10
-21.58920693729124
 20
-7.202904555732974
 10
-21.853812410309548
 20
-6.787557161109793
 10
-22.081211068939737
 20
-6.350728402183984
 10
-22.2696722720826
 20
-5.895742809575324
 10
-22.417761716186217
 20
-5.426063098371438
 10
-22.52435235116211
 20
-4.945263814774936
 10
-22.588632957916936
 20
-4.457004131648487
 10
-22.61
 20
-3.9676184093146283
 10
-22.61
 20
3.9676184093146283
 10
-22.588632957916936
 20
4.457004131648489
 10
-22.52435235116211
 20
4.945263814774938
 10
-22.417761716186217
 20
5.42606309837144
 10
-22.269672272082598
 20
5.89574280957533
 10
-22.081211068939737
 20
6.350728402183977
 10
-21.85381241030954
 20
6.787557161109804
 10
-21.589206937291245
 20
7.202904555732972
 10
-21.289408457307683
 20
7.593609541586776
 10
-20.956698617814776
 20
7.956698617814778
 10
-20.59360954158679
 20
8.289408457307673
 10
-20.202904555732957
 20
8.589206937291253
 10
-19.78755716110981
 20
8.853812410309537
 10
-19.35072840218396
 20
9.081211068939748
 10
-18.89574280957532
 20
9.269672272082605
 10
-18.426063098371454
 20
9.417761716186215
 10
-17.945263814774915
 20
9.524352351162117
 10
-17.457004131648485
 20
9.588632957916941
 10
-16.967618409314667
 20
9.61
 10
16.967618409314667
 20
9.61
 10
17.457004131648485
 20
9.588632957916941
 10
17.94526381477492
 20
9.524352351162117
 10
18.426063098371458
 20
9.417761716186215
 10
18.895742809575324
 20
9.269672272082603
 10
19.35072840218398
 20
9.081211068939737
 10
19.78755716110978
 20
8.853812410309555
 10
20.20290455573297
 20
8.589206937291245
 10
20.59360954158679
 20
8.289408457307673
 10
20.956698617814776
 20
7.956698617814778
 10
21.289408457307683
 20
7.593609541586775
 10
21.589206937291245
 20
7.202904555732973
 10
21.853812410309548
 20
6.787557161109793
 10
22.081211068939737
 20
6.350728402183984
 10
22.2696722720826
 20
5.8957428095753235
 10
22.417761716186217
 20
5.426063098371437
 10
22.52435235116211
 20
4.945263814774937
 10
22.588632957916936
 20
4.457004131648488
 10
22.61
 20
3.9676184093146283
 10
22.61
 20
-3.9676184093146283
 10
22.588632957916936
 20
-4.457004131648488
 10
22.52435235116211
 20
-4.945263814774938
 10
22.417761716186217
 20
-5.426063098371439
 10
22.269672272082598
 20
-5.89574280957533
 10
22.081211068939737
 20
-6.350728402183976
 10
21.85381241030954
 20
-6.7875571611098025
 10
21.589206937291245
 20
-7.20290455573297
 10
21.289408457307683
 20
-7.593609541586775
 10
20.956698617814776
 20
-7.956698617814778
 10
20.59360954158679
 20
-8.289408457307673
 10
20.202904555732957
 20
-8.589206937291255
 10
19.78755716110981
 20
-8.853812410309537
 10
19.35072840218396
 20
-9.081211068939746
 10
18.89574280957532
 20
-9.269672272082605
 10
18.426063098371454
 20
-9.417761716186215
 10
17.945263814774915
 20
-9.524352351162117
 10
17.457004131648485
 20
-9.588632957916941
 10
16.967618409314667
 20
-9.61
 10
-0.21188159068533172
 20
-9.61
 10
-0.21932717988453526
 20
-9.610325081444946
 10
-0.22411762201541857
 20
-9.610955755116025
 10
-0.22883486823547705
 20
-9.612001543425384
 10
-0.2334430174526337
 20
-9.613454487292527
 10
-0.2379069988688928
 20
-9.615303528937323
 10
-0.24219283889019613
 20
-9.61753459603635
 10
-0.2462679196861669
 20
-9.62013070882185
 10
-0.2501012274313377
 20
-9.623072109307948
 10
-0.25366358833912805
 20
-9.626336411660859
 10
-0.25692789069205985
 20
-9.629898772568673
 10
-0.2598692911781481
 20
-9.63373208031383
 10
-0.26246540396364615
 20
-9.637807161109798
 10
-0.2646964710626798
 20
-9.642093001131114
 10
-0.2665455127074711
 20
-9.646556982547363
 10
-0.26799845657461463
 20
-9.65116513176452
 10
-0.2690442448839751
 20
-9.655882377984582
 10
-0.26967491855505393
 20
-9.660672820115467
 10
-0.27
 20
-9.668118409314658
 10
-0.27
 20
-9.70711840931466
 10
-0.2710105795248511
 20
-9.730264485819895
 10
-0.27437672357669035
 20
-9.755832888345678
 10
-0.27995849154715097
 20
-9.781010616595506
 10
-0.28771340281161806
 20
-9.805606052854676
 10
-0.2975824378128145
 20
-9.829432011002098
 10
-0.30949048723531014
 20
-9.852307161109803
 10
-0.32334692363271045
 20
-9.874057409473048
 10
-0.3390462911572975
 20
-9.894517223568647
 10
-0.35646910814265137
 20
-9.91353089185734
 10
-0.3754827764313615
 20
-9.930953708842711
 10
-0.3959425905269509
 20
-9.946653076367287
 10
-0.41769283889019715
 20
-9.960509512764691
 10
-0.440567988997906
 20
-9.972417562187188
 10
-0.4643939471453243
 20
-9.982286597188383
 10
-0.488989383404493
 20
-9.99004150845285
 10
-0.5141671116543263
 20
-9.995623276423311
 10
-0.5397355141801071
 20
-9.99898942047515
 10
-0.562881590685332
 20
-10.0
 10
-16.967618409314664
 20
-10.0
 10
-17.490994871320073
 20
-9.977148890172723
 10
-18.012986604065038
 20
-9.908427374836874
 10
-18.527002525961414
 20
-9.794472788438956
 10
-19.02913066547233
 20
-9.63615239418911
 10
-19.515549524262834
 20
-9.43467110588404
 10
-19.982557161109813
 20
-9.191562317785465
 10
-20.426599365909865
 20
-8.908676234563961
 10
-20.84429670936454
 20
-8.588165790124073
 10
-21.23247026247753
 20
-8.232470262477534
 10
-21.588165790124084
 20
-7.844296709364526
 10
-21.90867623456395
 20
-7.426599365909882
 10
-22.191562317785475
 20
-6.982557161109795
 10
-22.434671105884032
 20
-6.515549524262848
 10
-22.636152394189104
 20
-6.0291306654723416
 10
-22.794472788438952
 20
-5.527002525961419
 10
-22.908427374836872
 20
-5.0129866040650395
 10
-22.977148890172717
 20
-4.4909948713200745
 10
-23.0
 20
-3.967618409314629
 10
-23.0
 20
3.967618409314629
 10
-22.977148890172717
 20
4.490994871320075
 10
-22.908427374836872
 20
5.01298660406504
 10
-22.794472788438952
 20
5.527002525961421
 10
-22.636152394189104
 20
6.029130665472343
 10
-22.434671105884032
 20
6.515549524262849
 10
-22.191562317785475
 20
6.982557161109798
 10
-21.90867623456395
 20
7.426599365909884
 10
-21.588165790124084
 20
7.844296709364527
 10
-21.23247026247753
 20
8.232470262477534
 10
-20.84429670936454
 20
8.588165790124073
 10
-20.426599365909865
 20
8.908676234563961
 10
-19.982557161109792
 20
9.191562317785479
 10
-19.51554952426285
 20
9.434671105884032
 10
-19.029130665472334
 20
9.63615239418911
 10
-18.527002525961414
 20
9.794472788438956
 10
-18.012986604065038
 20
9.908427374836874
 10
-17.490994871320073
 20
9.977148890172723
 10
-16.967618409314664
 20
10.0
 10
16.967618409314664
 20
10.0
 10
17.490994871320073
 20
9.977148890172723
 10
18.01298660406504
 20
9.908427374836874
 10
18.52700252596142
 20
9.794472788438956
 10
19.029130665472334
 20
9.636152394189109
 10
19.51554952426285
 20
9.434671105884032
 10
19.982557161109792
 20
9.191562317785479
 10
20.426599365909865
 20
8.908676234563961
 10
20.84429670936454
 20
8.588165790124073
 10
21.23247026247753
 20
8.232470262477534
 10
21.588165790124084
 20
7.844296709364526
 10
21.90867623456395
 20
7.4265993659098815
 10
22.191562317785475
 20
6.982557161109797
 10
22.434671105884032
 20
6.515549524262849
 10
22.636152394189104
 20
6.029130665472342
 10
22.794472788438952
 20
5.527002525961419
 10
22.908427374836872
 20
5.012986604065041
 10
22.977148890172717
 20
4.490994871320075
 10
23.0
 20
3.967618409314629
 10
23.0
 20
-3.967618409314629
 10
22.977148890172717
 20
-4.4909948713200745
 10
22.908427374836872
 20
-5.012986604065041
 10
22.794472788438952
 20
-5.52700252596142
 10
22.636152394189104
 20
-6.029130665472342
 10
22.434671105884032
 20
-6.515549524262849
 10
22.191562317785475
 20
-6.982557161109797
 10
21.90867623456395
 20
-7.426599365909883
 10
21.588165790124084
 20
-7.844296709364526
 10
21.23247026247753
 20
-8.232470262477534
 10
20.84429670936454
 20
-8.588165790124073
 10
20.426599365909865
 20
-8.908676234563961
 10
19.982557161109792
 20
-9.191562317785479
 10
19.51554952426285
 20
-9.434671105884032
 10
19.029130665472334
 20
-9.636152394189109
 10
18.527002525961414
 20
-9.794472788438956
 10
18.01298660406502
 20
-9.908427374836876
 10
17.490994871320073
 20
-9.977148890172723
 10
16.967618409314664
 20
-10.0
 10
0.12
 20
-10.0
 10
0.12
 20
-12.0
 10
-0.12
 20
-12.0
 10
-0.12
 20
-9.760000000000002
 97
0
 75
0
 76
1
 98
0
  0
LWPOLYLINE
  5
97
330
17
100
AcDbEntity
  8
ANT_PADS
100
AcDbPolyline
 90
4
 70
1
 10
-0.6
 20
-12.6
 10
0.6
 20
-12.6
 10
0.6
 20
-11.4
 10
-0.6
 20
-11.4
  0
LWPOLYLINE
  5
98
330
17
100
AcDbEntity
  8
ANT_PADS
100
AcDbPolyline
 90
4
 70
1
 10
-2.6
 20
-12.6
 10
-1.4
 20
-12.6
 10
-1.4
 20
-11.4
 10
-2.6
 20
-11.4
  0
CIRCLE
  5
99
330
17
100
AcDbEntity
  8
ANT_VIA
100
AcDbCircle
 10
-2.34
 20
-7.33
 30
0.0
 40
0.45
  0
CIRCLE
  5
9A
330
17
100
AcDbEntity
  8
ANT_VIA
100
AcDbCircle
 10
-2.34
 20
-7.33
 30
0.0
 40
0.2
  0
LWPOLYLINE
  5
9B
330
17
100
AcDbEntity
  8
ANT_KEEPOUT
100
AcDbPolyline
 90
4
 70
1
 10
-23.0
 20
-10.0
 10
23.0
 20
-10.0
 10
23.0
 20
10.0
 10
-23.0
 20
10.0
  0
LWPOLYLINE
  5
9C
330
17
100
AcDbEntity
  8
BOARD_OUTLINE
100
AcDbPolyline
 90
4
 70
1
 10
-24.5
 20
-14.1
 10
24.5
 20
-14.1
 10
24.5
 20
11.5
 10
-24.5
 20
11.5
  0
TEXT
  5
9D
330
17
100
AcDbEntity
  8
ANT_INFO
100
AcDbText
 10
-23.0
 20
21.799999999999997
 30
0.0
 40
0.9
  1
NFC SPIRAL ANTENNA  (rrect)
 11
-23.0
 21
21.799999999999997
 31
0.0
100
AcDbText
  0
TEXT
  5
9E
330
17
100
AcDbEntity
  8
ANT_INFO
100
AcDbText
 10
-23.0
 20
20.4
 30
0.0
 40
0.9
  1
outer 46 x 20 mm   turns 6
 11
-23.0
 21
20.4
 31
0.0
100
AcDbText
  0
TEXT
  5
9F
330
17
100
AcDbEntity
  8
ANT_INFO
100
AcDbText
 10
-23.0
 20
19.0
 30
0.0
 40
0.9
  1
trace 0.24 mm   gap 0.15 mm   Cu 35 um
 11
-23.0
 21
19.0
 31
0.0
100
AcDbText
  0
TEXT
  5
A0
330
17
100
AcDbEntity
  8
ANT_INFO
100
AcDbText
 10
-23.0
 20
17.6
 30
0.0
 40
0.9
  1
L = 2.783 uH  (greenhouse; Mohan check 2.559 uH)
 11
-23.0
 21
17.6
 31
0.0
100
AcDbText
  0
TEXT
  5
A1
330
17
100
AcDbEntity
  8
ANT_INFO
100
AcDbText
 10
-23.0
 20
16.2
 30
0.0
 40
0.9
  1
Rdc 1.427 ohm   Rac 2.059 ohm   Q 115.1 @ 13.56 MHz
 11
-23.0
 21
16.2
 31
0.0
100
AcDbText
  0
TEXT
  5
A2
330
17
100
AcDbEntity
  8
ANT_INFO
100
AcDbText
 10
-23.0
 20
14.8
 30
0.0
 40
0.9
  1
C for resonance = 49.5 pF   conductor 695.1 mm
 11
-23.0
 21
14.8
 31
0.0
100
AcDbText
  0
TEXT
  5
A3
330
17
100
AcDbEntity
  8
ANT_INFO
100
AcDbText
 10
-23.0
 20
13.4
 30
0.0
 40
0.9
  1
units: MILLIMETRES
 11
-23.0
 21
13.4
 31
0.0
100
AcDbText
  0
ENDSEC
  0
SECTION
  2
OBJECTS
  0
DICTIONARY
  5
A
330
0
100
AcDbDictionary
281
1
  3
ACAD_COLOR
350
B
  3
ACAD_GROUP
350
C
  3
ACAD_LAYOUT
350
D
  3
ACAD_MATERIAL
350
E
  3
ACAD_MLEADERSTYLE
350
F
  3
ACAD_MLINESTYLE
350
10
  3
ACAD_PLOTSETTINGS
350
11
  3
ACAD_PLOTSTYLENAME
350
12
  3
ACAD_SCALELIST
350
14
  3
ACAD_TABLESTYLE
350
15
  3
ACAD_VISUALSTYLE
350
16
  3
EZDXF_META
350
2D
  0
DICTIONARY
  5
B
330
A
100
AcDbDictionary
281
1
  0
DICTIONARY
  5
C
330
A
100
AcDbDictionary
281
1
  0
DICTIONARY
  5
D
330
A
100
AcDbDictionary
281
1
  3
Model
350
1A
  3
Layout1
350
1E
  0
DICTIONARY
  5
E
330
A
100
AcDbDictionary
281
1
  3
ByBlock
350
1F
  3
ByLayer
350
20
  3
Global
350
21
  0
DICTIONARY
  5
F
330
A
100
AcDbDictionary
281
1
  3
Standard
350
2C
  0
DICTIONARY
  5
10
330
A
100
AcDbDictionary
281
1
  3
Standard
350
22
  0
DICTIONARY
  5
11
330
A
100
AcDbDictionary
281
1
  0
ACDBDICTIONARYWDFLT
  5
12
330
A
100
AcDbDictionary
281
1
  3
Normal
350
13
100
AcDbDictionaryWithDefault
340
13
  0
ACDBPLACEHOLDER
  5
13
330
12
  0
DICTIONARY
  5
14
330
A
100
AcDbDictionary
281
1
  0
DICTIONARY
  5
15
330
A
100
AcDbDictionary
281
1
  0
DICTIONARY
  5
16
330
A
100
AcDbDictionary
281
1
  3
2dWireframe
350
5A
  3
Basic
350
5B
  3
Brighten
350
5C
  3
ColorChange
350
5D
  3
Conceptual
350
5E
  3
Dim
350
5F
  3
EdgeColorOff
350
60
  3
Facepattern
350
61
  3
Flat
350
62
  3
FlatWithEdges
350
63
  3
Gouraud
350
64
  3
GouraudWithEdges
350
65
  3
Hidden
350
66
  3
JitterOff
350
67
  3
Linepattern
350
68
  3
Modeling
350
69
  3
OverhangOff
350
6A
  3
Realistic
350
6B
  3
Shaded
350
6C
  3
Shaded with edges
350
6D
  3
Shades of Gray
350
6E
  3
Sketchy
350
6F
  3
Thicken
350
70
  3
Wireframe
350
71
  3
X-Ray
350
72
  0
LAYOUT
  5
1A
330
D
100
AcDbPlotSettings
  1

  4
A3
  6

 40
7.5
 41
20.0
 42
7.5
 43
20.0
 44
420.0
 45
297.0
 46
0.0
 47
0.0
 48
0.0
 49
0.0
140
0.0
141
0.0
142
1.0
143
1.0
 70
1024
 72
1
 73
0
 74
5
  7

 75
16
 76
0
 77
2
 78
300
147
1.0
148
0.0
149
0.0
100
AcDbLayout
  1
Model
 70
1
 71
0
 10
0.0
 20
0.0
 11
420.0
 21
297.0
 12
0.0
 22
0.0
 32
0.0
 14
1e+20
 24
1e+20
 34
1e+20
 15
-1e+20
 25
-1e+20
 35
-1e+20
146
0.0
 13
0.0
 23
0.0
 33
0.0
 16
1.0
 26
0.0
 36
0.0
 17
0.0
 27
1.0
 37
0.0
 76
1
330
17
  0
LAYOUT
  5
1E
330
D
100
AcDbPlotSettings
  1

  4
A3
  6

 40
7.5
 41
20.0
 42
7.5
 43
20.0
 44
420.0
 45
297.0
 46
0.0
 47
0.0
 48
0.0
 49
0.0
140
0.0
141
0.0
142
1.0
143
1.0
 70
0
 72
1
 73
0
 74
5
  7

 75
16
 76
0
 77
2
 78
300
147
1.0
148
0.0
149
0.0
100
AcDbLayout
  1
Layout1
 70
1
 71
1
 10
0.0
 20
0.0
 11
420.0
 21
297.0
 12
0.0
 22
0.0
 32
0.0
 14
1e+20
 24
1e+20
 34
1e+20
 15
-1e+20
 25
-1e+20
 35
-1e+20
146
0.0
 13
0.0
 23
0.0
 33
0.0
 16
1.0
 26
0.0
 36
0.0
 17
0.0
 27
1.0
 37
0.0
 76
1
330
1B
  0
MATERIAL
  5
1F
102
{ACAD_REACTORS
330
E
102
}
330
E
100
AcDbMaterial
  1
ByBlock
  2

 70
0
 40
1.0
 71
1
 41
1.0
 91
-1023410177
 42
1.0
 72
1
  3

 73
1
 74
1
 75
1
 44
0.5
 73
0
 45
1.0
 46
1.0
 77
1
  4

 78
1
 79
1
170
1
 48
1.0
171
1
  6

172
1
173
1
174
1
140
1.0
141
1.0
175
1
  7

176
1
177
1
178
1
143
1.0
179
1
  8

270
1
271
1
272
1
145
1.0
146
1.0
273
1
  9

274
1
275
1
276
1
 42
1.0
 72
1
  3

 73
1
 74
1
 75
1
 94
63
  0
MATERIAL
  5
20
102
{ACAD_REACTORS
330
E
102
}
330
E
100
AcDbMaterial
  1
ByLayer
  2

 70
0
 40
1.0
 71
1
 41
1.0
 91
-1023410177
 42
1.0
 72
1
  3

 73
1
 74
1
 75
1
 44
0.5
 73
0
 45
1.0
 46
1.0
 77
1
  4

 78
1
 79
1
170
1
 48
1.0
171
1
  6

172
1
173
1
174
1
140
1.0
141
1.0
175
1
  7

176
1
177
1
178
1
143
1.0
179
1
  8

270
1
271
1
272
1
145
1.0
146
1.0
273
1
  9

274
1
275
1
276
1
 42
1.0
 72
1
  3

 73
1
 74
1
 75
1
 94
63
  0
MATERIAL
  5
21
102
{ACAD_REACTORS
330
E
102
}
330
E
100
AcDbMaterial
  1
Global
  2

 70
0
 40
1.0
 71
1
 41
1.0
 91
-1023410177
 42
1.0
 72
1
  3

 73
1
 74
1
 75
1
 44
0.5
 73
0
 45
1.0
 46
1.0
 77
1
  4

 78
1
 79
1
170
1
 48
1.0
171
1
  6

172
1
173
1
174
1
140
1.0
141
1.0
175
1
  7

176
1
177
1
178
1
143
1.0
179
1
  8

270
1
271
1
272
1
145
1.0
146
1.0
273
1
  9

274
1
275
1
276
1
 42
1.0
 72
1
  3

 73
1
 74
1
 75
1
 94
63
  0
MLINESTYLE
  5
22
102
{ACAD_REACTORS
330
10
102
}
330
10
100
AcDbMlineStyle
  2
Standard
 70
0
  3

 62
256
 51
90.0
 52
90.0
 71
2
 49
0.5
 62
256
  6
BYLAYER
 49
-0.5
 62
256
  6
BYLAYER
  0
MLEADERSTYLE
  5
2C
102
{ACAD_REACTORS
330
F
102
}
330
F
100
AcDbMLeaderStyle
179
2
170
2
171
1
172
0
 90
2
 40
0.0
 41
0.0
173
1
 91
-1056964608
 92
-2
290
1
 42
2.0
291
1
 43
8.0
  3
Standard
 44
4.0
300

342
29
174
1
175
1
176
0
178
1
 93
-1056964608
 45
4.0
292
0
297
0
 46
4.0
 94
-1056964608
 47
1.0
 49
1.0
140
1.0
294
1
141
0.0
177
0
142
1.0
295
0
296
0
143
3.75
271
0
272
9
273
9
  0
DICTIONARY
  5
2D
330
A
100
AcDbDictionary
280
1
281
1
  3
CREATED_BY_EZDXF
350
2E
  3
WRITTEN_BY_EZDXF
350
A6
  0
DICTIONARYVAR
  5
2E
330
2D
100
DictionaryVariables
280
0
  1
1.4.4 @ 2026-09-01T06:40:16.445136+00:00
  0
VISUALSTYLE
  5
5A
102
{ACAD_REACTORS
330
16
102
}
330
16
100
AcDbVisualStyle
  2
2dWireframe
 70
4
 90
0
 40
0.6
 62
7
290
0
291
0
  0
VISUALSTYLE
  5
5B
102
{ACAD_REACTORS
330
16
102
}
330
16
100
AcDbVisualStyle
  2
Basic
 70
7
 90
1
 40
0.6
 62
7
290
0
291
1
  0
VISUALSTYLE
  5
5C
102
{ACAD_REACTORS
330
16
102
}
330
16
100
AcDbVisualStyle
  2
Brighten
 70
12
 90
2
 40
0.6
 62
7
290
0
291
1
  0
VISUALSTYLE
  5
5D
102
{ACAD_REACTORS
330
16
102
}
330
16
100
AcDbVisualStyle
  2
ColorChange
 70
16
 90
2
 40
0.6
 62
8
290
0
291
1
  0
VISUALSTYLE
  5
5E
102
{ACAD_REACTORS
330
16
102
}
330
16
100
AcDbVisualStyle
  2
Conceptual
 70
9
 90
3
 40
0.6
 62
7
290
0
291
0
  0
VISUALSTYLE
  5
5F
102
{ACAD_REACTORS
330
16
102
}
330
16
100
AcDbVisualStyle
  2
Dim
 70
11
 90
2
 40
0.6
 62
7
290
0
291
1
  0
VISUALSTYLE
  5
60
102
{ACAD_REACTORS
330
16
102
}
330
16
100
AcDbVisualStyle
  2
EdgeColorOff
 70
22
 90
2
 40
0.6
 62
7
290
0
291
1
  0
VISUALSTYLE
  5
61
102
{ACAD_REACTORS
330
16
102
}
330
16
100
AcDbVisualStyle
  2
Facepattern
 70
15
 90
2
 40
0.6
 62
7
290
0
291
1
  0
VISUALSTYLE
  5
62
102
{ACAD_REACTORS
330
16
102
}
330
16
100
AcDbVisualStyle
  2
Flat
 70
0
 90
2
 40
0.6
 62
7
290
0
291
1
  0
VISUALSTYLE
  5
63
102
{ACAD_REACTORS
330
16
102
}
330
16
100
AcDbVisualStyle
  2
FlatWithEdges
 70
1
 90
2
 40
0.6
 62
7
290
0
291
1
  0
VISUALSTYLE
  5
64
102
{ACAD_REACTORS
330
16
102
}
330
16
100
AcDbVisualStyle
  2
Gouraud
 70
2
 90
2
 40
0.6
 62
7
290
0
291
1
  0
VISUALSTYLE
  5
65
102
{ACAD_REACTORS
330
16
102
}
330
16
100
AcDbVisualStyle
  2
GouraudWithEdges
 70
3
 90
2
 40
0.6
 62
7
290
0
291
1
  0
VISUALSTYLE
  5
66
102
{ACAD_REACTORS
330
16
102
}
330
16
100
AcDbVisualStyle
  2
Hidden
 70
6
 90
1
 40
0.6
 62
7
290
0
291
0
  0
VISUALSTYLE
  5
67
102
{ACAD_REACTORS
330
16
102
}
330
16
100
AcDbVisualStyle
  2
JitterOff
 70
20
 90
2
 40
0.6
 62
7
290
0
291
1
  0
VISUALSTYLE
  5
68
102
{ACAD_REACTORS
330
16
102
}
330
16
100
AcDbVisualStyle
  2
Linepattern
 70
14
 90
2
 40
0.6
 62
7
290
0
291
1
  0
VISUALSTYLE
  5
69
102
{ACAD_REACTORS
330
16
102
}
330
16
100
AcDbVisualStyle
  2
Modeling
 70
10
 90
2
 40
0.6
 62
7
290
0
291
0
  0
VISUALSTYLE
  5
6A
102
{ACAD_REACTORS
330
16
102
}
330
16
100
AcDbVisualStyle
  2
OverhangOff
 70
21
 90
2
 40
0.6
 62
7
290
0
291
1
  0
VISUALSTYLE
  5
6B
102
{ACAD_REACTORS
330
16
102
}
330
16
100
AcDbVisualStyle
  2
Realistic
 70
8
 90
2
 40
0.6
 62
7
290
0
291
0
  0
VISUALSTYLE
  5
6C
102
{ACAD_REACTORS
330
16
102
}
330
16
100
AcDbVisualStyle
  2
Shaded
 70
27
 90
2
 40
0.6
 62
7
290
0
291
0
  0
VISUALSTYLE
  5
6D
102
{ACAD_REACTORS
330
16
102
}
330
16
100
AcDbVisualStyle
  2
Shaded with edges
 70
26
 90
2
 40
0.6
 62
7
290
0
291
0
  0
VISUALSTYLE
  5
6E
102
{ACAD_REACTORS
330
16
102
}
330
16
100
AcDbVisualStyle
  2
Shades of Gray
 70
23
 90
2
 40
0.6
 62
7
290
0
291
0
  0
VISUALSTYLE
  5
6F
102
{ACAD_REACTORS
330
16
102
}
330
16
100
AcDbVisualStyle
  2
Sketchy
 70
24
 90
1
 40
0.6
 62
7
290
0
291
0
  0
VISUALSTYLE
  5
70
102
{ACAD_REACTORS
330
16
102
}
330
16
100
AcDbVisualStyle
  2
Thicken
 70
13
 90
2
 40
0.6
 62
7
290
0
291
1
  0
VISUALSTYLE
  5
71
102
{ACAD_REACTORS
330
16
102
}
330
16
100
AcDbVisualStyle
  2
Wireframe
 70
5
 90
0
 40
0.6
 62
7
290
0
291
0
  0
VISUALSTYLE
  5
72
102
{ACAD_REACTORS
330
16
102
}
330
16
100
AcDbVisualStyle
  2
X-Ray
 70
25
 90
2
 40
0.5
 62
7
290
0
291
0
  0
DICTIONARYVAR
  5
A6
330
2D
100
DictionaryVariables
280
0
  1
1.4.4 @ 2026-09-01T06:40:16.464654+00:00
  0
ENDSEC
  0
EOF
